if (_typeface_js && _typeface_js.loadFace) _typeface_js.loadFace({"glyphs":{"0":{"ha":656,"x_min":11,"x_max":629,"o":"m 260 704 q 180 615 210 665 q 142 513 151 566 q 130 399 133 461 q 130 273 126 336 q 163 191 130 228 q 243 134 197 153 q 342 117 289 115 q 434 145 395 118 q 515 313 492 184 q 502 560 537 441 q 444 659 484 613 q 354 720 403 704 q 260 704 305 735 m 174 772 q 294 825 227 808 q 393 829 361 841 q 496 766 453 804 q 564 673 538 727 q 604 565 590 618 q 629 438 618 511 q 612 243 643 343 q 509 74 581 144 q 347 1 437 4 q 146 59 248 -1 q 30 186 43 119 q 11 320 14 255 q 14 441 8 385 q 33 585 19 498 q 68 667 38 625 q 123 732 98 709 q 174 772 148 754 z "},"1":{"ha":309,"x_min":14,"x_max":288,"o":"m 28 802 q 109 819 60 812 q 195 825 157 825 q 232 818 232 825 q 246 681 240 746 q 258 547 252 616 q 266 439 263 479 q 273 323 269 399 q 277 224 277 247 q 282 112 278 202 q 286 7 286 22 q 243 -7 288 -15 q 180 31 193 3 q 178 42 178 37 q 172 305 176 201 q 161 519 168 410 q 151 723 155 629 q 123 723 151 728 q 62 708 96 718 q 20 699 28 699 q 14 723 16 699 q 16 773 12 747 q 28 802 20 799 z "},"2":{"ha":678,"x_min":20,"x_max":661,"o":"m 62 685 q 199 776 134 749 q 347 791 264 803 q 457 754 407 780 q 538 695 507 728 q 588 629 570 662 q 610 568 606 595 q 599 465 617 507 q 545 396 581 422 q 465 351 510 370 q 373 312 420 332 q 286 267 326 292 q 216 197 245 241 q 182 94 187 153 q 257 95 180 87 q 433 111 334 103 q 624 107 532 119 q 660 64 648 103 q 648 20 671 24 q 646 20 647 20 q 470 16 574 18 q 326 12 366 14 q 207 5 286 11 q 22 -12 127 -1 q 30 44 5 -15 q 104 184 54 103 q 201 313 153 264 q 308 386 239 353 q 429 439 377 419 q 486 471 481 458 q 503 541 502 515 q 498 578 505 566 q 472 620 492 591 q 312 699 411 699 q 277 696 293 697 q 243 690 260 694 q 215 682 225 685 q 185 668 205 678 q 159 654 165 658 q 127 636 152 651 q 95 617 102 621 q 80 629 92 616 q 60 658 68 643 q 62 685 53 673 z "},"3":{"ha":662,"x_min":5,"x_max":640,"o":"m 46 821 q 287 815 144 815 q 505 812 430 815 q 591 796 581 808 q 505 709 600 785 q 342 585 456 670 q 241 506 240 509 q 258 507 241 506 q 292 507 274 507 q 340 507 311 507 q 396 503 369 506 q 455 493 423 500 q 514 475 487 486 q 566 448 541 465 q 608 410 591 431 q 634 359 625 389 q 640 292 643 328 q 393 12 624 79 q 243 11 349 -3 q 43 58 138 24 q 48 92 22 65 q 98 115 75 119 q 149 105 113 113 q 202 96 186 98 q 249 91 218 94 q 300 90 279 88 q 347 98 320 92 q 401 115 374 103 q 537 302 540 174 q 524 347 536 327 q 489 378 511 366 q 445 398 467 391 q 393 414 423 406 q 292 421 351 423 q 191 412 233 419 q 109 404 148 406 q 68 414 69 403 q 69 441 61 423 q 99 481 77 458 q 146 527 121 505 q 210 580 171 549 q 280 633 250 610 q 355 690 311 656 q 423 742 399 723 q 326 736 369 741 q 243 730 282 731 q 24 731 203 728 q 7 770 0 731 q 38 819 14 811 q 46 821 42 821 z "},"4":{"ha":627,"x_min":20,"x_max":602,"o":"m 274 853 q 307 836 289 872 q 312 762 328 792 q 309 758 311 760 q 245 675 269 711 q 197 600 221 640 q 152 528 172 559 l 496 538 q 497 570 496 549 q 499 603 498 590 q 505 620 500 616 q 564 637 525 640 q 602 606 604 633 q 595 414 595 473 q 597 288 594 354 q 600 142 600 221 q 583 71 600 126 q 556 4 566 15 q 533 3 551 -3 q 500 26 515 9 q 486 61 484 42 q 488 178 487 122 q 490 306 490 235 q 491 427 490 377 q 290 428 392 431 q 107 428 189 425 q 22 446 26 431 q 87 596 9 477 q 274 853 165 715 z "},"5":{"ha":651,"x_min":12,"x_max":635,"o":"m 616 848 q 605 795 644 850 q 553 742 570 745 q 427 734 488 736 q 288 729 366 731 q 155 726 209 727 l 141 574 q 315 593 239 591 q 454 567 391 594 q 578 479 518 540 q 622 378 608 448 q 634 250 636 309 q 621 172 632 190 q 520 66 578 102 q 374 15 463 31 q 297 7 336 7 q 233 9 258 7 q 163 23 209 11 q 104 39 117 35 q 38 61 92 43 q 14 92 19 66 q 18 137 8 117 q 49 153 28 157 q 122 133 66 148 q 201 113 178 118 q 270 101 224 109 q 344 97 316 94 q 406 111 372 100 q 469 142 441 121 q 535 267 526 184 q 494 406 544 350 q 399 475 450 452 q 274 498 347 499 q 217 492 250 496 q 157 482 184 487 q 102 473 129 477 q 60 469 76 469 q 41 476 43 469 q 39 650 28 495 q 68 807 50 804 q 321 825 178 819 q 616 848 464 830 z "},"6":{"ha":716,"x_min":16,"x_max":704,"o":"m 122 376 q 116 357 117 372 q 124 317 115 342 q 144 265 133 293 q 175 208 156 237 q 215 155 194 179 q 263 115 236 132 q 317 94 290 98 q 449 109 382 83 q 555 188 515 134 q 586 305 595 241 q 491 379 578 351 q 296 406 404 407 q 122 376 189 404 m 532 837 q 551 821 545 838 q 550 785 556 804 q 532 761 544 765 q 437 726 480 745 q 363 687 395 708 q 309 650 331 666 q 265 609 286 633 q 234 572 244 585 q 206 534 224 560 q 184 500 189 507 q 269 499 213 499 q 353 498 326 499 q 427 493 381 496 q 500 481 472 490 q 564 457 529 472 q 629 417 600 442 q 686 359 658 392 q 703 301 703 338 q 692 226 704 264 q 653 149 680 187 q 594 88 627 111 q 391 6 500 23 q 209 28 281 -11 q 125 94 163 52 q 66 182 88 136 q 29 280 43 229 q 17 372 15 331 q 30 446 19 414 q 229 711 99 613 q 532 837 359 808 z "},"7":{"ha":751,"x_min":23,"x_max":724,"o":"m 60 850 q 376 836 187 849 q 724 821 564 823 q 724 743 739 819 q 697 650 709 667 q 537 372 590 483 q 401 31 484 260 q 342 0 389 0 q 297 22 301 0 q 298 31 297 26 q 380 264 334 157 q 491 500 426 370 q 597 726 556 631 q 92 761 98 760 q 24 826 46 764 q 33 844 20 837 q 60 850 45 850 z "},"8":{"ha":760,"x_min":18,"x_max":730,"o":"m 380 408 q 267 388 327 411 q 166 334 206 365 q 122 281 126 302 q 149 217 117 258 q 235 141 180 176 q 342 102 290 106 q 627 245 595 75 q 593 311 631 274 q 496 376 556 349 q 380 408 435 404 m 515 764 q 472 760 503 762 q 429 755 441 757 q 391 750 418 754 q 353 742 365 746 q 320 731 342 738 q 286 715 298 724 q 256 692 273 705 q 227 661 240 678 q 203 623 214 644 q 221 568 187 594 q 304 534 255 541 q 396 538 353 528 q 559 604 503 575 q 627 663 614 633 q 595 726 635 685 q 515 764 556 766 m 730 321 q 720 191 739 250 q 661 92 701 132 q 567 28 621 52 q 450 1 513 5 q 298 18 385 -4 q 141 91 212 41 q 40 187 73 137 q 19 302 7 237 q 35 350 23 330 q 68 386 47 370 q 106 411 88 401 q 157 435 125 420 q 212 463 190 450 q 148 499 172 479 q 107 550 123 519 q 104 625 91 581 q 160 723 117 669 q 304 829 224 804 q 507 850 384 853 q 654 811 591 848 q 716 707 716 774 q 714 653 715 670 q 706 614 713 636 q 687 581 699 591 q 650 552 675 570 q 591 519 624 534 q 505 481 559 505 q 663 401 602 445 q 730 321 724 358 z "},"9":{"ha":876,"x_min":18,"x_max":842,"o":"m 670 652 q 622 686 670 665 q 502 722 574 708 q 377 728 430 736 q 265 684 324 719 q 170 614 206 650 q 136 560 134 578 q 182 504 137 524 q 284 486 227 484 q 399 495 342 487 q 581 559 494 511 q 670 652 667 608 m 19 552 q 58 624 20 579 q 152 713 95 669 q 286 791 209 758 q 434 829 363 825 q 586 816 486 830 q 700 785 686 802 q 842 484 807 646 q 819 202 876 321 q 767 136 800 165 q 695 87 734 107 q 599 53 656 68 q 492 30 541 38 q 370 16 444 22 q 245 7 297 9 q 114 1 193 4 q 99 45 84 0 q 148 109 115 91 q 165 113 157 113 q 440 115 338 102 q 635 175 543 129 q 709 237 684 198 q 737 324 735 277 q 730 416 739 372 q 703 509 722 461 q 678 496 693 505 q 579 450 612 464 q 496 419 547 435 q 400 398 446 403 q 298 397 354 393 q 201 410 248 400 q 111 439 153 420 q 42 486 68 457 q 19 552 16 515 z "},"\u0000":{"ha":608,"x_min":0,"x_max":0,"o":""}," ":{"ha":401,"x_min":0,"x_max":0,"o":""},"!":{"ha":160,"x_min":26,"x_max":138,"o":"m 76 56 q 128 31 104 57 q 138 -18 152 5 q 84 -47 121 -46 q 27 -23 47 -49 q 28 25 9 -4 q 76 56 47 54 m 30 971 q 54 990 30 986 q 101 986 77 994 q 125 963 125 978 q 127 628 130 840 q 130 240 125 416 q 91 217 130 212 q 30 254 46 222 q 27 270 26 260 q 32 637 34 366 q 30 971 30 909 z "},"\"":{"ha":350,"x_min":23,"x_max":328,"o":"m 225 869 q 288 848 222 887 q 328 818 328 825 q 317 756 324 789 q 307 695 311 723 q 304 625 304 667 q 286 613 304 616 q 249 615 267 610 q 231 628 231 620 q 231 684 231 646 q 232 745 232 722 q 230 804 232 769 q 225 869 228 838 m 24 850 q 52 867 23 860 q 104 876 80 875 q 133 872 129 876 q 119 631 119 716 q 77 616 119 616 q 35 631 35 617 q 24 850 35 764 z "},"#":{"ha":795,"x_min":18,"x_max":773,"o":"m 328 530 l 328 343 l 480 354 l 496 555 l 328 530 m 260 780 q 288 798 260 792 q 340 798 315 803 q 363 780 365 792 q 345 623 363 780 l 515 650 q 517 690 515 665 q 519 731 518 715 q 524 758 521 747 q 545 770 529 772 q 579 755 562 769 q 600 726 597 741 q 599 703 600 715 q 595 675 598 690 q 591 650 591 659 q 642 657 613 650 q 689 670 670 665 q 713 674 708 675 q 720 665 719 671 q 717 648 720 658 q 709 628 713 637 q 701 608 705 618 q 694 593 696 597 q 673 575 690 582 q 625 560 655 568 q 581 547 595 552 l 572 359 q 749 397 749 397 q 770 382 764 400 q 772 341 777 363 q 754 313 768 319 q 691 290 722 298 q 621 274 661 282 q 556 259 582 266 q 553 205 555 237 q 549 147 551 172 q 545 99 547 122 q 517 72 543 80 q 466 72 491 64 q 442 99 441 80 q 461 254 442 99 l 307 237 q 301 189 304 218 q 296 138 298 159 q 293 104 293 118 q 256 95 290 81 q 216 133 221 109 q 217 145 214 138 q 223 172 221 160 q 227 199 225 184 q 231 224 228 213 q 178 224 206 224 q 123 224 149 224 q 57 227 96 225 q 52 263 30 227 q 109 312 76 302 q 117 313 113 312 q 155 314 136 313 q 197 315 174 315 q 239 316 221 315 l 241 517 q 149 510 210 515 q 65 504 87 505 q 19 506 43 503 q 26 529 11 509 q 72 571 42 549 q 127 598 102 593 q 160 603 140 600 q 210 610 180 606 q 258 617 240 614 q 257 694 258 624 q 260 780 256 764 z "},"$":{"ha":643,"x_min":20,"x_max":621,"o":"m 377 430 l 372 273 q 387 278 376 274 q 435 298 419 290 q 472 319 450 305 q 507 351 494 332 q 529 395 519 369 q 529 408 532 403 q 517 418 526 414 q 498 424 509 422 q 472 427 488 426 q 443 428 456 427 q 410 429 430 429 q 377 430 389 429 m 269 522 l 274 644 q 159 591 210 628 q 119 536 107 555 q 146 526 123 528 q 209 524 170 524 q 269 522 248 524 m 534 812 q 555 793 548 811 q 558 758 562 776 q 545 739 555 741 q 517 735 538 738 q 492 732 496 732 q 473 729 488 731 q 452 724 458 727 q 434 718 446 722 q 411 708 422 713 q 388 696 400 703 l 382 519 q 401 515 389 518 q 460 505 441 509 q 510 493 479 500 q 557 477 541 486 q 591 458 574 469 q 616 430 609 446 q 621 395 623 414 q 603 344 618 369 q 551 289 587 319 q 487 239 514 259 q 403 182 460 220 q 369 159 380 165 q 369 61 369 61 q 316 11 365 30 q 256 14 267 -8 q 255 26 254 19 q 256 64 256 26 q 255 107 255 103 q 198 105 232 109 q 138 104 164 102 q 87 118 113 106 q 81 147 71 125 q 109 172 91 170 q 255 213 203 186 l 274 452 q 105 455 180 441 q 22 517 30 469 q 31 576 16 547 q 66 627 45 606 q 126 673 87 648 q 189 711 165 699 q 254 742 212 723 q 269 750 263 747 q 267 811 269 754 q 271 869 266 868 q 287 876 274 876 q 319 867 300 875 q 350 850 338 860 q 361 832 358 842 q 365 808 363 822 q 369 785 366 793 q 424 796 391 788 q 483 808 457 804 q 534 812 509 812 z "},"%":{"ha":627,"x_min":18,"x_max":600,"o":"m 469 324 q 437 293 448 317 q 442 256 426 269 q 490 248 463 240 q 529 281 518 256 q 513 315 536 300 q 469 324 491 330 m 456 403 q 529 396 490 415 q 590 340 568 377 q 600 270 612 304 q 545 199 585 228 q 461 168 505 170 q 382 194 418 165 q 355 267 353 225 q 386 349 357 309 q 456 403 415 388 m 152 655 q 97 612 118 642 q 98 566 76 583 q 154 562 125 547 q 203 609 183 576 q 192 644 213 625 q 152 655 171 662 m 130 726 q 203 715 165 736 q 260 655 241 694 q 266 582 279 616 q 206 510 248 540 q 121 479 164 480 q 43 509 77 477 q 18 587 14 544 q 55 671 23 631 q 130 726 87 711 m 524 812 q 533 800 530 815 q 525 703 541 760 q 518 685 522 689 q 423 564 464 623 q 351 442 382 505 q 300 332 320 380 q 249 205 281 285 q 195 72 217 125 q 162 61 191 62 q 109 70 133 60 q 92 99 85 80 q 220 384 141 229 q 385 665 298 538 q 524 812 471 792 z "},"&":{"ha":393,"x_min":23,"x_max":377,"o":"m 168 64 q 186 87 168 77 q 224 96 205 98 q 244 80 243 94 q 246 8 247 47 q 247 -53 245 -31 q 222 -92 248 -76 q 184 -91 195 -109 q 169 -31 174 -75 q 168 64 164 12 m 160 937 q 180 957 161 951 q 218 960 199 963 q 239 948 237 956 q 239 837 247 891 q 195 788 235 810 q 157 793 160 769 q 155 833 156 814 q 153 859 153 852 q 155 884 153 867 q 160 937 156 901 m 353 777 q 371 762 363 780 q 376 724 378 745 q 361 701 373 704 q 258 654 315 688 q 168 587 202 621 q 146 541 133 553 q 189 535 163 532 q 254 545 216 538 q 304 549 292 551 q 319 517 321 545 q 298 484 316 490 q 151 396 221 460 q 100 294 80 332 q 147 250 117 260 q 210 244 178 239 q 281 252 243 250 q 355 251 320 255 q 347 210 385 244 q 274 172 309 178 q 109 171 160 153 q 24 259 57 189 q 24 343 5 297 q 74 420 43 389 q 133 468 104 452 q 110 476 119 472 q 87 487 100 480 q 68 500 75 494 q 53 515 61 506 q 45 532 45 524 q 49 552 46 540 q 170 697 85 640 q 353 777 254 754 z "},"'":{"ha":151,"x_min":14,"x_max":130,"o":"m 22 848 q 52 869 23 867 q 106 864 80 872 q 130 848 132 856 q 111 777 118 807 q 103 733 104 746 q 99 689 102 720 q 95 642 96 658 q 62 625 92 625 q 30 642 33 625 q 23 676 27 651 q 18 708 19 701 q 16 734 18 715 q 14 766 14 753 q 16 800 15 779 q 22 848 18 821 z "},"(":{"ha":456,"x_min":18,"x_max":425,"o":"m 380 959 q 401 943 393 959 q 407 908 410 926 q 391 888 404 890 q 275 825 326 878 q 193 692 224 773 q 143 526 161 612 q 117 343 125 439 q 195 116 106 225 q 410 -28 283 7 q 424 -70 429 -34 q 399 -104 419 -106 q 233 -47 316 -100 q 92 87 149 7 q 24 248 35 167 q 19 387 12 311 q 41 542 26 464 q 88 694 56 620 q 161 827 121 769 q 259 920 202 884 q 380 959 316 956 z "},")":{"ha":377,"x_min":16,"x_max":362,"o":"m 60 970 q 195 887 129 955 q 303 725 260 819 q 362 520 346 631 q 347 308 378 410 q 41 -104 244 -47 q 22 -92 28 -109 q 17 -54 15 -75 q 30 -28 19 -34 q 188 140 125 20 q 271 395 251 260 q 263 568 283 477 q 205 726 243 659 q 124 841 167 793 q 49 899 81 888 q 34 922 37 903 q 39 956 31 940 q 60 970 47 972 z "},"*":{"ha":439,"x_min":7,"x_max":430,"o":"m 57 804 q 55 827 49 814 q 78 848 61 840 q 106 850 95 856 q 136 829 123 840 q 163 804 149 818 q 190 780 178 789 q 211 810 198 792 q 234 842 224 827 q 255 869 244 856 q 297 865 269 886 q 315 826 326 844 q 297 797 304 808 q 283 774 290 785 q 271 753 277 762 q 316 755 290 754 q 364 758 342 755 q 415 764 387 760 q 429 734 433 765 q 404 693 425 699 q 401 693 403 693 q 376 690 389 692 q 347 688 363 689 q 320 688 331 688 q 346 669 331 678 q 373 650 361 659 q 399 625 385 640 q 395 596 408 613 q 361 573 381 579 q 328 576 342 567 q 239 661 328 576 q 163 547 163 547 q 99 525 148 521 q 62 547 61 529 q 65 555 62 551 q 98 603 85 587 q 122 629 110 618 q 146 655 134 640 q 115 657 129 655 q 83 661 102 659 q 24 663 64 662 q 7 683 12 663 q 7 721 3 703 q 24 739 12 739 q 160 728 24 739 q 127 750 145 738 q 94 774 110 762 q 57 804 79 785 z "},"+":{"ha":675,"x_min":23,"x_max":658,"o":"m 301 628 q 326 657 300 647 q 378 661 351 667 q 407 636 406 655 q 407 591 407 605 q 407 543 407 576 q 407 490 407 509 q 486 489 454 488 q 556 488 517 490 q 635 484 595 487 q 656 460 652 481 q 650 418 661 439 q 621 397 639 397 q 401 392 620 397 q 396 210 396 210 q 365 180 395 186 q 307 188 335 174 q 282 227 279 202 q 285 277 283 251 q 288 336 286 302 q 290 392 289 369 q 24 381 24 381 q 46 438 0 380 q 81 473 73 472 q 161 478 127 476 q 230 482 194 480 q 296 487 266 484 q 298 537 296 506 q 300 583 300 568 q 301 628 301 597 z "},",":{"ha":182,"x_min":20,"x_max":164,"o":"m 76 183 q 119 195 83 218 q 157 151 145 179 q 163 91 164 129 q 157 45 163 53 q 73 -50 111 -16 q 22 -53 34 -83 q 25 -25 19 -49 q 47 58 31 -1 q 76 183 62 118 z "},"-":{"ha":563,"x_min":16,"x_max":551,"o":"m 38 452 q 235 454 199 453 q 378 450 271 454 q 532 444 484 445 q 550 419 545 442 q 547 374 555 396 q 526 351 540 351 q 38 354 407 350 q 17 378 23 354 q 17 426 11 401 q 38 452 23 450 z "},".":{"ha":172,"x_min":20,"x_max":151,"o":"m 22 56 q 73 103 26 85 q 130 113 119 121 q 151 54 157 90 q 114 4 144 19 q 51 7 85 -11 q 22 56 16 26 z "},"/":{"ha":575,"x_min":14,"x_max":551,"o":"m 472 850 q 504 852 483 861 q 542 820 525 844 q 551 783 559 796 q 432 578 505 704 q 317 380 359 453 q 214 205 274 307 q 98 15 153 104 q 62 5 84 -3 q 24 31 39 12 q 18 40 20 35 q 16 50 16 45 q 15 59 15 56 q 16 69 15 62 q 19 79 18 76 q 23 91 20 83 q 27 102 26 99 q 45 129 31 114 q 65 153 60 144 q 472 850 171 332 z "},":":{"ha":187,"x_min":23,"x_max":170,"o":"m 30 153 q 76 241 34 199 q 141 270 118 283 q 169 224 165 254 q 159 165 172 194 q 125 113 146 136 q 64 106 103 90 q 30 153 26 123 m 24 701 q 81 760 42 741 q 141 764 121 780 q 159 691 168 741 q 114 623 149 642 q 45 635 81 605 q 24 701 8 666 z "},";":{"ha":293,"x_min":12,"x_max":271,"o":"m 174 240 q 207 233 178 247 q 258 195 236 218 q 271 161 281 172 q 233 116 247 133 q 203 81 218 99 q 180 52 189 62 q 150 10 172 41 q 109 -45 127 -20 q 34 -62 94 -64 q 14 -57 11 -62 q 74 73 42 15 q 174 240 106 132 m 98 720 q 169 756 126 753 q 244 731 212 760 q 235 681 266 709 q 171 650 205 652 q 109 673 138 647 q 98 720 79 699 z "},"<":{"ha":643,"x_min":18,"x_max":632,"o":"m 589 726 q 618 701 608 736 q 610 644 629 659 q 469 559 536 600 q 319 470 403 519 q 176 387 235 420 q 309 340 235 366 q 451 291 384 313 q 610 240 518 269 q 632 183 636 231 q 606 141 628 141 q 600 142 602 141 q 366 225 479 187 q 197 281 254 263 q 94 315 140 298 q 34 342 49 331 q 19 370 19 354 q 54 406 19 380 q 157 474 88 433 q 289 552 227 515 q 446 643 351 589 q 589 726 541 697 z "},"=":{"ha":648,"x_min":12,"x_max":629,"o":"m 38 324 q 347 328 172 324 q 616 332 521 331 q 629 294 640 332 q 590 244 617 255 q 583 243 586 243 q 380 225 445 229 q 224 224 315 221 q 33 243 134 227 q 13 264 18 244 q 15 304 8 285 q 38 324 22 324 m 46 669 q 246 666 137 669 q 418 665 355 663 q 578 674 481 666 q 610 642 604 675 q 585 579 618 600 q 551 571 571 571 q 340 574 456 571 q 106 576 225 578 q 41 620 71 575 q 37 667 15 658 q 46 669 41 669 z "},">":{"ha":686,"x_min":18,"x_max":662,"o":"m 81 736 q 205 673 140 705 q 326 615 271 642 q 433 563 380 589 q 528 518 487 537 q 600 484 568 499 q 646 460 631 469 q 662 452 662 452 q 532 359 598 397 q 355 262 465 320 q 133 134 245 205 q 58 149 104 117 q 33 195 20 176 q 41 202 35 199 q 294 330 148 262 q 502 435 439 399 q 269 547 412 490 q 24 669 125 605 q 19 698 12 680 q 46 730 26 716 q 81 736 66 743 z "},"?":{"ha":625,"x_min":23,"x_max":609,"o":"m 266 96 q 317 121 281 122 q 369 94 354 119 q 366 34 384 66 q 317 3 347 1 q 268 37 286 4 q 266 96 250 69 m 24 808 q 143 884 84 853 q 269 933 202 914 q 406 946 336 952 q 540 906 476 940 q 590 866 572 888 q 609 817 608 844 q 604 766 610 789 q 586 711 598 742 q 544 657 572 680 q 488 624 515 635 q 431 591 461 613 q 385 540 401 570 q 361 468 369 509 q 353 405 354 427 q 357 334 353 382 q 361 283 361 286 q 336 272 361 274 q 288 275 312 270 q 263 292 263 281 q 260 360 263 313 q 258 435 258 407 q 265 504 258 463 q 290 581 273 545 q 339 637 305 613 q 405 673 373 661 q 462 710 437 685 q 488 770 487 735 q 460 832 490 808 q 388 860 430 856 q 301 857 346 864 q 92 749 206 840 q 37 762 72 732 q 24 808 8 792 z "},"@":{"ha":722,"x_min":12,"x_max":697,"o":"m 374 254 q 325 243 346 255 q 293 214 304 232 q 277 178 282 197 q 273 145 271 160 q 282 126 275 130 q 330 110 296 117 q 402 109 363 103 q 456 140 441 114 q 460 165 463 146 q 451 202 457 183 q 424 236 445 221 q 374 254 403 251 m 174 170 q 184 192 176 168 q 205 247 191 216 q 239 292 218 278 q 310 317 266 309 q 387 326 354 324 q 426 335 420 328 q 396 392 457 377 q 241 381 335 406 q 233 391 231 377 q 269 439 241 418 q 285 449 277 446 q 379 457 334 461 q 450 441 425 453 q 499 400 479 425 q 529 343 519 376 q 543 288 538 311 q 549 227 547 264 q 553 178 552 189 q 579 194 555 163 q 610 283 621 247 q 552 397 587 353 q 456 476 517 441 q 250 481 357 529 q 168 420 197 457 q 125 327 138 384 q 129 227 113 279 q 174 170 145 174 m 38 406 q 185 547 92 505 q 396 576 278 590 q 591 495 510 563 q 697 327 673 427 q 663 151 719 231 q 507 31 608 72 q 133 94 312 -50 q 50 184 81 134 q 13 292 19 235 q 38 406 7 350 z "},"A":{"ha":880,"x_min":16,"x_max":859,"o":"m 19 53 q 123 241 60 130 q 237 447 187 351 q 342 663 288 543 q 366 716 351 684 q 388 767 380 749 q 407 810 396 785 q 425 847 418 834 q 441 873 433 860 q 458 892 450 887 q 472 898 465 898 q 500 889 488 898 q 520 863 513 880 q 532 828 528 845 q 541 785 536 811 q 551 745 547 760 q 581 658 559 716 q 634 517 602 600 q 681 395 666 434 q 756 227 709 317 q 831 84 803 137 q 859 24 860 31 q 808 -6 852 -1 q 642 -5 764 -11 q 363 3 481 1 q 359 38 338 3 q 419 83 389 77 q 471 82 441 83 q 528 81 502 81 q 583 79 553 80 q 633 79 612 79 q 673 80 655 79 q 699 84 690 81 q 705 92 708 87 q 597 345 643 231 q 469 647 477 639 q 440 622 461 654 q 387 524 419 590 q 319 387 354 458 q 238 220 285 315 q 156 56 191 125 q 73 23 138 22 q 18 46 20 24 q 19 53 18 49 z "},"B":{"ha":719,"x_min":11,"x_max":694,"o":"m 148 372 q 130 234 136 366 q 136 100 125 102 q 320 127 189 88 q 547 233 452 165 q 573 315 581 260 q 533 387 566 369 q 357 420 456 425 q 148 372 259 415 m 156 755 q 146 726 151 754 q 141 658 142 697 q 140 579 140 618 q 145 513 141 540 q 156 488 149 487 q 437 681 426 543 q 323 749 441 730 q 156 755 205 769 m 47 880 q 89 880 58 880 q 130 880 119 880 q 165 880 140 880 q 201 878 190 879 q 235 875 213 878 q 271 869 256 872 q 304 862 285 867 q 342 850 324 857 q 381 836 361 844 q 475 777 441 811 q 522 686 510 743 q 512 612 529 654 q 475 540 495 570 q 456 506 454 510 q 512 487 457 499 q 625 446 567 475 q 694 372 684 418 q 547 122 727 233 q 335 27 437 53 q 92 -3 233 1 q 51 5 69 -4 q 34 34 33 15 q 53 808 61 503 q 32 822 53 818 q 11 836 11 826 q 20 866 9 852 q 47 880 31 880 z "},"C":{"ha":761,"x_min":19,"x_max":745,"o":"m 567 838 q 632 795 600 841 q 639 755 655 760 q 473 714 591 755 q 289 602 355 673 q 220 519 252 564 q 158 398 187 473 q 136 255 129 323 q 336 100 148 126 q 381 98 359 98 q 422 99 403 98 q 461 106 441 100 q 497 117 481 111 q 534 132 513 122 q 570 148 556 141 q 607 165 585 155 q 644 183 629 176 q 698 189 662 190 q 745 183 734 187 q 724 134 761 178 q 694 106 709 117 q 551 37 655 77 q 363 -3 446 -3 q 137 64 241 -3 q 19 222 33 130 q 45 421 7 301 q 164 631 84 541 q 356 777 248 724 q 567 838 464 830 z "},"D":{"ha":814,"x_min":16,"x_max":795,"o":"m 151 731 q 159 606 153 705 q 169 354 164 506 q 170 109 174 202 q 241 113 170 103 q 399 144 312 122 q 519 189 486 165 q 678 503 709 316 q 610 616 667 572 q 450 705 552 661 q 326 738 400 727 q 201 746 252 749 q 151 731 149 743 m 56 817 q 288 835 174 838 q 525 792 403 831 q 780 586 718 730 q 795 418 812 522 q 713 236 777 313 q 545 93 631 137 q 313 24 460 49 q 245 10 281 19 q 176 -2 209 1 q 80 -5 142 -5 q 16 39 49 -5 q 27 69 8 53 q 44 73 35 75 q 61 73 53 72 q 69 80 69 73 q 70 311 72 243 q 61 517 68 380 q 53 747 54 654 q 47 775 53 757 q 43 804 42 793 q 56 817 43 815 z "},"E":{"ha":665,"x_min":23,"x_max":644,"o":"m 33 819 q 112 820 35 825 q 345 804 189 815 q 628 787 500 792 q 642 762 644 784 q 625 726 639 741 q 544 692 591 689 q 316 709 465 699 q 156 716 167 719 q 144 665 151 716 q 136 571 137 614 q 144 519 134 528 q 179 519 146 519 q 233 519 212 519 q 295 521 255 519 q 368 524 335 522 q 444 531 401 526 q 522 541 486 536 q 608 522 571 552 q 633 487 625 509 q 625 458 642 465 q 486 437 559 445 q 364 428 412 430 q 241 425 316 426 q 136 422 167 423 q 133 153 122 422 q 136 139 133 145 q 144 129 138 133 q 157 122 151 125 q 174 117 163 119 q 191 115 184 115 q 210 113 198 114 q 228 111 221 113 q 404 113 289 104 q 581 106 519 121 q 625 83 608 102 q 644 37 642 65 q 641 26 644 30 q 630 20 637 22 q 617 18 623 18 q 601 18 612 18 q 586 16 590 18 q 91 0 328 0 q 49 31 73 0 q 24 77 24 61 q 24 213 24 126 q 23 358 23 300 q 24 492 23 416 q 24 619 24 568 q 26 718 24 670 q 28 791 27 766 q 33 819 30 817 z "},"F":{"ha":627,"x_min":19,"x_max":621,"o":"m 114 842 q 157 834 132 848 q 197 819 183 821 q 600 811 395 807 q 621 768 627 812 q 589 708 614 722 q 575 705 582 705 q 456 709 543 708 q 294 715 369 711 q 164 731 220 720 q 155 667 159 732 q 152 532 151 601 q 161 456 153 463 q 223 460 165 452 q 373 481 281 468 q 522 500 465 495 q 544 486 536 502 q 549 450 552 469 q 533 427 545 431 q 323 382 465 404 q 151 342 180 361 q 139 291 144 336 q 131 164 134 245 q 125 50 127 83 q 77 3 122 22 q 20 4 33 -18 q 19 14 19 8 q 35 395 22 167 q 50 772 47 623 q 114 842 52 823 z "},"G":{"ha":817,"x_min":22,"x_max":795,"o":"m 605 795 q 611 750 624 776 q 572 713 598 724 q 519 720 552 704 q 472 736 487 736 q 252 655 340 742 q 166 538 194 597 q 127 395 138 480 q 189 180 110 270 q 384 106 273 85 q 509 154 460 119 q 628 262 557 189 q 682 347 663 300 q 684 419 700 395 q 631 433 675 431 q 491 432 587 435 q 334 430 395 429 q 327 472 304 431 q 384 528 349 514 q 397 530 391 530 q 692 538 627 538 q 758 526 723 538 q 795 503 793 514 q 782 343 800 411 q 747 255 764 275 q 361 0 538 4 q 227 22 286 -3 q 100 114 168 47 q 45 200 68 145 q 22 302 23 255 q 167 700 16 543 q 249 774 214 750 q 336 808 283 798 q 503 816 416 822 q 605 795 589 810 z "},"H":{"ha":753,"x_min":22,"x_max":731,"o":"m 22 764 q 52 795 20 787 q 116 794 84 804 q 148 761 148 784 q 144 640 148 727 q 141 501 141 553 q 148 450 141 449 q 356 486 213 460 q 602 522 499 513 q 612 562 608 522 q 621 676 616 601 q 631 787 627 751 q 657 813 632 806 q 707 813 682 821 q 731 787 731 806 q 731 425 734 639 q 731 19 728 210 q 700 -17 731 -4 q 637 -24 669 -30 q 605 5 605 -18 q 609 108 606 37 q 613 219 612 179 q 615 308 614 259 q 613 380 616 357 q 605 403 610 403 q 156 316 232 403 q 150 268 151 309 q 145 161 149 227 q 127 42 141 95 q 100 28 125 31 q 53 35 76 26 q 31 61 30 43 q 39 258 38 160 q 38 413 39 357 q 31 589 37 469 q 22 764 24 709 z "},"I":{"ha":180,"x_min":22,"x_max":159,"o":"m 22 878 q 41 883 24 884 q 77 878 57 882 q 100 869 98 873 q 142 779 125 829 q 159 716 159 730 q 155 385 159 684 q 159 50 152 87 q 109 4 160 20 q 45 8 58 -12 q 42 16 42 12 q 40 290 41 122 q 36 575 39 458 q 22 878 33 692 z "},"J":{"ha":819,"x_min":19,"x_max":793,"o":"m 153 883 q 297 876 231 878 q 408 873 363 873 q 542 873 452 873 q 708 872 632 873 q 752 839 720 872 q 784 795 784 806 q 788 622 784 731 q 793 469 792 513 q 787 366 793 425 q 707 214 768 285 q 562 98 647 144 q 382 25 477 52 q 191 0 288 -1 q 19 31 95 1 q 57 96 -4 41 q 122 138 107 141 q 450 144 315 103 q 661 331 585 184 q 679 583 690 403 q 652 774 667 762 q 486 777 616 781 q 302 769 357 773 q 261 769 286 768 q 195 780 236 770 q 130 808 155 789 q 121 853 113 822 q 153 883 130 884 z "},"K":{"ha":741,"x_min":-3,"x_max":719,"o":"m 69 787 q 94 815 69 802 q 140 831 118 829 q 167 822 161 833 q 199 514 194 524 q 364 618 214 519 q 655 814 514 716 q 671 798 667 822 q 655 716 678 753 q 644 703 650 708 q 456 567 568 643 q 274 445 343 491 q 203 392 205 399 q 256 367 202 382 q 393 325 309 351 q 525 270 476 298 q 719 100 633 210 q 694 46 738 76 q 633 34 651 16 q 616 52 632 35 q 593 74 600 68 q 570 96 587 80 q 543 120 553 111 q 515 143 533 129 q 484 168 498 157 q 452 189 471 178 q 416 209 434 199 q 269 261 351 241 q 178 264 187 281 q 174 214 174 256 q 175 123 174 171 q 172 27 176 75 q 140 -1 171 4 q 81 8 110 -5 q 53 45 52 22 q 66 308 66 251 q 32 349 66 330 q -3 374 -3 368 q 35 397 -3 380 q 75 437 73 415 q 69 787 83 559 z "},"L":{"ha":769,"x_min":22,"x_max":750,"o":"m 85 880 q 119 881 91 890 q 177 850 146 872 q 206 817 208 829 q 173 524 197 727 q 140 216 149 320 q 141 109 132 113 q 341 125 164 99 q 663 194 518 152 q 710 186 678 199 q 750 161 742 172 q 736 106 760 148 q 694 61 713 64 q 233 5 444 24 q 22 3 22 -15 q 28 252 22 146 q 54 547 35 358 q 85 880 73 736 z "},"M":{"ha":1077,"x_min":14,"x_max":1055,"o":"m 64 14 q 42 336 54 172 q 24 600 30 500 q 14 838 19 700 q 43 869 12 852 q 85 883 75 887 q 302 783 247 819 q 509 551 411 713 q 533 509 521 530 q 533 544 534 506 q 529 636 532 582 q 524 748 526 690 q 522 842 522 806 q 522 883 521 879 q 694 863 574 903 q 883 736 815 823 q 947 635 920 689 q 990 541 975 581 q 1017 430 1005 502 q 1034 327 1029 358 q 1045 203 1038 296 q 1055 80 1053 110 q 1012 0 1059 43 q 956 -20 970 -38 q 952 -8 952 -15 q 942 163 947 62 q 935 298 937 263 q 920 395 932 334 q 885 507 907 456 q 822 631 863 557 q 756 703 802 666 q 674 758 711 741 q 636 761 637 774 q 631 600 632 670 q 635 467 631 529 q 645 362 640 406 q 659 245 650 319 q 675 114 669 171 q 648 45 680 80 q 614 39 624 16 q 539 237 583 115 q 460 432 495 358 q 363 594 425 506 q 277 675 335 635 q 175 732 220 715 q 130 736 130 750 q 159 85 130 429 q 117 30 160 72 q 64 14 65 -19 z "},"N":{"ha":735,"x_min":18,"x_max":713,"o":"m 80 22 q 24 141 24 81 q 22 431 24 233 q 18 709 19 628 q 22 836 18 791 q 551 736 378 891 q 663 595 627 667 q 706 439 700 522 q 711 242 712 355 q 713 -22 711 129 q 659 -1 715 -45 q 602 64 604 43 q 604 233 600 99 q 593 458 608 368 q 533 600 579 549 q 359 728 445 694 q 127 761 273 762 q 121 643 122 761 q 126 347 121 525 q 141 14 132 170 q 109 5 142 -4 q 80 22 90 11 z "},"O":{"ha":694,"x_min":22,"x_max":667,"o":"m 403 739 q 256 705 321 760 q 153 559 191 651 q 130 341 117 453 q 180 189 142 229 q 199 170 197 172 q 216 152 202 167 q 237 134 231 137 q 256 120 243 130 q 279 108 270 110 q 300 102 288 106 q 326 100 313 98 q 353 106 339 102 q 500 188 430 130 q 578 328 571 245 q 552 507 585 410 q 476 668 519 604 q 403 739 433 732 m 98 694 q 232 804 146 769 q 392 838 317 840 q 521 779 458 837 q 621 641 583 720 q 667 488 659 562 q 625 186 694 258 q 468 45 532 87 q 305 0 404 4 q 180 37 229 -3 q 72 164 130 77 q 32 274 46 202 q 22 422 18 346 q 98 694 30 594 z "},"P":{"ha":753,"x_min":22,"x_max":731,"o":"m 144 745 q 148 596 136 743 q 167 448 160 449 q 376 450 274 435 q 549 513 479 465 q 614 633 620 562 q 454 745 609 707 q 144 745 300 783 m 66 19 q 38 418 61 22 q 22 819 15 815 q 453 853 217 905 q 652 767 575 827 q 731 625 730 707 q 663 459 732 528 q 475 355 593 391 q 374 345 444 346 q 242 346 305 343 q 172 347 179 349 q 168 269 163 330 q 183 114 174 208 q 191 0 193 20 q 169 -5 189 -5 q 119 1 149 -5 q 66 19 88 8 z "},"Q":{"ha":997,"x_min":22,"x_max":983,"o":"m 273 670 q 209 610 232 636 q 161 532 186 585 q 125 406 137 479 q 239 151 95 236 q 420 98 321 102 q 578 133 519 94 q 575 137 581 134 q 559 142 571 138 q 472 197 481 165 q 482 273 463 232 q 530 297 502 313 q 655 234 593 260 q 728 222 718 208 l 738 235 q 758 259 747 247 q 781 292 768 271 q 805 331 795 312 q 823 373 815 350 q 833 416 831 396 q 828 574 841 510 q 769 705 815 637 q 570 800 700 804 q 273 670 422 795 m 197 731 q 376 848 266 795 q 583 901 486 901 q 797 823 696 901 q 941 623 898 746 q 941 391 981 511 q 833 189 901 270 q 836 174 826 180 q 867 163 846 168 q 909 151 887 157 q 954 132 932 144 q 983 103 975 119 q 971 47 997 77 q 917 24 945 16 q 670 80 678 88 q 640 57 661 71 q 576 24 620 43 q 481 -1 532 4 q 358 0 430 -7 q 208 43 266 15 q 100 133 149 71 q 26 273 45 205 q 22 430 8 342 q 197 731 49 594 z "},"R":{"ha":838,"x_min":18,"x_max":819,"o":"m 153 750 q 142 690 142 749 q 146 574 141 632 q 153 517 151 517 q 237 530 184 522 q 321 541 290 537 q 395 553 351 545 q 466 566 439 560 q 525 581 492 572 q 576 600 557 590 q 612 621 595 609 q 637 647 629 632 q 644 678 644 662 q 497 764 643 743 q 153 750 351 784 m 19 811 q 355 871 232 865 q 602 845 479 878 q 730 761 688 825 q 761 644 773 697 q 681 525 739 549 q 508 478 614 496 q 330 450 401 460 q 255 433 258 441 q 309 410 252 427 q 453 362 366 393 q 591 300 540 331 q 713 211 669 251 q 819 90 758 171 q 792 39 840 62 q 704 31 742 14 q 689 42 694 35 q 427 255 582 172 q 317 299 382 278 q 210 325 251 320 q 161 323 170 330 q 159 53 159 307 q 117 4 159 23 q 65 7 76 -15 q 64 14 64 9 q 52 186 56 121 q 45 316 47 252 q 39 437 42 380 q 28 598 37 487 q 18 745 20 709 q 19 811 16 781 z "},"S":{"ha":738,"x_min":12,"x_max":713,"o":"m 589 836 q 602 812 601 836 q 595 767 602 789 q 578 745 587 745 q 511 749 562 745 q 429 753 460 753 q 351 747 397 754 q 264 722 304 739 q 143 632 191 688 q 138 538 95 576 q 229 485 174 507 q 329 453 285 463 q 446 431 373 444 q 551 411 519 418 q 684 335 639 392 q 713 231 730 278 q 607 105 688 156 q 415 33 526 54 q 210 5 304 12 q 22 0 115 -3 q 13 27 11 4 q 26 77 15 50 q 45 103 37 103 q 107 102 57 103 q 184 102 157 102 q 263 104 212 102 q 348 111 315 107 q 425 124 381 115 q 498 145 469 133 q 553 178 526 157 q 594 222 581 198 q 486 331 629 286 q 213 389 429 349 q 197 392 203 391 q 42 500 100 410 q 22 652 -16 591 q 244 804 88 760 q 589 836 400 849 z "},"T":{"ha":886,"x_min":5,"x_max":873,"o":"m 24 838 q 431 853 182 841 q 856 864 680 865 q 872 821 884 864 q 829 761 860 776 q 822 758 826 760 q 736 758 808 755 q 612 763 665 761 q 544 755 560 765 q 540 640 540 745 q 542 330 540 534 q 544 3 544 126 q 491 12 544 -24 q 437 64 456 37 q 427 90 427 76 q 432 123 427 104 q 437 153 437 141 q 435 396 437 251 q 433 638 434 541 q 433 747 433 735 q 410 757 433 755 q 345 754 387 758 q 255 745 302 750 q 144 735 208 741 q 31 728 81 730 q 11 755 19 728 q 5 810 3 783 q 24 838 8 838 z "},"U":{"ha":624,"x_min":16,"x_max":602,"o":"m 22 780 q 49 787 22 784 q 103 790 76 791 q 130 784 130 789 q 131 524 136 636 q 132 326 126 411 q 161 206 137 240 q 275 133 199 155 q 410 115 351 111 q 469 133 468 119 q 467 792 481 517 q 519 808 467 802 q 575 795 572 814 q 602 306 593 560 q 602 34 610 52 q 499 -1 591 7 q 289 16 407 -9 q 137 79 212 34 q 53 170 62 125 q 36 245 45 209 q 24 290 27 282 q 19 318 22 297 q 17 347 16 339 q 18 393 18 355 q 20 469 19 430 q 22 593 22 507 q 22 780 22 678 z "},"V":{"ha":849,"x_min":22,"x_max":822,"o":"m 22 784 q 54 819 9 810 q 148 804 109 830 q 164 787 159 798 q 245 616 198 716 q 324 452 293 517 q 387 323 355 387 q 437 228 418 259 q 464 197 457 197 q 563 389 486 197 q 731 845 640 582 q 763 859 741 861 q 806 837 785 856 q 822 800 827 818 q 740 535 781 663 q 650 279 699 407 q 557 75 602 152 q 483 0 513 -1 q 410 54 453 1 q 299 232 366 107 q 194 431 232 357 q 73 678 156 506 q 22 784 38 750 z "},"W":{"ha":1120,"x_min":22,"x_max":1092,"o":"m 22 792 q 43 815 15 811 q 107 800 84 822 q 114 792 111 796 q 239 468 178 670 q 316 225 300 266 q 350 258 321 210 q 378 311 358 273 q 499 488 460 463 q 519 495 510 495 q 593 426 538 496 q 697 290 648 355 q 755 233 746 225 q 803 351 770 247 q 888 599 836 454 q 994 838 940 743 q 1030 855 1004 854 q 1078 844 1057 856 q 1092 814 1099 831 q 817 11 1074 766 q 743 56 806 -20 q 612 227 681 133 q 525 320 543 320 q 488 271 513 320 q 437 164 463 222 q 379 58 412 106 q 320 11 346 9 q 293 22 305 11 q 267 64 281 34 q 239 131 252 94 q 204 236 227 168 q 159 376 182 304 q 99 562 137 448 q 22 792 61 677 z "},"X":{"ha":878,"x_min":22,"x_max":853,"o":"m 39 783 q 37 809 33 795 q 55 836 41 823 q 85 858 69 849 q 118 867 102 867 q 142 854 134 867 q 328 623 259 705 q 416 541 397 541 q 678 852 467 541 q 722 860 696 869 q 767 822 749 850 q 769 774 785 793 q 633 618 703 694 q 534 511 563 543 q 506 469 506 480 q 853 98 506 415 q 850 52 871 81 q 800 11 830 23 q 747 14 769 -1 q 596 172 681 80 q 472 303 511 263 q 422 345 433 343 q 370 304 406 346 q 258 171 334 263 q 111 3 183 79 q 68 0 94 -9 q 25 35 42 9 q 22 77 8 61 q 111 176 53 111 q 199 275 170 241 q 266 352 229 309 q 318 418 302 395 q 334 453 334 442 q 288 510 334 464 q 166 635 241 556 q 39 783 91 715 z "},"Y":{"ha":791,"x_min":26,"x_max":774,"o":"m 27 785 q 36 817 16 796 q 81 849 56 837 q 114 854 107 861 q 264 694 189 779 q 373 573 339 610 q 416 536 407 536 q 515 639 429 536 q 703 872 602 742 q 734 877 715 883 q 768 853 754 871 q 774 822 783 836 q 614 594 689 692 q 509 462 540 496 q 477 425 477 427 l 477 39 q 426 1 477 18 q 366 5 372 -15 q 366 8 366 7 q 366 178 369 84 q 357 333 362 273 q 350 403 353 393 q 295 496 334 450 q 175 623 256 541 q 27 785 94 705 z "},"Z":{"ha":796,"x_min":9,"x_max":779,"o":"m 31 850 q 286 851 136 849 q 533 850 437 853 q 755 838 629 848 q 779 819 774 837 q 777 778 783 800 q 758 739 770 755 q 532 471 674 627 q 297 214 391 315 q 203 103 203 114 q 280 93 203 94 q 513 97 357 92 q 728 103 669 102 q 753 77 747 103 q 750 26 760 52 q 722 0 741 0 l 31 0 q 17 33 9 7 q 45 85 24 58 q 278 361 133 198 q 517 630 423 525 q 612 745 612 735 q 534 753 612 753 q 329 753 456 754 q 42 758 202 751 q 15 781 24 758 q 9 827 5 804 q 31 850 14 850 z "},"[":{"ha":339,"x_min":20,"x_max":327,"o":"m 297 975 q 321 944 315 977 q 321 907 327 911 q 275 892 305 895 q 216 892 245 890 q 151 891 187 895 l 132 -26 q 195 -26 165 -27 q 252 -27 224 -26 q 292 -37 279 -28 q 326 -95 324 -56 q 313 -118 327 -118 q 180 -117 245 -117 q 68 -115 115 -118 q 20 -104 20 -113 q 37 355 30 95 q 49 765 45 614 q 58 935 53 916 q 79 960 62 951 q 124 973 96 970 q 177 977 152 977 q 239 976 202 977 q 297 975 277 975 z "},"\\":{"ha":762,"x_min":15,"x_max":741,"o":"m 16 826 q 35 864 -3 848 q 107 864 79 883 q 114 859 110 861 q 239 707 180 779 q 338 585 298 635 q 436 461 378 536 q 523 348 494 387 q 627 210 552 309 q 741 58 701 110 q 733 24 751 43 q 691 1 715 5 q 654 8 667 -4 q 450 272 562 125 q 241 544 339 419 q 16 826 144 669 z "},"]":{"ha":361,"x_min":15,"x_max":342,"o":"m 83 967 q 90 967 85 967 q 186 965 156 966 q 254 960 217 964 q 303 948 290 956 q 316 926 316 940 q 313 683 311 823 q 320 458 316 543 q 332 224 324 373 q 342 -46 339 75 q 309 -97 343 -76 q 239 -119 274 -118 q 33 -114 201 -121 q 15 -85 15 -113 q 33 -52 15 -58 q 101 -34 68 -38 q 177 -30 134 -30 q 250 -27 220 -30 l 218 886 q 172 891 198 890 q 122 897 145 892 q 69 913 99 901 q 58 945 52 921 q 83 967 65 968 z "},"^":{"ha":425,"x_min":34,"x_max":388,"o":"m 34 906 q 65 941 47 921 q 93 972 83 960 q 117 999 103 983 q 140 1023 132 1015 q 158 1043 148 1032 q 175 1059 168 1054 q 189 1070 182 1065 q 201 1078 197 1076 q 210 1080 206 1080 q 277 1031 229 1080 q 387 901 324 983 q 376 869 399 884 q 330 857 353 854 q 301 878 319 859 q 256 931 283 898 q 213 982 229 964 q 170 941 197 966 q 123 898 142 917 q 88 863 104 879 q 62 861 77 854 q 37 882 47 867 q 34 906 26 897 z "},"_":{"ha":996,"x_min":-3,"x_max":991,"o":"m 11 0 q 977 -3 791 0 q 990 -37 997 -3 q 963 -76 983 -72 q 960 -76 962 -76 q 446 -73 746 -73 q 27 -71 145 -72 q -3 -37 7 -71 q 11 0 -9 -1 z "},"`":{"ha":334,"x_min":20,"x_max":307,"o":"m 22 907 q 39 955 -1 922 q 110 978 81 989 q 117 975 114 977 q 133 960 122 970 q 228 883 199 909 q 307 802 256 857 q 293 758 326 780 q 231 750 258 732 q 228 753 229 751 q 178 792 201 774 q 143 820 156 810 q 90 858 130 830 q 22 907 50 886 z "},"a":{"ha":583,"x_min":19,"x_max":562,"o":"m 448 256 q 315 271 373 271 q 222 259 266 271 q 155 220 182 245 q 127 164 127 195 l 127 160 q 237 94 132 94 q 255 94 237 94 q 342 103 292 96 q 428 117 392 110 q 464 126 464 123 q 448 256 464 254 m 113 486 q 302 541 184 541 q 334 540 323 541 q 417 523 382 536 q 472 488 452 510 q 503 447 492 465 q 525 399 514 429 q 550 210 538 365 q 562 18 562 56 q 525 -1 562 -1 q 477 12 496 -1 q 477 24 476 12 q 472 49 477 49 q 399 20 456 37 q 264 -4 342 4 q 256 -5 262 -4 q 245 -5 250 -5 q 97 36 170 -5 q 19 149 24 77 l 19 160 q 50 250 19 209 q 117 312 81 292 q 186 340 153 332 q 270 349 224 349 q 382 341 316 349 q 452 334 448 334 l 457 334 l 458 335 q 426 422 446 396 q 366 461 406 448 q 305 469 339 469 q 122 420 213 469 q 113 418 117 418 q 95 446 95 418 q 113 486 95 472 z "},"b":{"ha":568,"x_min":27,"x_max":547,"o":"m 122 414 q 127 237 122 372 q 138 103 132 103 q 186 105 170 104 q 237 109 202 106 q 292 119 271 113 q 342 138 312 126 q 389 168 372 151 q 424 214 407 186 q 448 275 441 241 q 420 321 452 297 q 340 364 388 346 q 241 397 292 382 q 157 416 190 412 q 122 414 125 419 m 31 878 q 54 891 31 888 q 100 886 77 894 q 122 867 122 879 q 121 659 121 812 q 125 495 122 506 q 171 486 126 491 q 282 469 216 481 q 389 437 349 457 q 547 286 544 359 q 494 157 548 227 q 361 45 441 88 q 237 3 309 16 q 110 -6 164 -9 q 42 14 56 -3 q 28 410 28 31 q 31 878 27 789 z "},"c":{"ha":522,"x_min":19,"x_max":505,"o":"m 378 562 q 393 541 393 562 q 385 499 393 519 q 366 480 376 479 q 323 481 355 479 q 241 471 292 483 q 164 433 190 458 q 118 336 127 397 q 117 239 109 274 q 170 141 132 171 q 267 96 208 111 q 406 92 326 81 q 488 102 487 102 q 505 62 503 98 q 495 22 506 26 q 400 5 465 11 q 262 8 335 -1 q 163 35 201 18 q 90 90 125 52 q 19 270 19 165 q 34 399 19 349 q 98 488 49 449 q 220 552 159 538 q 378 562 282 566 z "},"d":{"ha":608,"x_min":23,"x_max":589,"o":"m 441 454 q 401 456 439 454 q 320 452 362 457 q 250 430 278 446 q 160 363 191 397 q 122 275 129 328 q 139 177 115 221 q 212 111 163 133 q 243 100 228 104 q 278 94 258 95 q 309 92 298 92 q 347 92 319 91 q 384 92 374 92 q 484 110 484 92 q 475 297 484 180 q 464 464 467 414 q 456 467 463 475 q 441 454 446 454 m 460 518 q 445 922 460 680 q 468 946 445 939 q 515 948 491 954 q 538 925 538 943 q 564 495 547 758 q 589 77 582 232 q 532 31 590 50 q 403 5 475 12 q 64 119 180 -16 q 24 222 28 160 q 45 345 19 283 q 125 446 69 401 q 225 506 182 491 q 311 521 258 517 q 399 523 365 525 q 441 519 433 521 q 454 514 448 519 q 460 518 460 515 z "},"e":{"ha":642,"x_min":22,"x_max":625,"o":"m 491 347 q 446 420 490 393 q 342 450 401 448 q 257 423 305 452 q 170 355 209 395 q 133 293 151 336 q 132 286 130 286 q 141 297 133 286 q 241 317 152 312 q 410 326 330 321 q 491 347 491 331 m 547 267 q 324 218 502 240 q 125 212 146 197 q 118 209 117 217 q 161 146 125 186 q 186 127 175 133 q 366 83 273 81 q 570 136 467 84 q 602 127 583 142 q 625 93 620 111 q 617 64 629 75 q 430 0 526 11 q 189 16 321 -12 q 83 65 137 27 q 22 159 28 103 q 39 312 11 245 q 136 442 66 378 q 442 514 270 567 q 524 460 486 502 q 567 372 562 418 q 574 313 575 343 q 547 267 572 283 z "},"f":{"ha":483,"x_min":27,"x_max":477,"o":"m 450 848 q 469 827 463 848 q 470 785 475 806 q 453 764 465 764 q 231 731 301 764 q 172 688 193 713 q 130 617 151 663 q 117 571 122 598 q 115 524 113 544 q 127 506 117 505 q 448 547 363 534 q 476 519 472 551 q 460 463 483 481 q 442 456 452 456 q 267 439 406 456 q 127 408 129 422 q 191 45 123 374 q 174 16 194 31 q 133 -2 153 0 q 103 11 113 -4 q 27 403 64 122 q 27 575 12 507 q 83 696 43 648 q 194 789 122 743 q 450 848 283 848 z "},"g":{"ha":632,"x_min":-31,"x_max":614,"o":"m 244 403 q 143 339 180 388 q 111 225 106 290 q 164 134 117 168 q 275 100 212 100 q 412 147 339 99 q 483 222 484 195 q 444 348 479 292 q 381 414 410 404 q 326 414 370 418 q 244 403 282 411 m 458 488 q 513 437 494 463 q 547 369 532 411 q 614 31 593 235 q 585 -94 620 -26 q 511 -178 551 -163 q 448 -195 487 -187 q 350 -210 410 -203 q 245 -220 290 -216 q 114 -231 199 -224 q -14 -241 28 -237 q -31 -202 -41 -244 q 12 -137 -19 -155 q 27 -133 20 -133 q 138 -129 58 -132 q 266 -123 218 -126 q 373 -111 313 -121 q 469 -83 433 -100 q 505 -28 496 -71 q 509 50 514 14 q 498 85 505 85 q 454 62 490 85 q 370 17 419 39 q 281 -5 321 -5 q 72 95 152 -4 q 22 316 -11 197 q 82 415 37 373 q 172 475 127 457 q 353 509 245 503 q 458 488 427 511 z "},"h":{"ha":644,"x_min":19,"x_max":625,"o":"m 19 814 q 47 835 18 830 q 80 833 76 840 q 92 821 84 829 q 104 810 100 814 q 113 799 107 806 q 122 787 119 792 q 128 775 125 783 q 132 760 132 768 q 133 745 133 753 q 133 625 132 690 q 138 512 134 559 q 148 467 142 465 q 212 476 168 472 q 323 477 255 480 q 439 456 391 473 q 532 401 496 435 q 591 311 567 368 q 625 159 620 243 q 623 22 629 75 q 598 1 623 5 q 549 2 574 -4 q 525 22 525 8 q 525 50 525 24 q 525 88 525 75 q 524 129 525 102 q 519 176 522 156 q 510 221 517 195 q 495 267 503 247 q 384 363 464 345 q 243 372 320 378 q 159 347 165 366 q 159 261 156 321 q 165 117 161 201 q 170 24 170 34 q 142 -5 170 4 q 88 -8 115 -15 q 61 19 61 -1 q 51 243 57 119 q 35 534 45 366 q 19 814 24 703 z "},"i":{"ha":157,"x_min":22,"x_max":136,"o":"m 42 789 q 106 772 61 807 q 136 711 142 742 q 83 670 127 673 q 34 705 47 669 q 42 789 14 764 m 45 544 q 67 565 45 560 q 111 561 90 570 q 133 536 133 552 q 127 37 127 81 q 106 4 127 16 q 66 -5 85 -8 q 38 16 56 -4 q 22 56 20 35 q 45 544 28 233 z "},"j":{"ha":155,"x_min":18,"x_max":141,"o":"m 71 688 q 56 696 71 688 q 39 734 42 704 q 68 787 37 764 q 119 792 99 811 q 140 735 137 776 q 127 686 144 694 q 71 688 99 673 m 34 491 q 77 528 35 517 q 126 518 118 540 q 127 511 127 515 q 121 136 127 415 q 122 -217 114 -142 q 81 -269 123 -247 q 27 -267 38 -289 q 24 -258 24 -263 q 18 -82 19 -178 q 20 86 18 14 q 26 286 22 159 q 34 491 31 412 z "},"k":{"ha":635,"x_min":22,"x_max":612,"o":"m 47 898 q 138 949 49 944 q 145 949 142 949 q 149 945 148 948 q 152 939 151 941 q 153 930 153 936 q 153 922 153 925 q 153 913 153 920 q 153 906 153 907 q 145 714 153 830 q 133 522 137 598 q 133 433 129 446 q 193 444 137 420 q 340 508 250 468 q 491 562 431 548 q 526 551 507 566 q 536 525 545 537 q 442 448 491 463 q 302 392 395 434 q 212 334 209 350 q 298 286 214 320 q 480 203 381 252 q 612 111 579 155 q 597 62 628 90 q 544 47 567 34 q 469 90 528 57 q 377 141 410 123 q 294 184 345 159 q 205 221 244 209 q 136 236 167 233 q 124 192 126 236 q 121 94 122 148 q 114 27 121 41 q 57 -12 100 -1 q 22 3 20 -22 q 37 487 30 199 q 47 898 43 774 z "},"l":{"ha":183,"x_min":19,"x_max":161,"o":"m 19 880 q 42 892 19 884 q 88 905 65 901 q 111 906 111 910 q 138 454 125 724 q 161 39 152 183 q 136 6 163 19 q 81 -3 109 -7 q 53 19 53 0 q 19 880 35 593 z "},"m":{"ha":968,"x_min":22,"x_max":948,"o":"m 22 34 q 29 226 23 62 q 45 464 35 389 q 122 503 47 484 q 345 503 243 530 q 385 483 363 498 q 420 453 407 468 q 447 424 434 438 q 461 408 460 410 q 471 418 467 403 q 475 446 472 425 q 488 495 480 491 q 531 511 509 506 q 578 517 553 517 q 620 517 602 518 q 663 511 637 517 q 699 503 689 506 q 733 493 709 500 q 758 486 757 486 q 914 328 865 454 q 938 243 930 288 q 947 171 945 199 q 947 89 948 142 q 947 8 947 35 q 921 -17 947 -11 q 869 -13 895 -23 q 842 16 842 -3 q 844 104 841 47 q 844 203 848 161 q 827 292 841 245 q 792 355 815 331 q 728 400 769 380 q 633 431 681 423 q 564 422 586 438 q 559 347 560 418 q 560 192 559 277 q 559 31 562 107 q 534 6 559 14 q 484 5 509 -1 q 458 31 458 12 q 460 113 457 57 q 458 208 463 170 q 439 289 454 245 q 397 358 425 331 q 326 414 370 385 q 216 437 278 439 q 141 416 153 435 q 134 332 136 407 q 134 176 133 258 q 133 27 136 95 q 104 0 133 7 q 48 3 76 -7 q 22 34 20 14 z "},"n":{"ha":632,"x_min":19,"x_max":612,"o":"m 19 37 q 22 283 20 83 q 24 519 23 484 q 142 555 26 547 q 342 547 259 564 q 479 494 426 529 q 570 389 533 458 q 612 24 597 336 q 586 -1 612 7 q 533 -4 560 -9 q 506 19 506 1 q 505 79 506 26 q 502 168 503 133 q 492 256 500 202 q 472 353 484 311 q 339 458 449 431 q 217 469 294 469 q 136 456 140 469 q 132 352 133 449 q 130 142 130 255 q 127 5 129 30 q 100 -9 127 -8 q 45 3 72 -9 q 19 37 19 16 z "},"o":{"ha":700,"x_min":14,"x_max":685,"o":"m 133 297 q 170 144 113 189 q 425 85 283 53 q 581 241 570 121 q 495 420 591 350 q 368 466 441 460 q 224 438 294 472 q 163 382 183 416 q 133 297 142 349 m 42 400 q 351 559 129 559 q 637 400 543 559 q 684 207 696 305 q 594 56 673 109 q 319 -5 484 -16 q 85 83 155 5 q 22 202 38 137 q 14 315 5 267 q 42 400 22 362 z "},"p":{"ha":629,"x_min":19,"x_max":605,"o":"m 133 403 q 118 279 119 395 q 127 159 117 164 q 380 96 248 99 q 510 159 505 95 q 509 175 510 165 q 458 283 498 236 q 370 354 419 331 q 268 393 320 377 q 180 408 216 410 q 133 403 145 406 m 27 488 q 80 513 27 505 q 208 513 133 521 q 334 483 282 505 q 494 380 426 444 q 594 244 562 317 q 605 133 617 190 q 559 56 593 76 q 486 21 522 33 q 429 7 449 9 q 350 0 408 4 q 252 7 313 -3 q 163 24 191 18 q 122 22 136 31 q 130 -244 122 20 q 102 -277 130 -264 q 47 -283 75 -289 q 19 -258 19 -278 q 22 -5 19 -183 q 26 319 24 174 q 27 488 28 464 z "},"q":{"ha":642,"x_min":19,"x_max":655,"o":"m 416 378 q 214 318 308 377 q 125 212 121 259 q 181 121 130 157 q 290 83 232 84 q 392 106 347 81 q 410 181 400 111 q 422 310 420 251 q 416 378 425 369 m 530 450 q 519 306 528 411 q 506 119 511 201 q 500 0 500 38 q 500 -20 500 -7 q 514 -149 502 -127 q 582 -189 526 -171 q 602 -194 589 -190 q 655 -212 635 -205 q 647 -250 682 -221 q 572 -278 606 -282 q 408 -180 438 -260 q 400 -149 403 -167 q 397 -113 397 -130 q 398 -79 397 -96 q 400 -48 399 -62 q 401 -22 401 -34 q 399 -5 401 -11 q 392 0 396 0 q 114 37 206 -20 q 19 164 22 94 q 68 313 15 254 q 222 430 122 373 q 347 466 271 457 q 477 469 423 475 q 530 450 532 463 z "},"r":{"ha":536,"x_min":19,"x_max":519,"o":"m 19 16 q 22 445 33 278 q 58 506 20 465 q 109 547 95 547 q 310 519 218 551 q 519 416 401 488 q 508 380 529 411 q 475 345 487 349 q 427 340 445 335 q 372 369 408 345 q 243 432 323 400 q 151 439 164 464 q 143 373 144 427 q 145 258 142 319 q 144 141 148 198 q 98 14 138 54 q 68 -2 87 3 q 34 -2 49 -7 q 19 16 19 3 z "},"s":{"ha":533,"x_min":18,"x_max":511,"o":"m 495 538 q 486 496 519 526 q 442 472 464 476 q 412 479 438 471 q 353 493 385 488 q 267 488 320 498 q 163 410 212 475 q 127 326 115 346 q 198 298 145 297 q 304 309 251 300 q 416 297 358 319 q 511 167 511 258 q 479 96 511 132 q 400 45 446 61 q 262 2 304 9 q 111 -5 221 -5 q 91 -1 106 -5 q 60 8 76 3 q 32 20 43 14 q 22 31 20 27 q 53 66 26 42 q 90 90 80 91 q 286 111 175 81 q 389 178 396 140 q 339 220 382 214 q 243 217 296 227 q 130 216 190 208 q 39 262 71 224 q 18 330 20 286 q 34 403 16 374 q 159 526 85 477 q 297 581 232 574 q 392 572 335 583 q 495 538 449 560 z "},"t":{"ha":435,"x_min":22,"x_max":425,"o":"m 22 800 q 45 810 22 804 q 88 815 68 815 q 111 808 109 815 q 117 606 111 716 q 127 486 122 495 q 188 478 132 480 q 294 477 244 476 q 361 477 343 479 q 381 457 374 476 q 387 420 388 438 q 381 400 387 401 q 298 397 353 395 q 190 399 244 399 q 136 392 136 399 q 167 172 136 273 q 231 95 186 111 q 338 81 286 80 q 406 90 389 83 q 423 72 419 95 q 408 24 427 37 q 214 -3 319 -18 q 77 100 130 11 q 34 292 43 156 q 22 800 18 488 z "},"u":{"ha":571,"x_min":22,"x_max":551,"o":"m 22 522 q 46 534 22 530 q 95 534 71 537 q 119 525 119 530 q 117 471 119 513 q 113 407 114 429 q 112 346 113 385 q 115 283 111 307 q 123 231 118 259 q 138 183 127 202 q 161 153 148 164 q 299 98 216 111 q 437 103 382 84 q 453 130 452 107 q 450 266 454 152 q 442 519 445 407 q 467 541 442 532 q 513 550 491 551 q 538 541 534 549 q 542 324 538 450 q 549 116 545 198 q 551 24 552 34 q 490 3 549 11 q 347 -1 431 -5 q 203 24 263 4 q 31 199 58 75 q 22 522 22 244 z "},"v":{"ha":722,"x_min":16,"x_max":705,"o":"m 16 480 q 49 530 3 507 q 111 528 95 553 q 207 360 144 473 q 309 184 270 247 q 358 122 347 121 q 406 196 368 123 q 507 389 445 269 q 612 581 570 509 q 648 593 624 594 q 692 578 671 591 q 705 551 713 564 q 446 81 510 178 q 363 -8 388 -7 q 273 68 336 -9 q 138 261 209 146 q 16 480 66 376 z "},"w":{"ha":1122,"x_min":19,"x_max":1103,"o":"m 19 458 q 50 503 9 484 q 103 498 90 521 q 176 356 127 453 q 256 201 225 259 q 294 144 288 144 q 340 233 305 142 q 419 417 376 324 q 491 514 463 510 q 579 417 511 517 q 709 217 647 317 q 780 117 772 117 q 833 186 798 117 q 926 374 869 255 q 1031 567 982 492 q 1063 573 1043 579 q 1097 547 1082 567 q 1103 514 1112 528 q 975 280 1044 420 q 863 64 906 140 q 792 -16 821 -11 q 741 18 776 -19 q 667 109 707 54 q 591 216 628 163 q 526 307 553 270 q 491 342 498 345 q 450 256 483 339 q 374 88 416 172 q 302 0 331 4 q 174 144 262 -5 q 19 458 85 294 z "},"x":{"ha":722,"x_min":22,"x_max":700,"o":"m 22 509 q 38 556 -3 526 q 110 576 80 587 q 114 575 113 576 q 246 488 187 534 q 333 418 305 442 q 372 392 361 393 q 433 439 388 389 q 540 556 477 488 q 647 652 602 624 q 675 627 677 671 q 637 506 673 567 q 623 486 629 494 q 564 428 604 464 q 500 368 525 392 q 477 336 476 345 q 515 287 479 328 q 614 181 552 245 q 700 90 675 117 q 686 28 724 64 q 625 14 648 -7 q 547 92 608 30 q 439 201 487 155 q 378 247 391 248 q 332 201 369 245 q 240 94 296 156 q 136 0 184 33 q 98 15 118 -12 q 92 58 79 42 q 186 163 127 100 q 276 263 244 227 q 308 311 308 300 q 266 347 308 319 q 149 422 224 374 q 22 509 73 471 z "},"y":{"ha":735,"x_min":19,"x_max":718,"o":"m 19 517 q 43 553 3 537 q 118 555 91 574 q 122 551 121 553 q 241 407 171 498 q 356 255 311 316 q 406 194 401 194 q 445 243 412 194 q 540 395 477 293 q 639 553 602 496 q 686 543 652 574 q 716 476 726 506 q 713 469 716 472 q 604 299 680 418 q 499 136 528 180 q 413 9 471 92 q 304 -144 355 -75 q 186 -294 252 -213 q 159 -279 172 -311 q 153 -231 145 -250 q 225 -94 176 -172 q 308 35 274 -16 q 339 95 342 87 q 19 517 323 141 z "},"z":{"ha":727,"x_min":11,"x_max":715,"o":"m 42 553 q 525 570 259 556 q 550 539 547 571 q 538 488 553 507 q 401 326 488 418 q 255 176 315 233 q 197 117 195 118 q 378 135 202 107 q 697 194 553 163 q 715 178 715 198 q 681 109 713 141 q 655 92 667 95 q 465 55 555 71 q 256 20 376 39 q 56 -14 136 0 q 23 16 31 -18 q 31 72 15 50 q 180 241 87 146 q 341 397 274 335 q 411 467 408 458 q 408 471 412 469 q 391 475 403 473 q 363 476 378 476 q 326 476 349 476 q 279 475 302 476 q 225 473 256 475 q 165 471 194 472 q 100 469 137 469 q 31 467 64 468 q 11 488 15 467 q 16 532 7 510 q 42 553 26 553 z "},"{":{"ha":524,"x_min":7,"x_max":511,"o":"m 491 989 q 511 970 505 989 q 511 932 517 952 q 490 909 505 913 q 444 902 476 906 q 397 894 411 898 q 363 878 384 890 q 331 848 343 867 q 294 767 304 810 q 283 688 285 724 q 277 612 282 651 q 245 528 271 574 q 168 438 220 483 q 249 342 220 404 q 283 223 278 279 q 294 100 289 167 q 304 12 298 34 q 319 -18 308 -7 q 346 -31 330 -28 q 376 -32 362 -33 q 412 -28 391 -31 q 445 -26 433 -26 q 483 -49 464 -26 q 503 -93 502 -72 q 488 -123 505 -114 q 363 -137 420 -145 q 244 -85 307 -129 q 209 -8 218 -68 q 188 132 199 52 q 152 262 176 212 q 104 327 132 301 q 56 361 76 353 q 21 382 35 369 q 7 416 7 395 q 26 455 8 437 q 70 492 45 473 q 121 538 95 511 q 167 616 146 566 q 193 736 187 667 q 194 781 194 755 q 197 815 194 807 q 199 833 199 823 q 208 853 199 842 q 222 871 217 864 q 247 902 227 878 q 345 969 290 954 q 491 989 399 985 z "},"|":{"ha":157,"x_min":23,"x_max":136,"o":"m 49 978 q 87 990 49 1001 q 134 954 126 979 q 136 945 136 949 q 127 670 129 804 q 127 450 126 536 q 130 208 127 363 q 133 -50 132 52 q 87 -106 133 -81 q 30 -110 42 -130 q 27 -99 27 -106 q 23 273 20 165 q 35 605 26 380 q 49 978 45 830 z "},"}":{"ha":524,"x_min":9,"x_max":502,"o":"m 22 1005 q 151 996 96 1012 q 250 932 206 981 q 289 869 275 901 q 306 814 302 838 q 315 741 309 791 q 328 650 320 690 q 359 561 338 598 q 404 504 380 524 q 450 470 427 484 q 487 441 472 456 q 502 411 502 427 q 487 376 502 391 q 452 346 472 361 q 412 307 431 331 q 380 234 392 283 q 372 113 368 184 q 360 -9 374 38 q 298 -91 346 -56 q 179 -142 243 -134 q 46 -134 115 -151 q 31 -95 23 -130 q 60 -50 39 -60 q 109 -41 77 -42 q 168 -38 141 -39 q 220 -28 194 -37 q 260 7 245 -20 q 274 83 274 35 q 273 164 273 133 q 274 228 273 195 q 277 277 275 260 q 285 314 278 293 q 296 345 292 335 q 314 370 301 354 q 337 395 327 385 q 369 425 347 406 q 296 479 320 458 q 251 532 273 500 q 222 603 229 564 q 217 701 216 642 q 54 913 220 907 q 10 954 27 913 q 15 1004 -7 994 q 22 1005 18 1004 z "},"~":{"ha":713,"x_min":23,"x_max":689,"o":"m 24 408 q 41 465 33 441 q 65 513 50 488 q 102 550 80 537 q 152 563 123 563 q 255 542 205 563 q 339 494 305 521 q 424 442 373 468 q 526 408 475 416 q 551 416 541 406 q 565 442 560 427 q 580 473 570 457 q 605 492 590 488 q 666 490 633 500 q 689 457 699 480 q 624 355 661 392 q 532 319 587 317 q 429 341 479 319 q 347 390 380 363 q 264 439 313 416 q 163 465 214 463 q 135 448 144 465 q 125 410 126 431 q 117 366 125 388 q 92 338 109 345 q 48 358 79 332 q 24 408 18 384 z "},"":{"ha":159,"x_min":23,"x_max":138,"o":"m 35 594 q 58 621 35 612 q 104 625 81 629 q 127 602 127 620 q 127 465 127 559 q 126 334 126 372 q 127 223 126 297 q 129 102 127 149 q 132 -13 130 54 q 138 -149 134 -80 q 95 -202 140 -179 q 42 -202 52 -224 q 41 -195 41 -199 q 28 195 30 41 q 35 594 27 350 m 24 917 q 71 943 33 944 q 125 914 110 941 q 134 836 144 882 q 90 792 123 791 q 31 834 50 793 q 24 917 12 875 z "},"":{"ha":445,"x_min":23,"x_max":422,"o":"m 136 351 q 123 339 129 365 q 125 281 117 304 q 142 250 130 262 q 168 251 155 237 q 156 296 171 254 q 136 351 141 338 m 176 560 q 334 579 279 594 q 353 535 349 574 q 336 495 358 496 q 246 484 270 492 q 209 444 222 475 l 285 227 q 317 239 297 231 q 353 252 338 247 q 382 262 368 258 q 420 231 406 267 q 415 183 435 195 q 373 159 388 165 q 344 147 358 152 q 317 137 330 142 q 353 37 353 37 q 341 12 357 22 q 305 2 326 1 q 277 15 285 3 q 258 44 266 28 q 241 81 251 60 q 225 115 232 102 q 92 142 141 110 q 24 262 43 175 q 36 380 12 316 q 98 492 60 445 q 82 522 91 505 q 66 554 73 540 q 54 587 60 568 q 73 625 46 610 q 127 633 100 639 q 141 625 134 631 q 153 610 148 618 q 161 593 157 602 q 167 576 164 583 q 172 564 170 568 q 176 560 174 559 z "},"":{"ha":677,"x_min":14,"x_max":658,"o":"m 556 736 q 564 711 564 727 q 548 659 564 685 q 515 632 532 632 q 502 639 507 632 q 484 661 502 639 q 452 694 465 682 q 418 726 439 707 q 373 755 396 745 q 326 769 350 766 q 307 770 316 770 q 237 751 267 770 q 195 696 206 732 q 189 655 189 675 q 195 601 189 629 q 214 534 202 572 q 231 475 225 496 q 296 475 269 476 q 354 475 323 475 q 412 479 385 476 q 415 479 414 479 q 446 457 434 479 q 457 410 457 435 q 429 362 457 365 q 377 359 407 359 q 304 357 347 358 q 236 355 262 357 q 228 225 236 282 q 216 167 224 199 q 202 115 208 134 l 195 95 q 308 97 241 96 q 427 100 374 98 q 532 107 479 102 q 547 115 541 109 q 555 127 553 121 q 561 147 557 133 q 567 170 564 161 q 587 190 571 182 q 623 198 604 198 q 656 176 656 198 q 656 175 656 175 q 613 0 650 0 l 62 0 q 47 12 47 0 q 55 37 47 22 q 74 73 62 53 q 90 102 85 92 q 127 335 127 184 q 127 359 127 349 q 118 359 121 359 q 115 359 115 359 q 113 359 115 359 q 46 357 103 359 q 45 357 45 357 q 22 372 30 357 q 14 410 14 388 q 23 452 14 434 q 49 471 33 471 l 127 471 q 100 559 122 500 q 77 651 77 618 q 87 704 77 678 q 279 872 146 863 q 301 873 290 873 q 433 840 376 873 q 556 736 490 806 z "},"":{"ha":754,"x_min":22,"x_max":727,"o":"m 305 518 q 254 469 270 505 q 256 401 239 434 q 322 338 281 358 q 408 334 363 317 q 473 397 453 351 q 471 483 492 442 q 399 531 448 524 q 305 518 350 538 m 159 562 q 129 599 142 579 q 98 638 115 618 q 45 692 80 658 q 63 752 20 715 q 141 781 106 789 q 159 770 152 780 q 197 713 182 738 q 229 662 213 689 q 259 613 245 635 q 312 631 289 628 q 362 629 335 633 q 495 602 452 625 q 538 651 514 624 q 585 702 563 678 q 636 757 606 726 q 682 753 651 773 q 726 704 713 734 q 720 651 739 674 q 568 524 715 648 q 595 466 587 491 q 601 407 602 441 q 552 296 597 351 q 575 264 563 281 q 601 231 587 248 q 639 184 614 214 q 633 139 654 165 q 583 104 613 113 q 533 114 553 96 q 503 152 515 134 q 477 191 491 170 q 452 228 463 213 q 351 214 397 209 q 279 227 305 220 q 227 255 254 235 q 205 238 213 244 q 193 229 197 232 q 169 209 189 227 q 113 157 149 191 q 77 151 98 145 q 43 172 57 156 q 22 208 28 189 q 31 241 16 228 q 153 361 31 241 q 119 408 129 388 q 110 458 109 429 q 159 562 111 514 z "},"":{"ha":791,"x_min":26,"x_max":774,"o":"m 358 365 q 350 403 351 399 q 295 496 334 450 q 175 623 256 541 q 27 785 94 705 q 36 817 16 796 q 81 849 56 837 q 114 854 107 861 q 264 694 189 779 q 373 573 339 610 q 416 536 407 536 q 515 639 429 536 q 703 872 602 742 q 734 877 715 883 q 768 853 754 871 q 774 822 783 836 q 614 594 689 692 q 509 462 540 496 q 477 425 477 427 l 475 365 q 545 363 502 365 q 607 361 587 361 q 673 362 627 361 q 697 337 692 363 q 692 283 703 311 q 662 256 681 256 l 475 256 q 477 39 477 92 q 426 1 477 18 q 366 5 372 -15 q 366 8 366 7 q 358 256 369 81 q 296 261 330 258 q 230 266 262 264 q 152 267 198 267 q 127 292 133 267 q 128 342 121 317 q 155 365 136 366 q 257 362 206 362 q 332 363 308 362 l 358 365 z "},"":{"ha":168,"x_min":20,"x_max":146,"o":"m 27 248 q 58 277 27 270 q 117 273 88 283 q 146 240 146 262 q 144 130 144 195 q 141 20 144 65 q 130 -77 138 -24 q 100 -113 126 -99 q 47 -123 73 -126 q 22 -99 22 -121 q 27 248 18 81 m 30 932 q 72 974 28 958 q 133 972 119 991 q 136 964 134 968 q 146 604 146 823 q 120 575 146 585 q 68 572 94 566 q 43 598 42 579 q 45 720 46 688 q 37 817 43 751 q 30 932 31 882 z "},"":{"ha":651,"x_min":23,"x_max":621,"o":"m 179 572 q 190 457 81 525 q 304 396 197 453 q 326 385 316 391 q 378 359 338 378 q 451 325 418 340 q 486 309 484 309 q 489 310 487 309 q 496 313 491 311 q 503 319 500 316 q 502 326 505 321 q 491 336 499 331 q 279 450 382 403 q 237 477 256 461 q 209 510 218 494 q 193 541 199 526 q 183 564 186 556 q 179 572 180 572 m 597 838 q 608 807 612 829 q 586 766 605 785 q 551 751 567 746 q 394 768 457 784 q 317 694 331 753 q 345 689 316 690 q 405 686 374 688 q 437 678 435 684 q 418 624 441 656 q 377 594 396 591 q 311 597 350 598 q 269 591 273 595 q 275 578 266 590 q 301 553 285 567 q 331 529 317 538 q 459 458 366 505 q 594 372 552 412 q 621 255 648 317 q 590 220 612 235 q 551 200 568 206 q 534 193 534 194 q 515 151 534 186 q 459 75 496 117 q 385 19 422 33 q 284 -1 334 1 q 194 7 235 -3 q 95 38 153 16 q 78 65 80 43 q 86 105 76 87 q 111 119 96 123 q 233 100 178 102 q 321 110 289 99 q 376 134 354 121 q 406 157 397 146 q 410 168 414 168 q 392 167 406 168 q 375 165 378 165 q 359 163 372 164 q 343 163 347 163 q 329 163 339 163 q 313 163 319 163 q 297 163 307 163 q 280 165 288 164 q 263 168 273 165 q 244 171 254 170 q 243 217 217 176 q 296 255 270 255 q 385 258 396 251 q 290 297 368 269 q 160 355 212 326 q 54 435 90 396 q 24 532 18 473 q 54 590 27 562 q 110 635 80 618 q 165 666 140 652 q 193 684 191 680 q 239 763 201 713 q 326 830 278 812 q 460 861 401 859 q 597 838 519 864 z "},"":{"ha":332,"x_min":20,"x_max":312,"o":"m 205 1032 q 260 1055 224 1058 q 311 1024 296 1051 q 303 974 324 1001 q 254 948 282 947 q 207 981 225 951 q 205 1032 189 1010 m 37 966 q 24 979 37 966 q 20 1019 11 991 q 66 1053 30 1047 q 123 1035 102 1058 q 132 983 142 1016 q 94 945 121 951 q 37 966 64 941 z "},"":{"ha":252,"x_min":16,"x_max":236,"o":"m 176 727 q 141 732 151 732 q 103 727 121 732 q 80 715 85 720 q 75 694 75 709 l 75 693 q 75 686 75 689 q 78 680 76 682 q 82 677 80 678 q 87 674 84 675 q 93 672 91 673 q 100 671 95 671 q 106 671 104 671 q 114 671 109 671 q 121 671 119 671 l 127 671 q 155 677 142 673 q 173 687 167 682 q 179 694 179 692 q 180 704 179 694 q 180 720 180 713 q 176 727 179 726 m 56 846 q 132 872 84 872 q 144 872 140 872 q 196 852 180 868 q 221 806 212 836 q 231 716 227 789 q 236 625 236 643 q 221 616 236 616 q 184 618 186 616 q 183 624 183 618 q 182 635 183 635 q 117 614 165 621 q 113 614 115 614 q 109 614 110 614 q 49 634 79 614 q 18 688 19 654 l 18 693 q 40 749 18 726 q 84 777 62 772 q 118 781 100 781 q 153 779 137 781 q 170 777 168 777 l 172 777 q 172 783 172 779 q 171 789 171 788 q 170 793 171 789 q 168 797 168 796 q 165 800 167 798 q 162 803 164 802 q 157 806 160 804 q 151 808 155 807 q 119 814 138 814 q 60 788 99 812 q 57 787 58 787 q 51 803 54 787 q 47 827 47 819 q 56 846 47 840 z "},"":{"ha":716,"x_min":26,"x_max":694,"o":"m 627 663 q 680 647 646 677 q 694 604 712 617 q 597 541 639 568 q 507 483 555 514 q 423 427 460 452 q 670 297 670 297 q 685 244 690 286 q 662 212 681 210 q 659 213 661 213 q 416 328 551 254 q 282 416 282 401 q 332 469 282 433 q 481 570 381 506 q 627 663 582 633 m 391 682 q 420 661 408 694 q 415 604 434 618 q 318 540 359 568 q 231 477 277 511 q 149 419 184 444 q 388 294 388 294 q 403 267 400 288 q 397 230 406 247 q 377 218 389 213 q 222 286 308 241 q 82 369 137 331 q 27 416 27 407 q 79 472 27 433 q 244 585 132 511 q 391 682 357 659 z "},"":{"ha":735,"x_min":8,"x_max":724,"o":"m 35 604 q 230 607 119 605 q 417 611 340 609 q 566 614 494 613 q 677 615 637 616 q 722 612 716 614 q 724 554 724 590 q 721 427 723 518 q 719 289 719 336 q 694 266 719 271 q 644 265 669 260 q 621 278 620 270 q 621 397 624 289 q 618 517 618 506 q 41 498 41 498 q 11 523 20 496 q 8 576 1 549 q 35 604 15 602 z "},"":{"ha":735,"x_min":8,"x_max":731,"o":"m 722 612 q 730 585 726 609 q 730 539 734 562 q 711 517 726 517 q 688 517 700 517 q 661 517 677 517 q 618 517 646 517 q 41 498 41 498 q 11 523 20 496 q 8 576 1 549 q 35 604 15 602 q 230 607 119 605 q 417 611 340 609 q 566 614 494 613 q 677 615 637 616 q 722 612 716 614 z "},"":{"ha":597,"x_min":16,"x_max":579,"o":"m 187 453 q 95 321 113 408 q 127 163 77 233 q 210 98 159 117 q 315 86 260 79 q 420 123 370 94 q 498 235 483 161 q 472 369 514 309 q 341 469 419 444 q 187 453 263 494 m 87 473 q 278 551 156 548 q 491 479 400 555 q 569 360 547 433 q 578 217 591 288 q 526 100 566 146 q 400 20 476 43 q 251 7 324 -3 q 122 52 178 16 q 32 167 61 90 q 17 329 3 244 q 87 473 31 414 m 231 378 q 229 365 229 376 q 231 342 229 354 q 233 330 232 330 q 335 369 336 349 q 326 379 335 374 q 294 387 317 384 q 231 378 271 389 m 171 418 q 275 441 236 438 q 351 431 313 444 q 391 399 378 423 q 400 357 404 376 q 376 312 395 323 q 335 297 361 304 q 292 288 309 290 q 274 285 274 285 q 288 276 274 282 q 323 259 302 270 q 355 239 345 248 q 376 218 368 228 q 389 200 384 208 q 403 177 393 193 q 419 152 412 161 q 408 136 423 144 q 375 126 392 127 q 350 132 358 125 q 288 206 316 182 q 247 228 263 228 q 244 227 244 228 q 244 210 243 224 q 247 173 245 195 q 248 133 248 151 q 233 119 248 125 q 201 115 217 114 q 184 123 184 117 q 176 279 183 134 q 174 340 176 298 q 170 394 171 381 q 171 418 170 407 z "},"":{"ha":469,"x_min":11,"x_max":457,"o":"m 38 872 q 430 873 283 872 q 456 854 448 873 q 456 814 464 834 q 430 792 448 793 q 37 789 184 788 q 12 810 19 789 q 12 852 4 831 q 38 872 19 872 z "},"":{"ha":271,"x_min":11,"x_max":258,"o":"m 114 803 q 92 769 95 793 q 106 732 88 745 q 146 734 123 722 q 171 768 168 746 q 153 800 174 788 q 114 803 132 812 m 71 861 q 155 869 111 873 q 230 836 198 864 q 258 769 262 807 q 216 699 252 727 q 135 667 179 670 q 49 682 91 665 q 11 735 18 697 q 21 810 4 773 q 71 861 38 848 z "},"":{"ha":624,"x_min":8,"x_max":609,"o":"m 49 161 q 227 159 115 161 q 409 159 338 157 q 578 167 480 160 q 600 144 593 168 q 601 96 606 121 q 581 72 595 72 q 318 70 529 68 q 54 72 107 72 q 33 94 39 72 q 31 139 26 117 q 49 161 35 161 m 252 780 q 278 806 252 799 q 330 806 304 814 q 355 780 355 799 q 357 720 355 749 q 363 654 359 692 q 369 593 366 617 q 439 595 399 593 q 514 598 480 597 q 589 601 548 600 q 608 582 602 601 q 608 543 614 563 q 589 522 602 524 q 510 513 544 515 q 438 511 476 511 q 372 509 400 510 q 368 441 370 483 q 366 380 366 399 q 369 321 366 362 q 347 297 370 304 q 300 298 324 290 q 274 324 275 307 q 269 382 271 353 q 262 451 266 412 q 258 517 259 490 q 186 514 227 515 q 111 511 146 513 q 33 509 76 510 q 9 529 16 507 q 9 572 3 551 q 33 595 16 594 q 142 596 38 597 q 255 595 245 595 q 252 690 255 602 q 252 780 250 779 z "},"":{"ha":255,"x_min":7,"x_max":252,"o":"m 24 836 q 130 872 79 879 q 198 842 172 865 q 228 796 224 818 q 217 744 232 761 q 180 723 202 727 q 127 705 157 719 q 79 665 96 690 q 87 665 77 663 q 116 669 98 666 q 155 673 134 671 q 199 673 176 674 q 239 665 222 671 q 252 648 250 662 q 250 623 254 635 q 240 609 247 610 q 176 608 214 609 q 122 607 137 608 q 78 604 107 606 q 9 598 49 602 q 8 622 5 602 q 24 673 11 642 q 52 723 37 705 q 87 745 64 736 q 130 757 110 753 q 152 762 151 761 q 162 781 161 769 q 156 803 163 793 q 111 818 142 822 q 71 810 85 815 q 38 787 57 804 q 33 798 38 787 q 24 820 27 810 q 24 836 22 830 z "},"":{"ha":189,"x_min":0,"x_max":178,"o":"m 15 868 q 85 866 50 865 q 148 866 121 867 q 178 861 175 865 q 159 836 180 859 q 118 793 138 814 q 100 772 98 772 q 103 772 100 772 q 109 772 106 772 q 118 772 113 772 q 128 770 123 772 q 138 767 133 769 q 149 762 144 765 q 157 753 153 758 q 164 741 161 747 q 168 725 167 735 q 170 704 170 715 q 106 617 165 639 q 60 618 91 613 q 7 640 28 624 q 0 659 0 647 q 5 680 0 670 q 14 688 9 689 q 77 675 47 673 q 109 692 102 675 q 109 709 113 699 q 98 724 106 720 q 68 733 87 731 q 36 736 49 735 q 20 742 23 738 q 20 754 18 747 q 32 771 23 761 q 49 789 41 781 q 73 812 57 796 q 80 819 79 817 l 8 819 q 4 831 4 819 q 7 856 4 844 q 15 868 11 868 z "},"":{"ha":431,"x_min":23,"x_max":411,"o":"m 24 948 q 101 989 64 968 q 155 1019 138 1009 q 200 1042 171 1028 q 271 1076 229 1057 q 373 1067 294 1085 q 410 1051 414 1058 q 407 1048 410 1050 q 122 913 232 968 q 39 918 91 897 q 24 948 4 935 z "},"":{"ha":581,"x_min":23,"x_max":559,"o":"m 24 471 q 49 491 23 487 q 102 484 75 495 q 130 454 129 473 q 136 361 133 418 q 150 219 144 243 q 180 172 156 195 q 187 167 184 168 q 254 130 209 145 q 338 109 298 114 q 413 100 378 103 q 450 104 448 98 q 452 184 456 110 q 446 328 449 259 q 448 427 442 396 q 505 464 453 446 q 559 457 560 484 q 551 277 553 382 q 547 108 548 171 q 543 42 545 45 q 401 4 490 -3 q 239 31 312 11 q 152 64 165 52 q 140 -25 142 71 q 144 -240 138 -121 q 115 -271 144 -262 q 58 -273 87 -281 q 30 -243 30 -264 q 31 -5 30 -151 q 31 234 33 140 q 24 471 30 328 z "},"":{"ha":785,"x_min":22,"x_max":762,"o":"m 510 749 q 252 747 359 785 q 138 632 144 709 q 229 478 132 524 q 488 452 326 433 q 506 600 494 453 q 510 749 518 747 m 274 854 q 439 865 321 864 q 654 859 556 865 q 753 844 753 852 q 753 825 753 844 q 755 774 754 806 q 758 699 757 742 q 760 603 758 655 q 762 494 761 551 q 762 376 762 438 q 761 257 762 315 q 758 140 760 199 q 751 33 755 81 q 722 4 750 12 q 667 4 694 -4 q 640 33 640 12 q 650 269 647 159 q 654 513 652 378 q 656 746 655 648 l 608 746 q 602 442 606 646 q 595 125 598 239 q 589 11 591 12 q 544 -5 568 0 q 504 -8 519 -9 q 488 0 488 -7 q 491 110 488 16 q 493 277 494 203 q 483 351 492 350 q 437 349 475 353 q 355 345 400 345 q 279 354 311 345 q 90 458 160 389 q 22 624 20 526 q 91 768 24 707 q 274 854 157 829 z "},"":{"ha":212,"x_min":43,"x_max":175,"o":"m 45 620 q 110 651 65 651 q 175 620 155 651 q 169 553 193 590 q 109 517 145 517 q 50 553 73 517 q 45 620 26 590 z "},"":{"ha":522,"x_min":206,"x_max":509,"o":"m 488 -85 q 416 -136 450 -119 q 331 -159 381 -152 q 214 -123 273 -167 q 207 -98 205 -114 q 221 -70 209 -83 q 244 -61 233 -57 q 358 -72 307 -92 q 374 -66 362 -71 q 389 -60 385 -62 q 401 -54 393 -58 q 413 -44 410 -49 q 420 -31 416 -39 q 427 -13 425 -23 q 429 12 429 -3 q 449 13 431 14 q 487 8 467 12 q 507 0 507 4 q 507 -22 507 -7 q 507 -42 507 -37 q 505 -57 507 -47 q 499 -73 503 -66 q 488 -85 495 -79 z "},"":{"ha":122,"x_min":8,"x_max":113,"o":"m 12 863 q 42 868 22 867 q 78 869 62 869 q 95 868 94 869 q 111 616 104 773 q 95 610 111 610 q 62 613 79 609 q 46 624 46 617 q 44 696 45 673 q 41 745 43 720 q 38 800 39 769 q 33 801 37 802 q 20 799 28 800 q 11 798 12 798 q 9 813 9 798 q 9 846 8 829 q 12 863 9 863 z "},"":{"ha":277,"x_min":14,"x_max":263,"o":"m 81 757 q 98 713 81 732 q 160 697 119 690 q 181 710 172 700 q 193 731 190 720 q 192 766 198 754 q 171 789 186 779 q 140 799 161 798 q 102 792 119 800 q 81 757 83 781 m 24 802 q 138 868 57 868 q 244 802 210 868 q 262 720 266 761 q 229 656 258 680 q 127 631 189 627 q 41 669 66 636 q 17 718 23 690 q 14 766 11 746 q 24 802 16 785 z "},"":{"ha":716,"x_min":33,"x_max":692,"o":"m 92 666 q 236 572 136 635 q 387 471 336 509 q 437 419 437 434 q 302 330 437 404 q 60 216 168 256 q 34 240 39 209 q 45 297 24 281 q 49 300 46 298 q 296 430 49 300 q 218 479 260 452 q 137 530 176 506 q 43 590 98 555 q 37 621 31 601 q 61 658 43 642 q 92 666 79 674 m 328 685 q 474 587 361 661 q 640 474 587 514 q 692 419 692 434 q 636 371 692 408 q 495 289 581 334 q 342 221 410 244 q 320 232 328 216 q 315 269 312 248 q 331 297 317 290 q 411 338 374 319 q 492 380 448 357 q 570 422 537 404 q 478 487 530 449 q 381 556 426 525 q 282 623 336 587 q 275 650 270 632 q 298 680 281 667 q 328 685 315 693 z "},"":{"ha":563,"x_min":12,"x_max":548,"o":"m 227 316 q 252 315 232 323 q 288 292 273 307 q 298 271 304 278 q 271 234 282 248 q 250 205 260 220 q 228 179 239 191 l 293 179 q 298 212 298 212 q 348 221 308 221 q 387 209 388 221 q 385 93 382 178 q 385 0 387 8 q 386 -11 385 -1 q 387 -29 387 -20 q 386 -46 387 -38 q 384 -57 385 -54 q 335 -60 380 -62 q 292 -45 290 -57 q 292 5 292 -8 q 290 43 292 18 q 288 87 289 69 q 209 89 262 88 q 125 92 156 90 q 92 100 95 94 q 134 184 88 114 q 227 316 179 255 m 176 922 q 220 929 191 926 q 273 931 250 932 q 298 928 297 930 q 323 568 313 793 q 300 559 324 560 q 250 564 275 557 q 225 578 225 570 q 224 683 225 648 q 219 752 222 718 q 214 831 216 787 q 205 832 212 833 q 188 829 199 831 q 174 827 176 827 q 170 850 171 827 q 171 897 170 873 q 176 922 172 921 m 35 488 q 233 491 197 491 q 375 486 269 491 q 529 480 481 481 q 547 457 543 480 q 544 411 551 434 q 524 388 537 388 q 35 391 404 387 q 14 415 20 391 q 14 464 7 439 q 35 488 20 488 z "},"":{"ha":563,"x_min":12,"x_max":548,"o":"m 122 273 q 195 316 160 302 q 271 323 229 330 q 368 281 331 315 q 410 217 406 248 q 403 155 415 178 q 366 123 391 133 q 313 106 342 113 q 252 81 285 99 q 198 33 220 62 l 224 35 q 427 34 365 54 q 444 10 441 30 q 442 -26 448 -9 q 429 -43 437 -43 q 336 -45 391 -45 q 261 -47 282 -46 q 198 -51 240 -47 q 100 -60 156 -54 q 98 -26 94 -54 q 120 45 102 1 q 161 115 138 90 q 211 146 179 134 q 271 162 243 157 q 304 170 300 167 q 318 196 317 179 q 308 227 319 213 q 245 248 289 254 q 189 235 209 243 q 142 205 168 228 q 134 220 141 205 q 121 251 126 236 q 122 273 117 266 m 176 922 q 220 929 191 926 q 273 931 250 932 q 298 928 297 930 q 323 568 313 793 q 300 559 324 560 q 250 564 275 557 q 225 578 225 570 q 224 683 225 648 q 219 752 222 718 q 214 831 216 787 q 205 832 212 833 q 188 829 199 831 q 174 827 176 827 q 170 850 171 827 q 171 897 170 873 q 176 922 172 921 m 35 488 q 233 491 197 491 q 375 486 269 491 q 529 480 481 481 q 547 457 543 480 q 544 411 551 434 q 524 388 537 388 q 35 391 404 387 q 14 415 20 391 q 14 464 7 439 q 35 488 20 488 z "},"":{"ha":563,"x_min":12,"x_max":548,"o":"m 160 929 q 271 926 216 925 q 368 926 326 928 q 415 918 411 925 q 387 880 419 914 q 322 816 354 846 q 293 785 290 785 q 298 785 293 785 q 309 786 304 785 q 321 786 313 787 q 337 783 330 785 q 353 778 345 781 q 370 770 362 774 q 384 758 377 765 q 395 740 391 750 q 401 715 399 730 q 401 685 403 701 q 301 555 396 586 q 230 557 279 548 q 146 590 180 566 q 136 616 136 600 q 144 648 137 633 q 157 661 152 662 q 258 640 210 639 q 308 667 296 643 q 308 692 313 677 q 289 715 302 708 q 242 728 271 724 q 192 733 213 731 q 168 741 171 735 q 181 778 161 755 q 252 845 201 800 q 263 854 259 852 l 151 854 q 143 873 144 854 q 148 911 142 892 q 160 929 153 929 m 227 316 q 252 315 232 323 q 288 292 273 307 q 298 271 304 278 q 271 234 282 248 q 250 205 260 220 q 228 179 239 191 l 293 179 q 298 212 298 212 q 348 221 308 221 q 387 209 388 221 q 385 93 382 178 q 385 0 387 8 q 386 -11 385 -1 q 387 -29 387 -20 q 386 -46 387 -38 q 384 -57 385 -54 q 335 -60 380 -62 q 292 -45 290 -57 q 292 5 292 -8 q 290 43 292 18 q 288 87 289 69 q 209 89 262 88 q 125 92 156 90 q 92 100 95 94 q 134 184 88 114 q 227 316 179 255 m 35 488 q 233 491 197 491 q 375 486 269 491 q 529 480 481 481 q 547 457 543 480 q 544 411 551 434 q 524 388 537 388 q 35 391 404 387 q 14 415 20 391 q 14 464 7 439 q 35 488 20 488 z "},"":{"ha":659,"x_min":20,"x_max":642,"o":"m 434 861 q 497 844 465 873 q 521 783 529 815 q 471 729 511 746 q 404 736 431 712 q 387 804 376 761 q 434 861 397 846 m 401 533 q 450 606 399 564 q 511 625 499 646 q 515 614 515 621 q 517 505 515 567 q 520 397 519 442 q 522 309 521 353 q 522 239 522 266 q 518 205 521 213 q 466 184 511 189 q 355 170 420 179 q 250 134 289 160 q 213 109 228 121 q 180 82 198 98 q 150 52 161 66 q 130 20 138 37 q 123 -16 122 3 q 133 -53 123 -35 q 163 -92 144 -77 q 201 -112 183 -106 q 250 -119 220 -118 q 300 -118 281 -119 q 354 -113 319 -117 q 372 -110 366 -111 q 422 -100 397 -107 q 465 -87 448 -94 q 508 -67 481 -81 q 545 -47 534 -53 q 585 -21 555 -41 q 624 4 614 -1 q 640 -12 640 15 q 612 -96 640 -58 q 594 -113 604 -109 q 382 -205 464 -180 q 190 -221 301 -231 q 71 -173 119 -216 q 22 -64 23 -130 q 51 81 18 24 q 174 197 84 137 q 243 232 208 220 q 324 255 278 244 q 401 278 370 266 q 404 346 401 312 q 406 418 406 380 q 401 533 406 457 z "},"":{"ha":880,"x_min":16,"x_max":859,"o":"m 292 1062 q 301 1072 283 1066 q 415 1086 354 1089 q 433 1084 429 1086 q 507 1040 472 1062 q 576 995 543 1017 q 625 962 609 972 q 606 930 640 952 q 550 918 570 906 q 496 951 530 930 q 446 981 463 971 q 388 1013 429 991 q 292 1062 347 1034 m 19 53 q 123 241 60 130 q 237 447 187 351 q 342 663 288 543 q 366 716 351 684 q 388 767 380 749 q 407 810 396 785 q 425 847 418 834 q 441 873 433 860 q 458 892 450 887 q 472 898 465 898 q 500 889 488 898 q 520 863 513 880 q 532 828 528 845 q 541 785 536 811 q 551 745 547 760 q 581 658 559 716 q 634 517 602 600 q 681 395 666 434 q 756 227 709 317 q 831 84 803 137 q 859 24 860 31 q 808 -6 852 -1 q 642 -5 764 -11 q 363 3 481 1 q 359 38 338 3 q 419 83 389 77 q 471 82 441 83 q 528 81 502 81 q 583 79 553 80 q 633 79 612 79 q 673 80 655 79 q 699 84 690 81 q 705 92 708 87 q 597 345 643 231 q 469 647 477 639 q 440 622 461 654 q 387 524 419 590 q 319 387 354 458 q 238 220 285 315 q 156 56 191 125 q 73 23 138 22 q 18 46 20 24 q 19 53 18 49 z "},"":{"ha":880,"x_min":16,"x_max":859,"o":"m 273 951 q 349 993 312 972 q 404 1023 387 1013 q 449 1046 420 1032 q 519 1078 477 1059 q 621 1072 543 1089 q 659 1054 663 1062 q 655 1051 658 1053 q 370 916 480 971 q 289 921 340 901 q 273 951 254 939 m 19 53 q 123 241 60 130 q 237 447 187 351 q 342 663 288 543 q 366 716 351 684 q 388 767 380 749 q 407 810 396 785 q 425 847 418 834 q 441 873 433 860 q 458 892 450 887 q 472 898 465 898 q 500 889 488 898 q 520 863 513 880 q 532 828 528 845 q 541 785 536 811 q 551 745 547 760 q 581 658 559 716 q 634 517 602 600 q 681 395 666 434 q 756 227 709 317 q 831 84 803 137 q 859 24 860 31 q 808 -6 852 -1 q 642 -5 764 -11 q 363 3 481 1 q 359 38 338 3 q 419 83 389 77 q 471 82 441 83 q 528 81 502 81 q 583 79 553 80 q 633 79 612 79 q 673 80 655 79 q 699 84 690 81 q 705 92 708 87 q 597 345 643 231 q 469 647 477 639 q 440 622 461 654 q 387 524 419 590 q 319 387 354 458 q 238 220 285 315 q 156 56 191 125 q 73 23 138 22 q 18 46 20 24 q 19 53 18 49 z "},"":{"ha":880,"x_min":16,"x_max":859,"o":"m 300 905 q 331 939 313 920 q 359 970 349 959 q 383 998 369 982 q 406 1022 397 1013 q 424 1042 414 1031 q 441 1058 434 1053 q 455 1069 448 1063 q 467 1076 463 1074 q 476 1078 472 1078 q 543 1030 495 1078 q 652 899 590 982 q 642 868 665 883 q 595 856 618 853 q 567 877 585 857 q 522 930 549 897 q 479 981 495 964 q 435 940 463 964 q 389 897 408 916 q 354 861 370 878 q 328 859 343 853 q 302 880 313 865 q 300 905 292 895 m 19 53 q 123 241 60 130 q 237 447 187 351 q 342 663 288 543 q 366 716 351 684 q 388 767 380 749 q 407 810 396 785 q 425 847 418 834 q 441 873 433 860 q 458 892 450 887 q 472 898 465 898 q 500 889 488 898 q 520 863 513 880 q 532 828 528 845 q 541 785 536 811 q 551 745 547 760 q 581 658 559 716 q 634 517 602 600 q 681 395 666 434 q 756 227 709 317 q 831 84 803 137 q 859 24 860 31 q 808 -6 852 -1 q 642 -5 764 -11 q 363 3 481 1 q 359 38 338 3 q 419 83 389 77 q 471 82 441 83 q 528 81 502 81 q 583 79 553 80 q 633 79 612 79 q 673 80 655 79 q 699 84 690 81 q 705 92 708 87 q 597 345 643 231 q 469 647 477 639 q 440 622 461 654 q 387 524 419 590 q 319 387 354 458 q 238 220 285 315 q 156 56 191 125 q 73 23 138 22 q 18 46 20 24 q 19 53 18 49 z "},"":{"ha":880,"x_min":16,"x_max":859,"o":"m 233 935 q 245 984 240 966 q 262 1025 251 1002 q 290 1059 273 1047 q 330 1074 307 1072 q 415 1061 376 1078 q 499 1013 454 1044 q 574 970 544 982 q 615 989 591 963 q 655 1016 639 1015 q 697 1010 677 1019 q 712 983 718 1001 q 675 901 697 932 q 614 872 654 871 q 545 890 579 872 q 488 929 511 907 q 432 968 465 951 q 362 986 399 986 q 333 970 345 986 q 318 936 321 955 q 306 897 315 917 q 285 871 297 878 q 251 890 274 867 q 233 935 228 914 m 19 53 q 123 241 60 130 q 237 447 187 351 q 342 663 288 543 q 366 716 351 684 q 388 767 380 749 q 407 810 396 785 q 425 847 418 834 q 441 873 433 860 q 458 892 450 887 q 472 898 465 898 q 500 889 488 898 q 520 863 513 880 q 532 828 528 845 q 541 785 536 811 q 551 745 547 760 q 581 658 559 716 q 634 517 602 600 q 681 395 666 434 q 756 227 709 317 q 831 84 803 137 q 859 24 860 31 q 808 -6 852 -1 q 642 -5 764 -11 q 363 3 481 1 q 359 38 338 3 q 419 83 389 77 q 471 82 441 83 q 528 81 502 81 q 583 79 553 80 q 633 79 612 79 q 673 80 655 79 q 699 84 690 81 q 705 92 708 87 q 597 345 643 231 q 469 647 477 639 q 440 622 461 654 q 387 524 419 590 q 319 387 354 458 q 238 220 285 315 q 156 56 191 125 q 73 23 138 22 q 18 46 20 24 q 19 53 18 49 z "},"":{"ha":880,"x_min":16,"x_max":859,"o":"m 506 1024 q 561 1046 525 1048 q 612 1016 597 1043 q 604 965 625 993 q 555 940 583 937 q 508 972 526 943 q 506 1024 490 1002 m 338 957 q 325 969 338 957 q 321 1010 312 982 q 367 1044 331 1039 q 425 1027 403 1048 q 433 975 444 1008 q 395 937 422 941 q 338 957 365 932 m 19 53 q 123 241 60 130 q 237 447 187 351 q 342 663 288 543 q 366 716 351 684 q 388 767 380 749 q 407 810 396 785 q 425 847 418 834 q 441 873 433 860 q 458 892 450 887 q 472 898 465 898 q 500 889 488 898 q 520 863 513 880 q 532 828 528 845 q 541 785 536 811 q 551 745 547 760 q 581 658 559 716 q 634 517 602 600 q 681 395 666 434 q 756 227 709 317 q 831 84 803 137 q 859 24 860 31 q 808 -6 852 -1 q 642 -5 764 -11 q 363 3 481 1 q 359 38 338 3 q 419 83 389 77 q 471 82 441 83 q 528 81 502 81 q 583 79 553 80 q 633 79 612 79 q 673 80 655 79 q 699 84 690 81 q 705 92 708 87 q 597 345 643 231 q 469 647 477 639 q 440 622 461 654 q 387 524 419 590 q 319 387 354 458 q 238 220 285 315 q 156 56 191 125 q 73 23 138 22 q 18 46 20 24 q 19 53 18 49 z "},"":{"ha":880,"x_min":16,"x_max":859,"o":"m 467 962 q 400 920 426 960 q 396 848 374 880 q 467 814 418 812 q 537 850 515 815 q 530 922 556 883 q 467 962 505 962 m 551 745 q 581 656 559 715 q 634 516 602 598 q 681 395 666 434 q 756 227 709 317 q 831 84 803 137 q 859 24 860 31 q 808 -6 852 -1 q 642 -5 764 -11 q 363 3 481 1 q 359 38 338 3 q 419 83 389 77 q 471 82 441 83 q 528 81 502 81 q 583 79 553 80 q 633 79 612 79 q 673 80 655 79 q 699 84 690 81 q 705 92 708 87 q 597 345 643 231 q 469 647 477 639 q 440 622 461 654 q 387 524 419 590 q 319 387 354 458 q 238 220 285 315 q 156 56 191 125 q 73 23 138 22 q 18 46 20 24 q 19 53 18 49 q 135 262 57 125 q 274 515 213 399 q 388 753 335 631 q 378 764 389 757 q 351 783 368 772 q 319 808 335 793 q 296 848 304 822 q 293 905 288 873 q 350 998 302 966 q 464 1029 397 1029 q 578 994 528 1029 q 637 905 629 959 q 629 839 642 869 q 597 791 616 808 q 564 762 579 774 q 551 745 549 749 z "},"":{"ha":1097,"x_min":16,"x_max":1076,"o":"m 472 898 q 689 884 476 898 q 1031 872 902 869 q 1058 829 1063 872 q 1021 764 1053 783 q 996 758 1009 755 q 589 774 901 774 q 574 643 579 774 q 578 509 568 511 q 727 507 618 500 q 933 525 836 513 q 993 490 962 528 q 1000 433 1024 449 q 990 430 996 431 q 763 402 922 415 q 586 384 604 389 q 573 239 571 378 q 589 99 575 100 q 795 108 625 95 q 1050 107 966 121 q 1074 82 1066 104 q 1075 38 1081 60 q 1053 15 1069 16 q 812 -1 947 4 q 587 -6 678 -7 q 488 0 495 -5 q 477 324 479 7 q 469 647 475 642 q 440 622 461 654 q 387 524 419 590 q 319 387 354 458 q 238 220 285 315 q 156 56 191 125 q 73 23 138 22 q 18 46 20 24 q 19 53 18 49 q 123 241 60 130 q 237 447 187 351 q 342 663 288 543 q 366 716 351 684 q 388 767 380 749 q 407 810 396 785 q 425 847 418 834 q 441 873 433 860 q 458 892 450 887 q 472 898 465 898 z "},"":{"ha":883,"x_min":19,"x_max":760,"o":"m 618 64 q 517 18 585 39 q 363 -3 449 -3 q 137 64 241 -3 q 19 222 33 130 q 46 421 7 301 q 164 631 85 541 q 356 777 248 724 q 567 838 464 830 q 632 795 600 841 q 639 755 655 760 q 473 714 591 755 q 289 602 355 673 q 176 444 227 537 q 136 255 126 351 q 200 144 142 184 q 336 100 258 104 q 439 106 389 98 q 541 136 490 115 q 621 172 591 157 q 701 216 651 187 q 719 227 712 222 q 745 235 739 240 q 760 183 750 229 q 743 -37 783 60 q 690 -118 722 -88 q 608 -170 659 -148 q 426 -170 509 -212 q 425 -118 414 -164 q 442 -91 433 -90 q 538 -104 488 -110 q 608 -72 587 -98 q 621 -56 612 -66 q 636 -38 631 -45 q 649 -20 642 -31 q 661 1 656 -9 q 668 24 665 11 q 671 52 671 37 q 667 85 670 68 q 644 84 663 100 q 637 79 643 83 q 618 64 625 69 z "},"":{"ha":665,"x_min":23,"x_max":644,"o":"m 113 1006 q 122 1016 104 1010 q 236 1031 175 1032 q 254 1028 250 1031 q 328 983 293 1005 q 397 939 363 962 q 446 906 430 916 q 427 875 461 897 q 371 862 391 850 q 317 895 351 873 q 266 926 283 916 q 208 957 248 936 q 113 1006 168 978 m 33 819 q 112 820 35 825 q 345 804 189 815 q 628 787 500 792 q 642 762 644 784 q 625 726 639 741 q 544 692 591 689 q 316 709 465 699 q 156 716 167 719 q 144 665 151 716 q 136 571 137 614 q 144 519 134 528 q 179 519 146 519 q 233 519 212 519 q 295 521 255 519 q 368 524 335 522 q 444 531 401 526 q 522 541 486 536 q 608 522 571 552 q 633 487 625 509 q 625 458 642 465 q 486 437 559 445 q 364 428 412 430 q 241 425 316 426 q 136 422 167 423 q 133 153 122 422 q 136 139 133 145 q 144 129 138 133 q 157 122 151 125 q 174 117 163 119 q 191 115 184 115 q 210 113 198 114 q 228 111 221 113 q 404 113 289 104 q 581 106 519 121 q 625 83 608 102 q 644 37 642 65 q 641 26 644 30 q 630 20 637 22 q 617 18 623 18 q 601 18 612 18 q 586 16 590 18 q 91 0 328 0 q 49 31 73 0 q 24 77 24 61 q 24 213 24 126 q 23 358 23 300 q 24 492 23 416 q 24 619 24 568 q 26 718 24 670 q 28 791 27 766 q 33 819 30 817 z "},"":{"ha":665,"x_min":23,"x_max":644,"o":"m 161 907 q 238 948 201 928 q 292 978 275 968 q 338 1002 309 987 q 408 1035 366 1016 q 510 1027 431 1044 q 548 1010 552 1017 q 544 1008 547 1009 q 259 872 369 928 q 178 878 229 856 q 161 907 142 894 m 33 819 q 112 820 35 825 q 345 804 189 815 q 628 787 500 792 q 642 762 644 784 q 625 726 639 741 q 544 692 591 689 q 316 709 465 699 q 156 716 167 719 q 144 665 151 716 q 136 571 137 614 q 144 519 134 528 q 179 519 146 519 q 233 519 212 519 q 295 521 255 519 q 368 524 335 522 q 444 531 401 526 q 522 541 486 536 q 608 522 571 552 q 633 487 625 509 q 625 458 642 465 q 486 437 559 445 q 364 428 412 430 q 241 425 316 426 q 136 422 167 423 q 133 153 122 422 q 136 139 133 145 q 144 129 138 133 q 157 122 151 125 q 174 117 163 119 q 191 115 184 115 q 210 113 198 114 q 228 111 221 113 q 404 113 289 104 q 581 106 519 121 q 625 83 608 102 q 644 37 642 65 q 641 26 644 30 q 630 20 637 22 q 617 18 623 18 q 601 18 612 18 q 586 16 590 18 q 91 0 328 0 q 49 31 73 0 q 24 77 24 61 q 24 213 24 126 q 23 358 23 300 q 24 492 23 416 q 24 619 24 568 q 26 718 24 670 q 28 791 27 766 q 33 819 30 817 z "},"":{"ha":665,"x_min":23,"x_max":644,"o":"m 151 895 q 182 930 164 910 q 210 961 199 949 q 234 988 220 972 q 256 1013 248 1004 q 275 1031 264 1021 q 292 1048 285 1042 q 305 1059 298 1054 q 317 1067 312 1065 q 327 1069 323 1069 q 393 1021 346 1069 q 503 890 441 972 q 492 858 515 873 q 446 846 469 842 q 417 867 435 848 q 372 920 399 886 q 330 971 346 954 q 286 930 312 955 q 240 886 259 905 q 205 852 221 868 q 178 850 194 844 q 153 871 163 856 q 151 895 142 886 m 33 819 q 112 820 35 825 q 345 804 189 815 q 628 787 500 792 q 642 762 644 784 q 625 726 639 741 q 544 692 591 689 q 316 709 465 699 q 156 716 167 719 q 144 665 151 716 q 136 571 137 614 q 144 519 134 528 q 179 519 146 519 q 233 519 212 519 q 295 521 255 519 q 368 524 335 522 q 444 531 401 526 q 522 541 486 536 q 608 522 571 552 q 633 487 625 509 q 625 458 642 465 q 486 437 559 445 q 364 428 412 430 q 241 425 316 426 q 136 422 167 423 q 133 153 122 422 q 136 139 133 145 q 144 129 138 133 q 157 122 151 125 q 174 117 163 119 q 191 115 184 115 q 210 113 198 114 q 228 111 221 113 q 404 113 289 104 q 581 106 519 121 q 625 83 608 102 q 644 37 642 65 q 641 26 644 30 q 630 20 637 22 q 617 18 623 18 q 601 18 612 18 q 586 16 590 18 q 91 0 328 0 q 49 31 73 0 q 24 77 24 61 q 24 213 24 126 q 23 358 23 300 q 24 492 23 416 q 24 619 24 568 q 26 718 24 670 q 28 791 27 766 q 33 819 30 817 z "},"":{"ha":665,"x_min":23,"x_max":644,"o":"m 362 960 q 416 982 381 985 q 468 952 452 979 q 460 901 481 928 q 411 876 439 873 q 364 908 382 879 q 362 960 346 937 m 194 893 q 181 906 194 893 q 178 947 168 918 q 223 980 187 975 q 281 963 259 985 q 289 910 300 943 q 251 873 278 878 q 194 893 220 868 m 33 819 q 112 820 35 825 q 345 804 189 815 q 628 787 500 792 q 642 762 644 784 q 625 726 639 741 q 544 692 591 689 q 316 709 465 699 q 156 716 167 719 q 144 665 151 716 q 136 571 137 614 q 144 519 134 528 q 179 519 146 519 q 233 519 212 519 q 295 521 255 519 q 368 524 335 522 q 444 531 401 526 q 522 541 486 536 q 608 522 571 552 q 633 487 625 509 q 625 458 642 465 q 486 437 559 445 q 364 428 412 430 q 241 425 316 426 q 136 422 167 423 q 133 153 122 422 q 136 139 133 145 q 144 129 138 133 q 157 122 151 125 q 174 117 163 119 q 191 115 184 115 q 210 113 198 114 q 228 111 221 113 q 404 113 289 104 q 581 106 519 121 q 625 83 608 102 q 644 37 642 65 q 641 26 644 30 q 630 20 637 22 q 617 18 623 18 q 601 18 612 18 q 586 16 590 18 q 91 0 328 0 q 49 31 73 0 q 24 77 24 61 q 24 213 24 126 q 23 358 23 300 q 24 492 23 416 q 24 619 24 568 q 26 718 24 670 q 28 791 27 766 q 33 819 30 817 z "},"":{"ha":351,"x_min":8,"x_max":342,"o":"m 8 1044 q 18 1054 0 1048 q 132 1069 71 1070 q 149 1066 145 1069 q 224 1021 189 1043 q 292 976 259 998 q 342 944 326 954 q 323 913 357 935 q 267 900 286 888 q 213 932 247 911 q 161 964 179 954 q 104 995 144 974 q 8 1044 64 1016 m 109 869 q 127 875 111 876 q 164 869 144 873 q 187 861 184 865 q 229 771 212 821 q 245 708 245 722 q 242 377 245 675 q 245 42 239 79 q 195 -4 247 12 q 132 0 145 -20 q 129 8 129 4 q 127 282 127 114 q 123 567 126 450 q 109 869 119 684 z "},"":{"ha":376,"x_min":0,"x_max":387,"o":"m 0 962 q 77 1003 39 982 q 131 1033 114 1024 q 176 1056 148 1042 q 247 1089 205 1070 q 349 1081 270 1100 q 387 1065 391 1073 q 382 1062 385 1063 q 98 926 208 982 q 16 932 68 910 q 0 962 -19 949 m 103 869 q 122 875 106 876 q 159 869 138 873 q 182 861 179 865 q 223 771 206 821 q 240 708 240 722 q 237 377 240 675 q 240 42 233 79 q 190 -4 241 12 q 126 0 140 -20 q 123 8 123 4 q 121 282 122 114 q 117 567 121 450 q 103 869 114 684 z "},"":{"ha":311,"x_min":-22,"x_max":332,"o":"m -22 916 q 9 950 -8 930 q 37 982 27 970 q 62 1009 47 994 q 84 1034 76 1024 q 102 1053 92 1043 q 119 1069 113 1063 q 133 1080 126 1074 q 145 1087 140 1085 q 155 1089 151 1089 q 221 1041 174 1089 q 331 910 269 993 q 320 880 343 895 q 274 867 297 864 q 245 888 263 869 q 200 941 227 907 q 157 991 174 975 q 113 951 140 975 q 68 908 87 926 q 33 872 49 890 q 6 871 22 865 q -20 892 -9 878 q -22 916 -30 907 m 95 872 q 114 878 98 879 q 151 872 130 876 q 174 864 171 868 q 215 774 198 823 q 232 711 232 724 q 229 380 232 678 q 232 45 225 81 q 182 -1 233 15 q 118 3 132 -18 q 115 11 115 7 q 113 285 114 117 q 109 570 113 453 q 95 872 106 686 z "},"":{"ha":251,"x_min":-19,"x_max":271,"o":"m 165 1027 q 220 1049 184 1053 q 271 1019 255 1046 q 264 968 285 996 q 214 943 243 941 q 168 975 186 945 q 165 1027 149 1005 m -3 961 q -16 974 -3 961 q -19 1014 -28 986 q 26 1047 -9 1042 q 84 1029 62 1053 q 92 978 103 1010 q 54 940 81 945 q -3 961 23 936 m 57 878 q 76 883 60 884 q 113 878 92 882 q 136 869 133 873 q 177 779 160 829 q 194 716 194 730 q 191 385 194 684 q 194 50 187 87 q 144 4 195 20 q 80 8 94 -12 q 77 16 77 12 q 75 290 76 122 q 71 575 75 458 q 57 878 68 692 z "},"":{"ha":814,"x_min":-26,"x_max":795,"o":"m 167 396 q 170 109 171 130 q 241 113 170 103 q 399 144 312 122 q 519 189 486 165 q 678 503 709 316 q 610 617 667 572 q 450 705 552 662 q 326 738 400 727 q 201 746 252 749 q 151 731 149 743 q 153 689 151 726 q 158 595 155 652 q 164 494 161 538 q 401 507 164 480 q 429 484 420 510 q 432 432 438 458 q 407 404 426 406 q 302 401 365 401 q 203 399 239 400 q 167 396 167 399 m 62 491 q 58 605 62 514 q 53 747 54 696 q 47 775 53 757 q 43 804 42 793 q 56 817 43 815 q 288 835 174 838 q 525 792 403 831 q 780 586 718 730 q 795 418 812 522 q 713 236 777 313 q 545 93 631 137 q 313 24 460 49 q 245 10 281 19 q 176 -2 209 1 q 80 -5 142 -5 q 16 39 49 -5 q 27 69 8 53 q 44 73 35 75 q 61 73 53 72 q 69 80 69 73 q 69 257 72 142 q 66 393 66 372 q 58 398 66 397 q 29 397 49 399 q 0 396 9 396 q -25 420 -18 396 q -25 469 -33 445 q 0 494 -18 494 q 27 492 9 494 q 52 490 45 491 q 62 491 60 490 z "},"":{"ha":735,"x_min":18,"x_max":713,"o":"m 81 940 q 94 989 88 971 q 110 1029 99 1006 q 138 1065 121 1053 q 179 1078 155 1077 q 264 1066 224 1084 q 349 1018 304 1048 q 423 974 393 987 q 465 993 441 967 q 505 1020 488 1019 q 546 1014 526 1023 q 562 987 566 1005 q 525 907 547 937 q 464 876 503 876 q 393 895 427 876 q 337 934 359 913 q 281 972 315 955 q 212 990 247 990 q 182 975 193 990 q 167 941 171 960 q 155 901 163 921 q 133 876 146 882 q 100 895 123 872 q 81 940 77 918 m 80 22 q 24 141 24 81 q 22 431 24 233 q 18 709 19 628 q 22 836 18 791 q 551 736 378 891 q 663 595 627 667 q 706 439 700 522 q 711 242 712 355 q 713 -22 711 129 q 659 -1 715 -45 q 602 64 604 43 q 604 233 600 99 q 593 458 608 368 q 533 600 579 549 q 359 728 445 694 q 127 761 273 762 q 121 643 122 761 q 126 347 121 525 q 141 14 132 170 q 109 5 142 -4 q 80 22 90 11 z "},"":{"ha":694,"x_min":22,"x_max":667,"o":"m 153 1025 q 163 1035 145 1029 q 277 1050 214 1053 q 294 1047 290 1050 q 368 1003 334 1025 q 437 958 403 981 q 487 925 471 936 q 468 894 502 916 q 410 882 430 871 q 357 914 391 894 q 307 945 324 935 q 249 977 289 955 q 153 1025 209 998 m 403 739 q 256 705 321 760 q 153 559 191 651 q 130 341 117 453 q 180 189 142 229 q 199 170 197 172 q 216 152 202 167 q 237 134 231 137 q 256 120 243 130 q 279 108 270 110 q 300 102 288 106 q 326 100 313 98 q 353 106 339 102 q 500 188 430 130 q 578 328 571 245 q 552 507 585 410 q 476 668 519 604 q 403 739 433 732 m 98 694 q 232 804 146 769 q 392 838 317 840 q 521 779 458 837 q 621 641 583 720 q 667 488 659 562 q 625 186 694 258 q 468 45 532 87 q 305 0 404 4 q 180 37 229 -3 q 72 164 130 77 q 32 274 46 202 q 22 422 18 346 q 98 694 30 594 z "},"":{"ha":694,"x_min":22,"x_max":667,"o":"m 178 914 q 254 956 217 935 q 309 985 292 977 q 354 1008 326 994 q 425 1042 382 1023 q 526 1034 448 1053 q 564 1017 567 1025 q 560 1015 563 1016 q 275 879 385 935 q 194 884 244 863 q 178 914 159 902 m 403 739 q 256 705 321 760 q 153 559 191 651 q 130 341 117 453 q 180 189 142 229 q 199 170 197 172 q 216 152 202 167 q 237 134 231 137 q 256 120 243 130 q 279 108 270 110 q 300 102 288 106 q 326 100 313 98 q 353 106 339 102 q 500 188 430 130 q 578 328 571 245 q 552 507 585 410 q 476 668 519 604 q 403 739 433 732 m 98 694 q 232 804 146 769 q 392 838 317 840 q 521 779 458 837 q 621 641 583 720 q 667 488 659 562 q 625 186 694 258 q 468 45 532 87 q 305 0 404 4 q 180 37 229 -3 q 72 164 130 77 q 32 274 46 202 q 22 422 18 346 q 98 694 30 594 z "},"":{"ha":694,"x_min":22,"x_max":667,"o":"m 170 901 q 199 935 182 916 q 228 966 217 955 q 252 994 239 978 q 275 1018 266 1009 q 294 1038 283 1027 q 311 1054 304 1048 q 324 1065 317 1059 q 336 1072 331 1070 q 346 1074 342 1074 q 412 1026 365 1074 q 522 895 460 978 q 511 864 534 879 q 465 852 487 849 q 436 873 454 853 q 391 926 418 892 q 349 977 365 960 q 304 936 331 960 q 258 893 278 911 q 224 857 239 875 q 197 855 213 849 q 172 876 182 861 q 170 901 161 891 m 403 739 q 256 705 321 760 q 153 559 191 651 q 130 341 117 453 q 180 189 142 229 q 199 170 197 172 q 216 152 202 167 q 237 134 231 137 q 256 120 243 130 q 279 108 270 110 q 300 102 288 106 q 326 100 313 98 q 353 106 339 102 q 500 188 430 130 q 578 328 571 245 q 552 507 585 410 q 476 668 519 604 q 403 739 433 732 m 98 694 q 232 804 146 769 q 392 838 317 840 q 521 779 458 837 q 621 641 583 720 q 667 488 659 562 q 625 186 694 258 q 468 45 532 87 q 305 0 404 4 q 180 37 229 -3 q 72 164 130 77 q 32 274 46 202 q 22 422 18 346 q 98 694 30 594 z "},"":{"ha":694,"x_min":22,"x_max":667,"o":"m 99 933 q 111 983 106 964 q 127 1024 117 1001 q 155 1059 138 1047 q 197 1073 172 1070 q 281 1060 241 1077 q 366 1012 321 1043 q 441 968 411 981 q 482 987 458 962 q 522 1015 506 1013 q 564 1008 544 1017 q 579 982 583 1000 q 543 900 564 930 q 481 871 521 869 q 411 888 445 871 q 355 928 377 906 q 298 967 332 949 q 229 985 264 985 q 199 969 210 985 q 184 935 189 954 q 172 896 180 916 q 151 869 164 876 q 118 889 141 865 q 99 933 95 913 m 403 739 q 256 705 321 760 q 153 559 191 651 q 130 341 117 453 q 180 189 142 229 q 199 170 197 172 q 216 152 202 167 q 237 134 231 137 q 256 120 243 130 q 279 108 270 110 q 300 102 288 106 q 326 100 313 98 q 353 106 339 102 q 500 188 430 130 q 578 328 571 245 q 552 507 585 410 q 476 668 519 604 q 403 739 433 732 m 98 694 q 232 804 146 769 q 392 838 317 840 q 521 779 458 837 q 621 641 583 720 q 667 488 659 562 q 625 186 694 258 q 468 45 532 87 q 305 0 404 4 q 180 37 229 -3 q 72 164 130 77 q 32 274 46 202 q 22 422 18 346 q 98 694 30 594 z "},"":{"ha":694,"x_min":22,"x_max":667,"o":"m 378 985 q 433 1006 397 1009 q 484 977 468 1004 q 477 926 498 954 q 427 901 456 898 q 379 933 397 903 q 378 985 361 963 m 210 918 q 197 930 210 918 q 194 971 184 943 q 239 1004 203 1000 q 297 987 275 1009 q 305 935 316 968 q 267 898 294 902 q 210 918 236 892 m 403 739 q 256 705 321 760 q 153 559 191 651 q 130 341 117 453 q 180 189 142 229 q 199 170 197 172 q 216 152 202 167 q 237 134 231 137 q 256 120 243 130 q 279 108 270 110 q 300 102 288 106 q 326 100 313 98 q 353 106 339 102 q 500 188 430 130 q 578 328 571 245 q 552 507 585 410 q 476 668 519 604 q 403 739 433 732 m 98 694 q 232 804 146 769 q 392 838 317 840 q 521 779 458 837 q 621 641 583 720 q 667 488 659 562 q 625 186 694 258 q 468 45 532 87 q 305 0 404 4 q 180 37 229 -3 q 72 164 130 77 q 32 274 46 202 q 22 422 18 346 q 98 694 30 594 z "},"":{"ha":610,"x_min":20,"x_max":589,"o":"m 22 614 q 24 646 7 627 q 70 676 42 666 q 109 677 98 686 q 190 598 159 627 q 252 542 221 570 q 312 490 283 514 q 368 543 338 514 q 428 600 399 571 q 502 677 457 629 q 540 675 513 688 q 584 639 567 662 q 589 604 601 616 q 500 519 533 549 q 438 465 468 490 q 380 414 408 439 q 431 372 407 392 q 485 329 454 353 q 581 262 515 305 q 572 231 587 256 q 534 186 556 206 q 505 175 513 167 q 427 242 457 216 q 365 295 396 269 q 307 346 334 321 q 263 309 281 324 q 236 283 245 293 q 191 245 227 273 q 95 172 156 218 q 63 182 84 164 q 28 224 42 201 q 22 254 15 248 q 123 327 91 301 q 177 376 155 353 q 228 422 199 399 q 22 614 22 613 z "},"":{"ha":817,"x_min":18,"x_max":789,"o":"m 407 98 q 554 174 477 107 q 637 328 631 241 q 635 414 640 358 q 622 512 629 471 q 610 548 614 553 q 452 364 553 472 q 293 179 351 256 q 300 151 288 172 q 343 111 313 130 q 407 98 373 92 m 564 646 q 534 701 579 667 q 463 739 488 734 q 313 705 380 760 q 213 559 245 651 q 195 334 183 475 q 220 255 203 250 q 395 444 243 269 q 564 646 547 620 m 727 488 q 685 186 754 258 q 608 108 633 132 q 542 54 583 84 q 459 12 500 23 q 365 0 418 0 q 220 84 304 0 q 92 -24 208 96 q 39 -9 71 -46 q 19 60 7 30 q 27 71 22 66 q 100 135 62 98 q 130 184 138 172 q 96 288 111 213 q 81 422 81 362 q 103 573 81 499 q 157 694 125 647 q 292 804 206 769 q 452 838 377 840 q 553 802 500 837 q 629 732 605 768 q 652 734 636 722 q 692 779 667 747 l 716 811 q 749 808 727 823 q 784 766 770 792 q 789 724 798 739 q 772 705 785 718 q 744 682 758 693 q 716 659 730 670 q 695 640 703 648 q 692 627 688 631 q 712 568 700 618 q 727 488 724 517 z "},"":{"ha":624,"x_min":16,"x_max":602,"o":"m 100 990 q 110 1001 92 994 q 224 1016 163 1017 q 241 1012 237 1015 q 316 968 281 990 q 385 923 351 945 q 434 890 418 901 q 415 859 449 880 q 359 847 378 836 q 305 879 339 859 q 254 909 271 899 q 196 941 236 920 q 100 990 156 963 m 22 780 q 49 787 22 784 q 103 790 76 791 q 130 784 130 789 q 131 524 136 636 q 132 326 126 411 q 161 206 137 240 q 275 133 199 155 q 410 115 351 111 q 469 133 468 119 q 467 792 481 517 q 519 808 467 802 q 575 795 572 814 q 602 306 593 560 q 602 34 610 52 q 499 -1 591 7 q 289 16 407 -9 q 137 79 212 34 q 53 170 62 125 q 36 245 45 209 q 24 290 27 282 q 19 318 22 297 q 17 347 16 339 q 18 393 18 355 q 20 469 19 430 q 22 593 22 507 q 22 780 22 678 z "},"":{"ha":624,"x_min":16,"x_max":602,"o":"m 111 890 q 188 931 151 910 q 242 961 225 952 q 288 984 259 970 q 358 1017 316 998 q 460 1009 381 1027 q 498 993 502 1001 q 494 990 496 991 q 209 854 319 910 q 127 860 179 838 q 111 890 92 878 m 22 780 q 49 787 22 784 q 103 790 76 791 q 130 784 130 789 q 131 524 136 636 q 132 326 126 411 q 161 206 137 240 q 275 133 199 155 q 410 115 351 111 q 469 133 468 119 q 467 792 481 517 q 519 808 467 802 q 575 795 572 814 q 602 306 593 560 q 602 34 610 52 q 499 -1 591 7 q 289 16 407 -9 q 137 79 212 34 q 53 170 62 125 q 36 245 45 209 q 24 290 27 282 q 19 318 22 297 q 17 347 16 339 q 18 393 18 355 q 20 469 19 430 q 22 593 22 507 q 22 780 22 678 z "},"":{"ha":624,"x_min":16,"x_max":602,"o":"m 119 884 q 151 919 133 899 q 178 950 168 939 q 203 977 189 962 q 225 1002 217 993 q 243 1021 233 1010 q 260 1037 254 1031 q 274 1048 267 1043 q 286 1056 281 1054 q 296 1058 292 1058 q 362 1010 315 1058 q 472 879 410 962 q 461 847 484 863 q 415 836 438 831 q 386 856 404 837 q 341 909 368 875 q 298 960 315 943 q 254 919 281 944 q 209 876 228 894 q 174 841 190 857 q 147 839 163 833 q 121 860 132 845 q 119 884 111 875 m 22 780 q 49 787 22 784 q 103 790 76 791 q 130 784 130 789 q 131 524 136 636 q 132 326 126 411 q 161 206 137 240 q 275 133 199 155 q 410 115 351 111 q 469 133 468 119 q 467 792 481 517 q 519 808 467 802 q 575 795 572 814 q 602 306 593 560 q 602 34 610 52 q 499 -1 591 7 q 289 16 407 -9 q 137 79 212 34 q 53 170 62 125 q 36 245 45 209 q 24 290 27 282 q 19 318 22 297 q 17 347 16 339 q 18 393 18 355 q 20 469 19 430 q 22 593 22 507 q 22 780 22 678 z "},"":{"ha":624,"x_min":16,"x_max":602,"o":"m 336 933 q 391 955 355 958 q 442 925 426 952 q 435 873 456 901 q 385 849 414 846 q 338 880 357 850 q 336 933 320 910 m 168 866 q 155 879 168 866 q 152 920 142 891 q 197 953 161 948 q 255 936 233 958 q 263 883 274 916 q 225 846 252 850 q 168 866 194 841 m 22 780 q 49 787 22 784 q 103 790 76 791 q 130 784 130 789 q 131 524 136 636 q 132 326 126 411 q 161 206 137 240 q 275 133 199 155 q 410 115 351 111 q 469 133 468 119 q 467 792 481 517 q 519 808 467 802 q 575 795 572 814 q 602 306 593 560 q 602 34 610 52 q 499 -1 591 7 q 289 16 407 -9 q 137 79 212 34 q 53 170 62 125 q 36 245 45 209 q 24 290 27 282 q 19 318 22 297 q 17 347 16 339 q 18 393 18 355 q 20 469 19 430 q 22 593 22 507 q 22 780 22 678 z "},"":{"ha":791,"x_min":26,"x_max":774,"o":"m 222 905 q 299 947 262 926 q 353 977 336 967 q 398 1000 369 986 q 469 1032 427 1015 q 571 1025 492 1043 q 609 1008 612 1016 q 605 1005 608 1006 q 320 869 430 926 q 237 876 289 854 q 222 905 202 892 m 27 785 q 36 817 16 796 q 81 849 56 837 q 114 854 107 861 q 264 694 189 779 q 373 573 339 610 q 416 536 407 536 q 515 639 429 536 q 703 872 602 742 q 734 877 715 883 q 768 853 754 871 q 774 822 783 836 q 614 594 689 692 q 509 462 540 496 q 477 425 477 427 l 477 39 q 426 1 477 18 q 366 5 372 -15 q 366 8 366 7 q 366 178 369 84 q 357 333 362 273 q 350 403 353 393 q 295 496 334 450 q 175 623 256 541 q 27 785 94 705 z "},"":{"ha":796,"x_min":14,"x_max":773,"o":"m 254 723 l 251 506 q 532 500 422 477 q 642 595 642 524 q 604 661 642 633 q 505 701 567 688 q 381 718 444 713 q 254 723 319 723 m 50 926 q 163 925 103 926 q 262 924 222 924 q 267 916 266 924 q 267 897 267 909 q 264 871 266 884 q 262 842 263 859 q 259 815 260 826 q 311 813 271 814 q 362 812 351 812 q 406 809 373 811 q 450 805 438 807 q 490 800 463 803 q 534 791 518 796 q 574 780 551 787 q 621 764 598 773 q 666 745 643 755 q 751 673 722 718 q 772 574 780 629 q 620 416 757 460 q 488 389 555 395 q 368 387 420 382 q 251 406 316 392 q 248 275 250 354 q 245 138 247 195 q 243 34 243 81 q 216 6 241 15 q 164 5 190 -3 q 140 31 138 12 q 145 401 140 138 q 151 815 151 663 q 39 815 151 821 q 14 842 19 814 q 21 898 9 869 q 50 926 33 926 z "},"":{"ha":628,"x_min":28,"x_max":589,"o":"m 30 9 q 35 793 30 784 q 126 873 68 849 q 245 887 184 897 q 359 851 305 878 q 448 780 414 825 q 480 688 481 735 q 467 626 477 654 q 443 580 456 598 q 404 542 430 562 q 362 512 378 522 q 315 486 346 502 q 304 479 307 481 q 416 430 362 461 q 515 356 471 399 q 581 256 560 313 q 589 140 602 199 q 557 76 579 102 q 507 38 534 50 q 437 20 479 26 q 361 13 396 14 q 277 12 327 12 q 195 9 227 11 q 170 34 176 7 q 171 87 163 61 q 198 110 179 113 q 319 102 259 102 q 427 120 380 102 q 480 172 473 138 q 461 262 488 221 q 389 330 434 302 q 296 380 343 357 q 215 427 250 403 q 179 473 180 450 q 208 522 178 496 q 276 566 239 547 q 346 615 313 585 q 380 677 378 646 q 349 737 380 707 q 277 783 319 768 q 191 787 236 799 q 122 728 145 774 q 119 9 119 9 q 75 -6 119 -8 q 30 9 30 -4 z "},"":{"ha":583,"x_min":19,"x_max":562,"o":"m 122 713 q 133 723 114 718 q 241 731 187 736 q 254 728 250 731 q 330 685 286 709 q 404 644 374 661 q 456 613 433 628 q 437 582 471 604 q 380 570 400 557 q 122 713 221 665 m 448 256 q 315 271 373 271 q 222 259 266 271 q 155 220 182 245 q 127 164 127 195 l 127 160 q 237 94 132 94 l 255 94 q 342 103 292 96 q 428 117 392 110 q 464 126 464 123 q 448 256 464 254 m 113 486 q 302 541 184 541 q 334 540 323 541 q 417 523 382 536 q 472 488 452 510 q 503 447 492 465 q 525 399 514 429 q 550 210 538 365 q 562 18 562 56 q 525 -1 562 -1 q 477 12 496 -1 q 477 24 476 12 q 472 49 477 49 q 399 20 456 37 q 264 -4 342 4 q 256 -5 262 -4 q 245 -5 250 -5 q 97 36 170 -5 q 19 149 24 77 l 19 160 q 50 250 19 209 q 117 312 81 292 q 186 340 153 332 q 270 349 224 349 q 382 341 316 349 q 452 334 448 334 l 457 334 l 458 335 q 426 422 446 396 q 366 461 406 448 q 305 469 339 469 q 122 420 213 469 q 113 418 117 418 q 95 446 95 418 q 113 486 95 472 z "},"":{"ha":583,"x_min":19,"x_max":562,"o":"m 127 591 q 373 713 278 671 q 460 708 397 724 q 487 693 487 700 q 481 689 486 692 q 218 563 335 623 q 141 564 189 548 q 127 591 109 579 m 448 256 q 315 271 373 271 q 222 259 266 271 q 155 220 182 245 q 127 164 127 195 l 127 160 q 237 94 132 94 l 255 94 q 342 103 292 96 q 428 117 392 110 q 464 126 464 123 q 448 256 464 254 m 113 486 q 302 541 184 541 q 334 540 323 541 q 417 523 382 536 q 472 488 452 510 q 503 447 492 465 q 525 399 514 429 q 550 210 538 365 q 562 18 562 56 q 525 -1 562 -1 q 477 12 496 -1 q 477 24 476 12 q 472 49 477 49 q 399 20 456 37 q 264 -4 342 4 q 256 -5 262 -4 q 245 -5 250 -5 q 97 36 170 -5 q 19 149 24 77 l 19 160 q 50 250 19 209 q 117 312 81 292 q 186 340 153 332 q 270 349 224 349 q 382 341 316 349 q 452 334 448 334 l 457 334 l 458 335 q 426 422 446 396 q 366 461 406 448 q 305 469 339 469 q 122 420 213 469 q 113 418 117 418 q 95 446 95 418 q 113 486 95 472 z "},"":{"ha":583,"x_min":19,"x_max":562,"o":"m 134 590 q 248 712 216 681 q 298 743 281 743 q 461 578 338 743 q 455 550 473 562 q 415 541 437 538 q 386 562 404 543 q 341 615 368 582 q 298 666 315 648 q 254 625 281 650 q 209 582 228 601 q 174 547 190 563 q 152 545 165 537 q 133 566 138 552 q 134 590 127 579 m 448 256 q 315 271 373 271 q 222 259 266 271 q 155 220 182 245 q 127 164 127 195 l 127 160 q 237 94 132 94 l 255 94 q 342 103 292 96 q 428 117 392 110 q 464 126 464 123 q 448 256 464 254 m 113 486 q 302 541 184 541 q 334 540 323 541 q 417 523 382 536 q 472 488 452 510 q 503 447 492 465 q 525 399 514 429 q 550 210 538 365 q 562 18 562 56 q 525 -1 562 -1 q 477 12 496 -1 q 477 24 476 12 q 472 49 477 49 q 399 20 456 37 q 264 -4 342 4 q 256 -5 262 -4 q 245 -5 250 -5 q 97 36 170 -5 q 19 149 24 77 l 19 160 q 50 250 19 209 q 117 312 81 292 q 186 340 153 332 q 270 349 224 349 q 382 341 316 349 q 452 334 448 334 l 457 334 l 458 335 q 426 422 446 396 q 366 461 406 448 q 305 469 339 469 q 122 420 213 469 q 113 418 117 418 q 95 446 95 418 q 113 486 95 472 z "},"":{"ha":583,"x_min":19,"x_max":562,"o":"m 87 613 q 104 654 98 640 q 121 688 110 669 q 149 716 133 707 q 186 727 165 726 q 258 717 225 730 q 330 677 290 704 q 400 639 369 651 q 425 646 415 633 q 447 677 435 659 q 473 700 458 696 q 509 693 491 704 q 522 667 528 682 q 484 593 506 620 q 426 567 463 567 q 313 619 378 567 q 199 669 248 671 q 170 652 182 667 q 155 617 159 636 q 143 579 152 598 q 121 553 134 560 q 106 562 117 552 q 90 586 96 571 q 87 613 83 601 m 448 256 q 315 271 373 271 q 222 259 266 271 q 155 220 182 245 q 127 164 127 195 l 127 160 q 237 94 132 94 l 255 94 q 342 103 292 96 q 428 117 392 110 q 464 126 464 123 q 448 256 464 254 m 113 486 q 302 541 184 541 q 334 540 323 541 q 417 523 382 536 q 472 488 452 510 q 503 447 492 465 q 525 399 514 429 q 550 210 538 365 q 562 18 562 56 q 525 -1 562 -1 q 477 12 496 -1 q 477 24 476 12 q 472 49 477 49 q 399 20 456 37 q 264 -4 342 4 q 256 -5 262 -4 q 245 -5 250 -5 q 97 36 170 -5 q 19 149 24 77 l 19 160 q 50 250 19 209 q 117 312 81 292 q 186 340 153 332 q 270 349 224 349 q 382 341 316 349 q 452 334 448 334 l 457 334 l 458 335 q 426 422 446 396 q 366 461 406 448 q 305 469 339 469 q 122 420 213 469 q 113 418 117 418 q 95 446 95 418 q 113 486 95 472 z "},"":{"ha":583,"x_min":19,"x_max":562,"o":"m 332 665 q 377 686 347 686 q 420 665 407 686 q 416 620 433 644 q 374 595 399 595 q 334 621 350 595 q 332 665 319 646 m 153 656 q 194 683 163 681 q 243 666 225 685 q 248 623 259 650 q 214 593 237 595 q 165 612 187 590 q 153 656 144 633 m 448 256 q 315 271 373 271 q 222 259 266 271 q 155 220 182 245 q 127 164 127 195 l 127 160 q 237 94 132 94 l 255 94 q 342 103 292 96 q 428 117 392 110 q 464 126 464 123 q 448 256 464 254 m 113 486 q 302 541 184 541 q 334 540 323 541 q 417 523 382 536 q 472 488 452 510 q 503 447 492 465 q 525 399 514 429 q 550 210 538 365 q 562 18 562 56 q 525 -1 562 -1 q 477 12 496 -1 q 477 24 476 12 q 472 49 477 49 q 399 20 456 37 q 264 -4 342 4 q 256 -5 262 -4 q 245 -5 250 -5 q 97 36 170 -5 q 19 149 24 77 l 19 160 q 50 250 19 209 q 117 312 81 292 q 186 340 153 332 q 270 349 224 349 q 382 341 316 349 q 452 334 448 334 l 457 334 l 458 335 q 426 422 446 396 q 366 461 406 448 q 305 469 339 469 q 122 420 213 469 q 113 418 117 418 q 95 446 95 418 q 113 486 95 472 z "},"":{"ha":583,"x_min":19,"x_max":562,"o":"m 330 682 q 281 681 308 694 q 254 642 255 667 q 278 603 252 617 q 326 601 304 589 q 349 641 347 612 q 330 682 350 670 m 195 594 q 205 689 165 636 q 300 743 244 742 q 394 692 354 745 q 404 598 434 640 q 300 547 369 548 q 195 594 231 545 m 448 256 q 315 271 373 271 q 222 259 266 271 q 155 220 182 245 q 127 164 127 195 l 127 160 q 237 94 132 94 l 255 94 q 342 103 292 96 q 428 117 392 110 q 464 126 464 123 q 448 256 464 254 m 113 486 q 302 541 184 541 q 334 540 323 541 q 417 523 382 536 q 472 488 452 510 q 503 447 492 465 q 525 399 514 429 q 550 210 538 365 q 562 18 562 56 q 525 -1 562 -1 q 477 12 496 -1 q 477 24 476 12 q 472 49 477 49 q 399 20 456 37 q 264 -4 342 4 q 256 -5 262 -4 q 245 -5 250 -5 q 97 36 170 -5 q 19 149 24 77 l 19 160 q 50 250 19 209 q 117 312 81 292 q 186 340 153 332 q 270 349 224 349 q 382 341 316 349 q 452 334 448 334 l 457 334 l 458 335 q 426 422 446 396 q 366 461 406 448 q 305 469 339 469 q 122 420 213 469 q 113 418 117 418 q 95 446 95 418 q 113 486 95 472 z "},"":{"ha":958,"x_min":30,"x_max":936,"o":"m 555 278 q 610 296 578 286 q 663 311 643 305 q 706 326 682 316 q 744 347 730 336 q 771 377 758 358 q 791 422 784 396 q 743 469 802 465 q 606 438 675 475 q 595 433 600 435 q 549 374 557 410 q 555 278 541 338 m 400 305 q 307 297 351 304 q 215 275 262 290 q 144 231 168 260 q 129 159 121 201 q 427 159 151 39 l 400 305 m 69 519 q 189 560 136 551 q 311 560 241 570 q 382 529 342 555 q 448 481 422 503 q 476 463 473 460 q 807 557 675 595 q 887 470 867 540 q 872 346 907 400 q 837 300 856 320 q 792 265 818 279 q 749 242 766 251 q 695 224 731 233 q 644 213 659 216 q 585 202 628 210 q 671 144 621 163 q 768 130 722 126 q 854 144 815 133 q 918 172 894 155 q 936 160 937 186 q 899 76 933 119 q 872 53 886 58 q 750 33 814 28 q 640 54 686 38 q 555 87 593 71 q 511 102 517 103 q 450 73 505 100 q 326 24 395 46 q 202 7 258 3 q 90 46 136 12 q 31 140 43 80 q 45 248 18 198 q 132 330 73 298 q 205 362 168 350 q 288 386 241 374 q 368 408 335 397 q 347 444 358 429 q 321 469 336 460 q 294 484 307 477 q 260 490 282 490 q 225 489 239 490 q 183 482 212 488 q 140 472 155 476 q 94 460 126 468 q 63 483 75 454 q 69 519 52 511 z "},"":{"ha":522,"x_min":19,"x_max":511,"o":"m 262 8 q 193 25 214 19 q 143 47 172 31 q 90 90 114 64 q 19 270 19 165 q 123 494 19 425 q 223 538 171 525 q 317 550 275 551 q 431 541 359 549 q 446 518 445 538 q 437 478 446 498 q 419 460 427 458 q 190 438 256 487 q 127 339 145 406 q 117 239 110 273 q 170 141 132 171 q 267 96 208 111 q 406 92 326 81 q 488 102 487 102 q 511 30 507 98 q 488 -85 514 -38 q 459 -120 475 -107 q 419 -141 444 -133 q 380 -152 395 -149 q 331 -159 365 -155 q 214 -123 273 -167 q 207 -98 205 -114 q 221 -70 209 -83 q 244 -61 233 -57 q 358 -72 307 -92 q 374 -66 362 -71 q 389 -60 385 -62 q 401 -54 393 -58 q 413 -44 410 -49 q 420 -31 416 -39 q 427 -13 425 -23 q 429 12 429 -3 q 399 10 429 14 q 333 4 370 7 q 262 8 296 1 z "},"":{"ha":642,"x_min":22,"x_max":625,"o":"m 122 713 q 133 723 114 718 q 241 731 187 736 q 254 728 250 731 q 330 685 286 709 q 404 644 374 661 q 456 613 433 628 q 437 582 471 604 q 380 570 400 557 q 122 713 221 665 m 491 347 q 446 420 490 393 q 342 450 401 448 q 257 423 305 452 q 170 355 209 395 q 133 293 151 336 q 132 286 130 286 q 141 297 133 286 q 241 317 152 312 q 410 326 330 321 q 491 347 491 331 m 547 267 q 324 218 502 240 q 125 212 146 197 q 118 209 117 217 q 161 146 125 186 q 186 127 175 133 q 366 83 273 81 q 570 136 467 84 q 602 127 583 142 q 625 93 620 111 q 617 64 629 75 q 430 0 526 11 q 189 16 321 -12 q 83 65 137 27 q 22 159 28 103 q 39 312 11 245 q 136 442 66 378 q 442 514 270 567 q 524 460 486 502 q 567 372 562 418 q 574 313 575 343 q 547 267 572 283 z "},"":{"ha":642,"x_min":22,"x_max":625,"o":"m 130 581 q 185 610 151 591 q 229 633 220 628 q 257 648 237 637 q 290 664 277 658 q 324 680 304 670 q 376 703 345 689 q 463 697 399 713 q 488 682 490 689 q 484 678 488 681 q 221 552 338 612 q 144 553 191 537 q 130 581 110 568 m 491 347 q 446 420 490 393 q 342 450 401 448 q 257 423 305 452 q 170 355 209 395 q 133 293 151 336 q 132 286 130 286 q 141 297 133 286 q 241 317 152 312 q 410 326 330 321 q 491 347 491 331 m 547 267 q 324 218 502 240 q 125 212 146 197 q 118 209 117 217 q 161 146 125 186 q 186 127 175 133 q 366 83 273 81 q 570 136 467 84 q 602 127 583 142 q 625 93 620 111 q 617 64 629 75 q 430 0 526 11 q 189 16 321 -12 q 83 65 137 27 q 22 159 28 103 q 39 312 11 245 q 136 442 66 378 q 442 514 270 567 q 524 460 486 502 q 567 372 562 418 q 574 313 575 343 q 547 267 572 283 z "},"":{"ha":642,"x_min":22,"x_max":625,"o":"m 180 586 q 294 708 262 677 q 345 739 327 739 q 507 574 382 739 q 500 546 518 557 q 461 537 483 534 q 432 558 450 538 q 387 611 414 578 q 345 662 359 644 q 300 621 327 646 q 254 578 274 597 q 220 543 235 559 q 197 541 210 533 q 178 562 183 548 q 180 586 174 575 m 491 347 q 446 420 490 393 q 342 450 401 448 q 257 423 305 452 q 170 355 209 395 q 133 293 151 336 q 132 286 130 286 q 141 297 133 286 q 241 317 152 312 q 410 326 330 321 q 491 347 491 331 m 547 267 q 324 218 502 240 q 125 212 146 197 q 118 209 117 217 q 161 146 125 186 q 186 127 175 133 q 366 83 273 81 q 570 136 467 84 q 602 127 583 142 q 625 93 620 111 q 617 64 629 75 q 430 0 526 11 q 189 16 321 -12 q 83 65 137 27 q 22 159 28 103 q 39 312 11 245 q 136 442 66 378 q 442 514 270 567 q 524 460 486 502 q 567 372 562 418 q 574 313 575 343 q 547 267 572 283 z "},"":{"ha":642,"x_min":22,"x_max":625,"o":"m 361 643 q 405 665 374 665 q 449 643 435 665 q 444 598 461 623 q 403 574 427 574 q 363 599 378 574 q 361 643 347 624 m 182 635 q 222 661 191 659 q 271 644 252 663 q 276 601 286 628 q 243 571 266 574 q 194 590 216 568 q 182 635 172 612 m 491 347 q 446 420 490 393 q 342 450 401 448 q 257 423 305 452 q 170 355 209 395 q 133 293 151 336 q 132 286 130 286 q 141 297 133 286 q 241 317 152 312 q 410 326 330 321 q 491 347 491 331 m 547 267 q 324 218 502 240 q 125 212 146 197 q 118 209 117 217 q 161 146 125 186 q 186 127 175 133 q 366 83 273 81 q 570 136 467 84 q 602 127 583 142 q 625 93 620 111 q 617 64 629 75 q 430 0 526 11 q 189 16 321 -12 q 83 65 137 27 q 22 159 28 103 q 39 312 11 245 q 136 442 66 378 q 442 514 270 567 q 524 460 486 502 q 567 372 562 418 q 574 313 575 343 q 547 267 572 283 z "},"":{"ha":297,"x_min":9,"x_max":343,"o":"m 9 768 q 20 776 1 772 q 129 785 75 791 q 141 783 137 784 q 218 739 174 764 q 291 698 262 715 q 343 667 320 681 q 324 636 358 658 q 268 623 288 612 q 214 655 248 635 q 163 686 180 675 q 105 718 145 696 q 9 768 65 739 m 111 547 q 134 568 111 563 q 178 564 156 572 q 199 538 199 555 q 196 362 198 472 q 193 211 194 252 q 194 39 193 170 q 173 7 194 19 q 133 -3 152 -5 q 104 18 122 -1 q 88 58 87 37 q 111 547 95 236 z "},"":{"ha":315,"x_min":-19,"x_max":340,"o":"m -19 665 q 227 787 132 745 q 313 781 251 798 q 340 766 340 773 q 335 762 339 765 q 72 636 189 696 q -5 637 42 621 q -19 665 -38 652 m 99 544 q 121 565 99 560 q 165 561 144 570 q 187 536 187 552 q 182 37 182 81 q 161 4 182 16 q 121 -5 140 -8 q 92 16 110 -4 q 76 56 75 35 q 99 544 83 233 z "},"":{"ha":289,"x_min":-22,"x_max":308,"o":"m -19 606 q 95 728 62 696 q 145 760 127 760 q 308 594 184 760 q 302 566 320 578 q 262 557 283 553 q 233 578 251 559 q 188 631 214 597 q 145 682 161 665 q 101 641 127 666 q 56 597 75 616 q 20 563 37 579 q -1 561 12 553 q -20 582 -15 568 q -19 606 -26 595 m 94 545 q 116 566 94 562 q 160 562 138 571 q 182 537 182 553 q 178 361 180 471 q 176 210 176 251 q 176 38 175 168 q 155 5 176 18 q 115 -4 134 -7 q 87 16 104 -3 q 71 57 69 35 q 94 545 77 235 z "},"":{"ha":228,"x_min":-19,"x_max":248,"o":"m 160 661 q 205 682 175 681 q 248 661 235 682 q 243 616 260 640 q 202 591 227 591 q 162 616 178 591 q 160 661 146 640 m -19 652 q 22 678 -9 675 q 71 662 53 681 q 76 617 87 644 q 42 589 65 590 q -7 607 15 586 q -19 652 -28 628 m 73 544 q 96 565 73 560 q 140 561 118 570 q 161 536 161 552 q 158 359 160 469 q 155 208 156 250 q 156 37 155 167 q 135 4 156 16 q 95 -5 114 -8 q 66 15 84 -4 q 50 56 49 34 q 73 544 57 233 z "},"":{"ha":673,"x_min":23,"x_max":718,"o":"m 441 454 q 401 456 439 454 q 320 452 362 457 q 250 430 278 446 q 160 363 191 397 q 122 275 129 328 q 139 177 115 221 q 212 111 163 133 q 243 100 228 104 q 278 94 258 95 q 309 92 298 92 q 347 92 319 91 q 384 92 374 92 q 484 110 484 92 q 475 297 484 180 q 464 464 467 414 q 456 467 463 475 q 441 454 446 454 m 555 684 q 589 77 586 148 q 532 31 590 50 q 403 5 475 12 q 64 119 180 -16 q 24 222 28 160 q 45 345 19 283 q 125 447 69 403 q 225 506 182 491 q 311 521 258 517 q 399 523 365 525 q 441 519 433 521 q 454 514 448 519 q 460 518 460 515 q 458 684 460 640 q 450 691 458 689 q 423 693 441 693 q 386 692 406 693 q 335 690 366 692 q 278 689 304 689 q 253 711 262 689 q 248 754 244 732 q 267 776 251 776 q 323 775 293 776 q 376 772 354 774 q 417 770 397 770 q 447 770 437 769 q 457 773 457 770 q 450 892 457 783 q 473 917 450 909 q 520 919 496 925 q 544 895 544 913 q 547 849 545 886 q 551 779 549 812 q 560 776 551 777 q 587 775 570 774 q 621 777 605 776 q 661 780 637 779 q 693 781 684 781 q 717 761 711 783 q 715 715 723 739 q 690 689 708 692 q 654 688 673 688 q 617 689 635 688 q 585 691 600 690 q 563 690 571 692 q 555 684 555 689 z "},"":{"ha":632,"x_min":19,"x_max":612,"o":"m 57 635 q 74 676 68 662 q 92 709 80 690 q 120 738 104 728 q 156 749 136 747 q 229 739 197 751 q 301 699 262 726 q 370 661 340 673 q 395 668 385 655 q 418 699 406 681 q 444 722 430 718 q 480 715 463 726 q 492 689 498 704 q 454 615 476 642 q 396 589 433 589 q 334 605 365 589 q 283 641 304 621 q 233 676 263 661 q 170 690 202 692 q 141 673 152 689 q 126 639 130 658 q 114 601 122 620 q 92 575 106 582 q 77 583 87 574 q 60 608 66 593 q 57 635 53 623 m 19 37 q 22 283 20 83 q 24 519 23 484 q 142 555 26 547 q 342 547 259 564 q 479 494 426 529 q 570 389 533 458 q 612 24 597 336 q 586 -1 612 7 q 533 -4 560 -9 q 506 19 506 1 q 505 79 506 26 q 502 168 503 133 q 492 256 500 202 q 472 353 484 311 q 339 458 449 431 q 217 469 294 469 q 136 456 140 469 q 132 352 133 449 q 130 142 130 255 q 127 5 129 30 q 100 -9 127 -8 q 45 3 72 -9 q 19 37 19 16 z "},"":{"ha":700,"x_min":14,"x_max":685,"o":"m 159 745 q 170 754 151 749 q 278 762 225 768 q 290 760 288 762 q 368 716 323 741 q 441 675 412 692 q 492 644 471 659 q 475 613 509 635 q 417 601 437 589 q 364 633 397 613 q 313 664 331 654 q 256 695 296 674 q 159 745 216 716 m 133 297 q 170 144 113 189 q 425 85 283 53 q 581 241 570 121 q 495 420 591 350 q 368 466 441 460 q 224 438 294 472 q 163 382 183 416 q 133 297 142 349 m 42 400 q 351 559 129 559 q 637 400 543 559 q 684 207 696 305 q 594 56 673 109 q 319 -5 484 -16 q 85 83 155 5 q 22 202 38 137 q 14 315 5 267 q 42 400 22 362 z "},"":{"ha":700,"x_min":14,"x_max":685,"o":"m 168 624 q 223 653 189 635 q 267 676 258 671 q 296 691 275 681 q 330 707 316 701 q 363 723 343 713 q 414 746 384 732 q 500 741 438 757 q 528 726 529 732 q 522 722 528 724 q 259 595 376 655 q 182 597 229 581 q 168 624 149 612 m 133 297 q 170 144 113 189 q 425 85 283 53 q 581 241 570 121 q 495 420 591 350 q 368 466 441 460 q 224 438 294 472 q 163 382 183 416 q 133 297 142 349 m 42 400 q 351 559 129 559 q 637 400 543 559 q 684 207 696 305 q 594 56 673 109 q 319 -5 484 -16 q 85 83 155 5 q 22 202 38 137 q 14 315 5 267 q 42 400 22 362 z "},"":{"ha":700,"x_min":14,"x_max":685,"o":"m 186 621 q 300 743 267 712 q 350 774 332 774 q 513 609 389 774 q 507 581 525 593 q 467 572 490 570 q 438 593 456 574 q 393 646 420 613 q 350 697 366 680 q 307 656 334 681 q 260 613 279 632 q 225 578 241 594 q 203 576 217 568 q 185 597 190 583 q 186 621 180 610 m 133 297 q 170 144 113 189 q 425 85 283 53 q 581 241 570 121 q 495 420 591 350 q 368 466 441 460 q 224 438 294 472 q 163 382 183 416 q 133 297 142 349 m 42 400 q 351 559 129 559 q 637 400 543 559 q 684 207 696 305 q 594 56 673 109 q 319 -5 484 -16 q 85 83 155 5 q 22 202 38 137 q 14 315 5 267 q 42 400 22 362 z "},"":{"ha":700,"x_min":14,"x_max":685,"o":"m 130 632 q 147 673 141 659 q 165 707 153 688 q 193 735 178 726 q 229 746 209 745 q 302 736 270 749 q 374 696 335 723 q 444 658 414 670 q 469 665 458 652 q 491 696 479 678 q 517 719 503 715 q 553 712 536 723 q 566 686 571 701 q 528 612 549 639 q 469 586 506 586 q 408 602 438 586 q 357 638 377 618 q 306 673 336 658 q 243 688 275 689 q 214 671 225 686 q 199 636 203 655 q 187 598 195 617 q 165 572 179 579 q 150 581 160 571 q 133 605 140 590 q 130 632 126 620 m 133 297 q 170 144 113 189 q 425 85 283 53 q 581 241 570 121 q 495 420 591 350 q 368 466 441 460 q 224 438 294 472 q 163 382 183 416 q 133 297 142 349 m 42 400 q 351 559 129 559 q 637 400 543 559 q 684 207 696 305 q 594 56 673 109 q 319 -5 484 -16 q 85 83 155 5 q 22 202 38 137 q 14 315 5 267 q 42 400 22 362 z "},"":{"ha":700,"x_min":14,"x_max":685,"o":"m 369 666 q 414 688 384 688 q 457 666 444 688 q 454 621 471 646 q 411 597 437 597 q 372 621 388 597 q 369 666 357 646 m 190 658 q 231 684 199 681 q 279 667 262 686 q 285 623 296 650 q 251 594 274 595 q 203 612 225 591 q 190 658 182 633 m 133 297 q 170 144 113 189 q 425 85 283 53 q 581 241 570 121 q 495 420 591 350 q 368 466 441 460 q 224 438 294 472 q 163 382 183 416 q 133 297 142 349 m 42 400 q 351 559 129 559 q 637 400 543 559 q 684 207 696 305 q 594 56 673 109 q 319 -5 484 -16 q 85 83 155 5 q 22 202 38 137 q 14 315 5 267 q 42 400 22 362 z "},"":{"ha":697,"x_min":12,"x_max":693,"o":"m 290 256 q 337 297 300 288 q 401 286 374 307 q 412 233 423 267 q 372 191 400 198 q 311 205 340 183 q 290 256 281 228 m 309 699 q 353 723 320 722 q 399 701 387 724 q 397 639 412 671 q 353 606 382 606 q 309 637 323 605 q 309 699 296 670 m 41 500 q 364 495 186 500 q 670 490 543 490 q 692 467 686 490 q 689 420 697 444 q 665 397 681 397 q 382 392 556 396 q 49 387 208 388 q 16 414 27 385 q 12 471 5 442 q 41 500 19 500 z "},"":{"ha":728,"x_min":1,"x_max":712,"o":"m 262 442 q 217 407 235 429 q 193 369 199 385 q 175 315 187 353 q 168 248 164 281 q 184 195 171 216 l 507 446 q 441 470 480 463 q 354 471 403 477 q 262 442 305 465 m 463 90 q 572 147 532 111 q 618 245 613 183 q 618 298 623 277 q 609 328 613 320 q 587 357 605 336 q 563 385 568 378 l 224 122 q 330 80 264 90 q 463 90 395 71 m 149 76 q 136 71 148 79 q 101 44 125 62 q 58 12 77 26 q 11 31 39 -1 q 3 75 -15 62 q 66 115 34 92 q 96 142 98 138 q 76 281 73 209 q 100 393 79 353 q 212 512 145 476 q 385 557 279 548 q 492 541 433 562 q 572 502 552 521 q 677 582 648 556 q 709 559 690 595 q 712 506 730 518 q 684 487 696 495 q 657 467 673 479 q 633 450 642 456 q 625 442 624 444 q 700 318 680 395 q 700 170 720 241 q 628 64 680 99 q 454 7 560 18 q 262 17 349 -4 q 149 76 175 38 z "},"":{"ha":571,"x_min":22,"x_max":551,"o":"m 61 705 q 72 713 53 709 q 179 723 126 728 q 193 720 189 722 q 269 677 225 701 q 342 635 313 652 q 395 605 372 618 q 376 574 410 594 q 319 561 339 549 q 265 593 298 572 q 214 623 232 613 q 157 655 197 633 q 61 705 117 677 m 22 522 q 46 534 22 530 q 95 534 71 537 q 119 525 119 530 q 117 471 119 513 q 113 407 114 429 q 112 346 113 385 q 115 283 111 307 q 123 231 118 259 q 138 183 127 202 q 161 153 148 164 q 299 98 216 111 q 437 103 382 84 q 453 130 452 107 q 450 266 454 152 q 442 519 445 407 q 467 541 442 532 q 513 550 491 551 q 538 541 534 549 q 542 324 538 450 q 549 116 545 198 q 551 24 552 34 q 490 3 549 11 q 347 -1 431 -5 q 203 24 263 4 q 31 199 58 75 q 22 522 22 244 z "},"":{"ha":571,"x_min":22,"x_max":551,"o":"m 127 591 q 373 713 278 671 q 460 708 397 724 q 487 693 487 700 q 481 689 486 692 q 218 563 335 623 q 141 564 189 548 q 127 591 109 579 m 22 522 q 46 534 22 530 q 95 534 71 537 q 119 525 119 530 q 117 471 119 513 q 113 407 114 429 q 112 346 113 385 q 115 283 111 307 q 123 231 118 259 q 138 183 127 202 q 161 153 148 164 q 299 98 216 111 q 437 103 382 84 q 453 130 452 107 q 450 266 454 152 q 442 519 445 407 q 467 541 442 532 q 513 550 491 551 q 538 541 534 549 q 542 324 538 450 q 549 116 545 198 q 551 24 552 34 q 490 3 549 11 q 347 -1 431 -5 q 203 24 263 4 q 31 199 58 75 q 22 522 22 244 z "},"":{"ha":571,"x_min":22,"x_max":551,"o":"m 113 598 q 227 720 194 688 q 277 751 259 751 q 439 586 315 751 q 433 557 452 570 q 393 549 415 545 q 364 570 382 551 q 319 623 346 589 q 277 674 293 656 q 233 633 259 658 q 186 589 206 608 q 152 555 167 571 q 130 553 144 545 q 111 574 117 560 q 113 598 106 587 m 22 522 q 46 534 22 530 q 95 534 71 537 q 119 525 119 530 q 117 471 119 513 q 113 407 114 429 q 112 346 113 385 q 115 283 111 307 q 123 231 118 259 q 138 183 127 202 q 161 153 148 164 q 299 98 216 111 q 437 103 382 84 q 453 130 452 107 q 450 266 454 152 q 442 519 445 407 q 467 541 442 532 q 513 550 491 551 q 538 541 534 549 q 542 324 538 450 q 549 116 545 198 q 551 24 552 34 q 490 3 549 11 q 347 -1 431 -5 q 203 24 263 4 q 31 199 58 75 q 22 522 22 244 z "},"":{"ha":571,"x_min":22,"x_max":551,"o":"m 321 651 q 366 672 336 671 q 410 651 396 673 q 405 606 422 629 q 363 582 388 582 q 323 606 339 582 q 321 651 308 631 m 142 643 q 183 669 152 666 q 232 652 214 671 q 237 608 248 635 q 203 579 227 581 q 155 597 176 575 q 142 643 133 618 m 22 522 q 46 534 22 530 q 95 534 71 537 q 119 525 119 530 q 117 471 119 513 q 113 407 114 429 q 112 346 113 385 q 115 283 111 307 q 123 231 118 259 q 138 183 127 202 q 161 153 148 164 q 299 98 216 111 q 437 103 382 84 q 453 130 452 107 q 450 266 454 152 q 442 519 445 407 q 467 541 442 532 q 513 550 491 551 q 538 541 534 549 q 542 324 538 450 q 549 116 545 198 q 551 24 552 34 q 490 3 549 11 q 347 -1 431 -5 q 203 24 263 4 q 31 199 58 75 q 22 522 22 244 z "},"":{"ha":735,"x_min":19,"x_max":718,"o":"m 229 602 q 284 631 250 613 q 328 654 319 650 q 357 669 336 659 q 390 686 377 680 q 423 701 403 692 q 475 724 444 711 q 562 719 498 735 q 587 704 589 711 q 583 700 587 703 q 320 574 437 633 q 243 575 290 559 q 229 602 210 590 m 19 517 q 43 553 3 537 q 118 555 91 574 q 122 551 121 553 q 241 407 171 498 q 356 255 311 316 q 406 194 401 194 q 445 243 412 194 q 540 395 477 293 q 639 553 602 496 q 686 543 652 574 q 716 476 726 506 q 713 469 716 472 q 604 299 680 418 q 499 136 528 180 q 413 9 471 92 q 304 -144 355 -75 q 186 -294 252 -213 q 159 -279 172 -311 q 153 -231 145 -250 q 225 -94 176 -172 q 308 35 274 -16 q 339 95 342 87 q 19 517 323 141 z "},"":{"ha":796,"x_min":19,"x_max":779,"o":"m 260 354 l 258 137 q 538 132 429 109 q 648 227 648 155 q 610 292 648 264 q 511 332 572 319 q 387 349 449 345 q 260 354 326 354 m 57 557 q 169 556 109 557 q 269 555 229 555 q 272 547 271 555 q 272 528 273 540 q 270 503 271 515 q 267 473 269 490 q 266 446 266 457 q 317 444 278 445 q 368 443 357 444 q 411 440 378 442 q 456 436 444 438 q 496 431 469 434 q 540 422 524 427 q 581 411 556 418 q 627 395 605 404 q 673 376 648 387 q 757 304 728 349 q 779 205 785 260 q 627 47 762 91 q 494 20 562 26 q 374 18 426 14 q 258 37 323 23 q 250 -248 250 -248 q 222 -276 248 -267 q 171 -277 197 -285 q 146 -251 145 -270 q 152 79 146 -138 q 157 446 157 296 q 46 446 157 452 q 20 473 26 445 q 26 529 15 500 q 57 557 38 557 z "},"":{"ha":735,"x_min":19,"x_max":718,"o":"m 427 659 q 471 681 441 681 q 515 659 502 681 q 511 614 528 639 q 469 590 494 590 q 429 615 445 590 q 427 659 414 640 m 248 651 q 289 677 258 675 q 338 661 320 680 q 342 617 353 644 q 309 587 332 590 q 260 606 282 585 q 248 651 239 628 m 19 517 q 43 553 3 537 q 118 555 91 574 q 122 551 121 553 q 241 407 171 498 q 356 255 311 316 q 406 194 401 194 q 445 243 412 194 q 540 395 477 293 q 639 553 602 496 q 686 543 652 574 q 716 476 726 506 q 713 469 716 472 q 604 299 680 418 q 499 136 528 180 q 413 9 471 92 q 304 -144 355 -75 q 186 -294 252 -213 q 159 -279 172 -311 q 153 -231 145 -250 q 225 -94 176 -172 q 308 35 274 -16 q 339 95 342 87 q 19 517 323 141 z "},"":{"ha":880,"x_min":19,"x_max":859,"o":"m 273 1082 q 665 1084 518 1082 q 690 1064 682 1084 q 690 1024 699 1044 q 665 1002 682 1004 q 271 1000 419 998 q 246 1021 254 1000 q 246 1062 239 1042 q 273 1082 254 1082 m 19 53 q 123 241 60 130 q 237 447 187 351 q 342 663 288 543 q 366 716 351 684 q 388 767 380 749 q 407 810 396 785 q 425 847 418 834 q 441 873 433 860 q 458 892 450 887 q 472 898 465 898 q 500 889 488 898 q 520 863 513 880 q 532 828 528 845 q 541 785 536 811 q 551 745 547 760 q 581 658 559 716 q 634 517 602 600 q 681 395 666 434 q 756 227 709 317 q 831 84 803 137 q 859 24 860 31 q 808 -6 852 -1 q 642 -5 764 -11 q 363 3 481 1 q 359 38 338 3 q 419 83 389 77 q 471 82 441 83 q 528 81 502 81 q 583 79 553 80 q 633 79 612 79 q 673 80 655 79 q 699 84 690 81 q 705 92 708 87 q 597 345 643 231 q 469 647 477 639 q 440 622 461 654 q 387 524 419 590 q 319 387 354 458 q 238 220 285 315 q 156 56 191 125 q 73 23 138 22 q 18 46 20 24 q 19 53 18 49 z "},"":{"ha":583,"x_min":19,"x_max":562,"o":"m 103 746 q 495 747 349 746 q 521 728 513 747 q 521 688 529 708 q 495 666 513 667 q 102 663 250 662 q 77 684 84 663 q 77 726 69 705 q 103 746 84 746 m 448 256 q 315 271 373 271 q 222 259 266 271 q 155 220 182 245 q 127 164 127 195 l 127 160 q 237 94 132 94 q 255 94 237 94 q 342 103 292 96 q 428 117 392 110 q 464 126 464 123 q 448 256 464 254 m 113 486 q 302 541 184 541 q 334 540 323 541 q 417 523 382 536 q 472 488 452 510 q 503 447 492 465 q 525 399 514 429 q 550 210 538 365 q 562 18 562 56 q 525 -1 562 -1 q 477 12 496 -1 q 477 24 476 12 q 472 49 477 49 q 399 20 456 37 q 264 -4 342 4 q 256 -5 262 -4 q 245 -5 250 -5 q 97 36 170 -5 q 19 149 24 77 l 19 160 q 50 250 19 209 q 117 312 81 292 q 186 340 153 332 q 270 349 224 349 q 382 341 316 349 q 452 334 448 334 l 457 334 l 458 335 q 426 422 446 396 q 366 461 406 448 q 305 469 339 469 q 122 420 213 469 q 113 418 117 418 q 95 446 95 418 q 113 486 95 472 z "},"":{"ha":761,"x_min":19,"x_max":745,"o":"m 213 932 q 290 972 252 952 q 343 1002 327 993 q 389 1026 359 1012 q 460 1059 418 1040 q 562 1051 483 1069 q 598 1035 602 1042 q 595 1032 598 1034 q 311 897 420 952 q 228 902 279 880 q 213 932 193 918 m 567 838 q 632 795 600 841 q 639 755 655 760 q 473 714 591 755 q 289 602 355 673 q 220 519 252 564 q 158 398 187 473 q 136 255 129 323 q 336 100 148 126 q 381 98 359 98 q 422 99 403 98 q 461 106 441 100 q 497 117 481 111 q 534 132 513 122 q 570 148 556 141 q 607 165 585 155 q 644 183 629 176 q 698 189 662 190 q 745 183 734 187 q 724 134 761 178 q 694 106 709 117 q 551 37 655 77 q 363 -3 446 -3 q 137 64 241 -3 q 19 222 33 130 q 45 421 7 301 q 164 631 84 541 q 356 777 248 724 q 567 838 464 830 z "},"":{"ha":522,"x_min":19,"x_max":495,"o":"m 84 675 q 161 716 123 696 q 214 746 198 736 q 260 770 231 755 q 331 803 289 784 q 433 795 354 812 q 469 779 473 785 q 467 776 469 777 q 182 640 292 696 q 99 646 151 624 q 84 675 64 662 m 378 562 q 393 541 393 562 q 385 499 393 519 q 366 480 376 479 q 323 481 355 479 q 241 471 292 483 q 164 433 190 458 q 118 336 127 397 q 117 239 109 274 q 170 141 132 171 q 267 96 208 111 q 406 92 326 81 q 488 102 487 102 q 505 62 503 98 q 495 22 506 26 q 400 5 465 11 q 262 8 335 -1 q 163 35 201 18 q 90 90 125 52 q 19 270 19 165 q 34 399 19 349 q 98 488 49 449 q 220 552 159 538 q 378 562 282 566 z "},"":{"ha":761,"x_min":19,"x_max":745,"o":"m 218 927 q 250 955 232 939 q 277 980 267 971 q 302 1002 288 990 q 324 1022 316 1015 q 342 1038 332 1029 q 359 1051 353 1046 q 374 1059 366 1055 q 386 1065 381 1064 q 395 1067 391 1067 q 461 1028 414 1067 q 571 923 509 990 q 560 898 583 910 q 514 888 537 886 q 486 905 503 889 q 441 948 468 921 q 397 988 414 974 q 354 956 381 975 q 308 921 327 936 q 273 893 289 906 q 247 891 262 886 q 221 908 232 896 q 218 927 210 920 m 567 838 q 632 795 600 841 q 639 755 655 760 q 473 714 591 755 q 289 602 355 673 q 220 519 252 564 q 158 398 187 473 q 136 255 129 323 q 336 100 148 126 q 381 98 359 98 q 422 99 403 98 q 461 106 441 100 q 497 117 481 111 q 534 132 513 122 q 570 148 556 141 q 607 165 585 155 q 644 183 629 176 q 698 189 662 190 q 745 183 734 187 q 724 134 761 178 q 694 106 709 117 q 551 37 655 77 q 363 -3 446 -3 q 137 64 241 -3 q 19 222 33 130 q 45 421 7 301 q 164 631 84 541 q 356 777 248 724 q 567 838 464 830 z "},"":{"ha":522,"x_min":19,"x_max":495,"o":"m 85 681 q 117 715 99 696 q 144 747 134 735 q 169 774 155 758 q 191 798 183 789 q 210 818 199 807 q 227 834 220 829 q 241 845 233 840 q 253 852 248 850 q 262 854 258 854 q 328 806 281 854 q 438 675 376 758 q 427 644 450 659 q 381 632 404 629 q 353 653 370 633 q 308 706 335 673 q 264 757 281 739 q 221 716 248 741 q 175 673 194 692 q 140 637 156 654 q 114 635 129 629 q 88 656 99 642 q 85 681 77 671 m 378 562 q 393 541 393 562 q 385 499 393 519 q 366 480 376 479 q 323 481 355 479 q 241 471 292 483 q 164 433 190 458 q 118 336 127 397 q 117 239 109 274 q 170 141 132 171 q 267 96 208 111 q 406 92 326 81 q 488 102 487 102 q 505 62 503 98 q 495 22 506 26 q 400 5 465 11 q 262 8 335 -1 q 163 35 201 18 q 90 90 125 52 q 19 270 19 165 q 34 399 19 349 q 98 488 49 449 q 220 552 159 538 q 378 562 282 566 z "},"":{"ha":761,"x_min":19,"x_max":745,"o":"m 330 941 q 380 989 334 971 q 438 998 427 1006 q 458 940 465 975 q 422 890 452 905 q 359 893 393 875 q 330 941 324 911 m 567 838 q 632 795 600 841 q 639 755 655 760 q 473 714 591 755 q 289 602 355 673 q 220 519 252 564 q 158 398 187 473 q 136 255 129 323 q 336 100 148 126 q 381 98 359 98 q 422 99 403 98 q 461 106 441 100 q 497 117 481 111 q 534 132 513 122 q 570 148 556 141 q 607 165 585 155 q 644 183 629 176 q 698 189 662 190 q 745 183 734 187 q 724 134 761 178 q 694 106 709 117 q 551 37 655 77 q 363 -3 446 -3 q 137 64 241 -3 q 19 222 33 130 q 45 421 7 301 q 164 631 84 541 q 356 777 248 724 q 567 838 464 830 z "},"":{"ha":522,"x_min":19,"x_max":495,"o":"m 203 701 q 254 749 208 731 q 312 758 301 766 q 332 700 339 735 q 296 650 326 665 q 233 653 267 635 q 203 701 198 671 m 378 562 q 393 541 393 562 q 385 499 393 519 q 366 480 376 479 q 323 481 355 479 q 241 471 292 483 q 164 433 190 458 q 118 336 127 397 q 117 239 109 274 q 170 141 132 171 q 267 96 208 111 q 406 92 326 81 q 488 102 487 102 q 505 62 503 98 q 495 22 506 26 q 400 5 465 11 q 262 8 335 -1 q 163 35 201 18 q 90 90 125 52 q 19 270 19 165 q 34 399 19 349 q 98 488 49 449 q 220 552 159 538 q 378 562 282 566 z "},"":{"ha":761,"x_min":19,"x_max":745,"o":"m 197 1016 q 199 1040 189 1024 q 225 1061 210 1055 q 251 1059 240 1066 q 286 1023 267 1042 q 332 981 305 1005 q 376 940 359 956 q 419 990 392 956 q 464 1043 446 1024 q 492 1065 481 1062 q 538 1052 515 1067 q 549 1021 562 1036 q 440 890 488 939 q 373 842 392 842 q 364 844 369 842 q 353 852 359 846 q 339 863 346 857 q 322 879 332 868 q 303 899 312 890 q 281 922 294 907 q 256 949 267 937 q 228 981 245 962 q 197 1016 210 1001 m 567 838 q 632 795 600 841 q 639 755 655 760 q 473 714 591 755 q 289 602 355 673 q 220 519 252 564 q 158 398 187 473 q 136 255 129 323 q 336 100 148 126 q 381 98 359 98 q 422 99 403 98 q 461 106 441 100 q 497 117 481 111 q 534 132 513 122 q 570 148 556 141 q 607 165 585 155 q 644 183 629 176 q 698 189 662 190 q 745 183 734 187 q 724 134 761 178 q 694 106 709 117 q 551 37 655 77 q 363 -3 446 -3 q 137 64 241 -3 q 19 222 33 130 q 45 421 7 301 q 164 631 84 541 q 356 777 248 724 q 567 838 464 830 z "},"":{"ha":522,"x_min":19,"x_max":505,"o":"m 96 766 q 98 791 88 776 q 124 812 109 806 q 151 810 140 818 q 185 775 165 793 q 231 732 205 757 q 275 690 258 707 q 317 742 290 708 q 363 795 345 776 q 392 815 381 814 q 437 804 414 819 q 449 772 460 788 q 338 641 387 689 q 273 593 290 593 q 263 595 269 593 q 251 602 258 597 q 237 614 244 608 q 220 630 231 620 q 201 649 210 640 q 179 673 193 658 q 155 701 165 689 q 126 732 144 712 q 96 766 109 753 m 378 562 q 393 541 393 562 q 385 499 393 519 q 366 480 376 479 q 323 481 355 479 q 241 471 292 483 q 164 433 190 458 q 118 336 127 397 q 117 239 109 274 q 170 141 132 171 q 267 96 208 111 q 406 92 326 81 q 488 102 487 102 q 505 62 503 98 q 495 22 506 26 q 400 5 465 11 q 262 8 335 -1 q 163 35 201 18 q 90 90 125 52 q 19 270 19 165 q 34 399 19 349 q 98 488 49 449 q 220 552 159 538 q 378 562 282 566 z "},"":{"ha":814,"x_min":16,"x_max":795,"o":"m 140 1046 q 142 1069 132 1054 q 168 1090 153 1084 q 194 1089 183 1096 q 229 1053 210 1072 q 275 1010 248 1035 q 319 970 302 986 q 362 1020 335 986 q 407 1073 389 1054 q 435 1095 425 1092 q 481 1082 458 1097 q 492 1051 505 1066 q 382 920 430 968 q 316 872 335 872 q 307 874 312 872 q 295 882 302 876 q 281 892 288 887 q 264 908 274 898 q 245 928 254 918 q 223 952 237 937 q 199 979 209 967 q 171 1011 189 991 q 140 1046 153 1031 m 151 731 q 159 606 153 705 q 169 354 164 506 q 170 109 174 202 q 241 113 170 103 q 399 144 312 122 q 519 189 486 165 q 678 503 709 316 q 610 616 667 572 q 450 705 552 661 q 326 738 400 727 q 201 746 252 749 q 151 731 149 743 m 56 817 q 288 835 174 838 q 525 792 403 831 q 780 586 718 730 q 795 418 812 522 q 713 236 777 313 q 545 93 631 137 q 313 24 460 49 q 245 10 281 19 q 176 -2 209 1 q 80 -5 142 -5 q 16 39 49 -5 q 27 69 8 53 q 44 73 35 75 q 61 73 53 72 q 69 80 69 73 q 70 311 72 243 q 61 517 68 380 q 53 747 54 654 q 47 775 53 757 q 43 804 42 793 q 56 817 43 815 z "},"":{"ha":678,"x_min":45,"x_max":722,"o":"m 640 939 q 684 951 647 974 q 722 906 709 935 q 728 846 728 884 q 722 800 727 808 q 637 706 675 739 q 586 703 598 673 q 589 730 583 707 q 611 814 595 754 q 640 939 627 873 m 441 454 q 401 456 439 454 q 320 452 362 457 q 250 430 278 446 q 160 363 191 397 q 122 275 129 328 q 139 177 115 221 q 212 111 163 133 q 243 100 228 104 q 278 94 258 95 q 309 92 298 92 q 347 92 319 91 q 384 92 374 92 q 484 110 484 92 q 475 297 484 180 q 464 464 467 414 q 456 467 463 475 q 441 454 446 454 m 460 518 q 445 922 460 680 q 468 946 445 939 q 515 948 491 954 q 538 925 538 943 q 564 495 547 758 q 589 77 582 232 q 532 31 590 50 q 403 5 475 12 q 64 119 180 -16 q 24 222 28 160 q 45 345 19 283 q 125 446 69 401 q 225 506 182 491 q 311 521 258 517 q 399 523 365 525 q 441 519 433 521 q 454 514 448 519 q 460 518 460 515 z "},"":{"ha":814,"x_min":0,"x_max":780,"o":"m 167 396 q 170 109 171 130 q 241 113 170 103 q 399 144 312 122 q 519 189 486 165 q 678 503 709 316 q 610 617 667 572 q 450 705 552 662 q 326 738 400 727 q 201 746 252 749 q 151 731 149 743 q 153 689 151 726 q 158 595 155 652 q 164 494 161 538 q 401 507 164 480 q 429 484 420 510 q 432 432 438 458 q 407 404 426 406 q 302 401 365 401 q 203 399 239 400 q 167 396 167 399 m 62 491 q 58 605 62 514 q 53 747 54 696 q 47 775 53 757 q 43 804 42 793 q 56 817 43 815 q 288 835 174 838 q 525 792 403 831 q 780 586 718 730 q 795 418 812 522 q 713 236 777 313 q 545 93 631 137 q 313 24 460 49 q 245 10 281 19 q 176 -2 209 1 q 80 -5 142 -5 q 16 39 49 -5 q 27 69 8 53 q 44 73 35 75 q 61 73 53 72 q 69 80 69 73 q 69 257 72 142 q 66 393 66 372 q 58 398 66 397 q 29 397 49 399 q 0 396 9 396 q -25 420 -18 396 q -25 469 -33 445 q 0 494 -18 494 q 27 492 9 494 q 52 490 45 491 q 62 491 60 490 z "},"":{"ha":665,"x_min":23,"x_max":644,"o":"m 126 974 q 518 975 372 974 q 544 956 536 975 q 544 916 552 936 q 518 894 536 895 q 125 891 273 890 q 100 912 107 891 q 100 954 92 933 q 126 974 107 974 m 33 819 q 112 820 35 825 q 345 804 189 815 q 628 787 500 792 q 642 762 644 784 q 625 726 639 741 q 544 692 591 689 q 316 709 465 699 q 156 716 167 719 q 144 665 151 716 q 136 571 137 614 q 144 519 134 528 q 179 519 146 519 q 233 519 212 519 q 295 521 255 519 q 368 524 335 522 q 444 531 401 526 q 522 541 486 536 q 608 522 571 552 q 633 487 625 509 q 625 458 642 465 q 486 437 559 445 q 364 428 412 430 q 241 425 316 426 q 136 422 167 423 q 133 153 122 422 q 136 139 133 145 q 144 129 138 133 q 157 122 151 125 q 174 117 163 119 q 191 115 184 115 q 210 113 198 114 q 228 111 221 113 q 404 113 289 104 q 581 106 519 121 q 625 83 608 102 q 644 37 642 65 q 641 26 644 30 q 630 20 637 22 q 617 18 623 18 q 601 18 612 18 q 586 16 590 18 q 91 0 328 0 q 49 31 73 0 q 24 77 24 61 q 24 213 24 126 q 23 358 23 300 q 24 492 23 416 q 24 619 24 568 q 26 718 24 670 q 28 791 27 766 q 33 819 30 817 z "},"":{"ha":642,"x_min":22,"x_max":617,"o":"m 103 746 q 495 747 349 746 q 521 728 513 747 q 521 688 529 708 q 495 666 513 667 q 102 663 250 662 q 77 684 84 663 q 77 726 69 705 q 103 746 84 746 m 491 347 q 446 420 490 393 q 342 450 401 448 q 257 423 305 452 q 170 355 209 395 q 133 293 151 336 q 132 286 130 286 q 141 297 133 286 q 241 317 152 312 q 410 326 330 321 q 491 347 491 331 m 547 267 q 324 218 502 240 q 125 212 146 197 q 118 209 117 217 q 161 146 125 186 q 186 127 175 133 q 366 83 273 81 q 570 136 467 84 q 602 127 583 142 q 625 93 620 111 q 617 64 629 75 q 430 0 526 11 q 189 16 321 -12 q 83 65 137 27 q 22 159 28 103 q 39 312 11 245 q 136 442 66 378 q 442 514 270 567 q 524 460 486 502 q 567 372 562 418 q 574 313 575 343 q 547 267 572 283 z "},"":{"ha":665,"x_min":23,"x_max":644,"o":"m 269 971 q 319 1019 273 1001 q 377 1028 366 1036 q 397 970 404 1005 q 361 920 391 935 q 298 923 332 905 q 269 971 263 941 m 33 819 q 112 820 35 825 q 345 804 189 815 q 628 787 500 792 q 642 762 644 784 q 625 726 639 741 q 544 692 591 689 q 316 709 465 699 q 156 716 167 719 q 144 665 151 716 q 136 571 137 614 q 144 519 134 528 q 179 519 146 519 q 233 519 212 519 q 295 521 255 519 q 368 524 335 522 q 444 531 401 526 q 522 541 486 536 q 608 522 571 552 q 633 487 625 509 q 625 458 642 465 q 486 437 559 445 q 364 428 412 430 q 241 425 316 426 q 136 422 167 423 q 133 153 122 422 q 136 139 133 145 q 144 129 138 133 q 157 122 151 125 q 174 117 163 119 q 191 115 184 115 q 210 113 198 114 q 228 111 221 113 q 404 113 289 104 q 581 106 519 121 q 625 83 608 102 q 644 37 642 65 q 641 26 644 30 q 630 20 637 22 q 617 18 623 18 q 601 18 612 18 q 586 16 590 18 q 91 0 328 0 q 49 31 73 0 q 24 77 24 61 q 24 213 24 126 q 23 358 23 300 q 24 492 23 416 q 24 619 24 568 q 26 718 24 670 q 28 791 27 766 q 33 819 30 817 z "},"":{"ha":642,"x_min":22,"x_max":617,"o":"m 279 700 q 330 747 283 730 q 388 757 377 765 q 408 699 415 734 q 372 648 401 663 q 309 652 343 633 q 279 700 274 670 m 491 347 q 446 420 490 393 q 342 450 401 448 q 257 423 305 452 q 170 355 209 395 q 133 293 151 336 q 132 286 130 286 q 141 297 133 286 q 241 317 152 312 q 410 326 330 321 q 491 347 491 331 m 547 267 q 324 218 502 240 q 125 212 146 197 q 118 209 117 217 q 161 146 125 186 q 186 127 175 133 q 366 83 273 81 q 570 136 467 84 q 602 127 583 142 q 625 93 620 111 q 617 64 629 75 q 430 0 526 11 q 189 16 321 -12 q 83 65 137 27 q 22 159 28 103 q 39 312 11 245 q 136 442 66 378 q 442 514 270 567 q 524 460 486 502 q 567 372 562 418 q 574 313 575 343 q 547 267 572 283 z "},"":{"ha":665,"x_min":23,"x_max":644,"o":"m 157 1032 q 159 1055 149 1040 q 185 1076 170 1070 q 212 1076 201 1082 q 246 1040 227 1058 q 292 997 266 1021 q 336 956 319 972 q 379 1006 353 972 q 424 1059 406 1040 q 453 1081 442 1078 q 498 1068 475 1084 q 510 1038 522 1053 q 400 907 448 955 q 334 859 353 859 q 324 861 330 859 q 312 868 319 863 q 298 879 305 873 q 281 895 292 884 q 263 914 271 905 q 241 939 255 924 q 216 966 227 954 q 189 998 206 978 q 157 1032 171 1017 m 33 819 q 112 820 35 825 q 345 804 189 815 q 628 787 500 792 q 642 762 644 784 q 625 726 639 741 q 544 692 591 689 q 316 709 465 699 q 156 716 167 719 q 144 665 151 716 q 136 571 137 614 q 144 519 134 528 q 179 519 146 519 q 233 519 212 519 q 295 521 255 519 q 368 524 335 522 q 444 531 401 526 q 522 541 486 536 q 608 522 571 552 q 633 487 625 509 q 625 458 642 465 q 486 437 559 445 q 364 428 412 430 q 241 425 316 426 q 136 422 167 423 q 133 153 122 422 q 136 139 133 145 q 144 129 138 133 q 157 122 151 125 q 174 117 163 119 q 191 115 184 115 q 210 113 198 114 q 228 111 221 113 q 404 113 289 104 q 581 106 519 121 q 625 83 608 102 q 644 37 642 65 q 641 26 644 30 q 630 20 637 22 q 617 18 623 18 q 601 18 612 18 q 586 16 590 18 q 91 0 328 0 q 49 31 73 0 q 24 77 24 61 q 24 213 24 126 q 23 358 23 300 q 24 492 23 416 q 24 619 24 568 q 26 718 24 670 q 28 791 27 766 q 33 819 30 817 z "},"":{"ha":642,"x_min":22,"x_max":625,"o":"m 141 761 q 144 784 133 769 q 170 805 155 799 q 195 804 184 811 q 231 768 212 787 q 277 726 250 750 q 320 685 304 701 q 363 735 336 701 q 408 788 391 769 q 437 810 426 807 q 483 797 460 812 q 494 766 506 781 q 385 635 433 684 q 317 587 336 587 q 309 589 313 587 q 296 597 304 591 q 283 608 289 602 q 266 623 277 613 q 247 643 255 633 q 225 667 239 652 q 201 694 212 682 q 172 726 190 707 q 141 761 155 746 m 491 347 q 446 420 490 393 q 342 450 401 448 q 257 423 305 452 q 170 355 209 395 q 133 293 151 336 q 132 286 130 286 q 141 297 133 286 q 241 317 152 312 q 410 326 330 321 q 491 347 491 331 m 547 267 q 324 218 502 240 q 125 212 146 197 q 118 209 117 217 q 161 146 125 186 q 186 127 175 133 q 366 83 273 81 q 570 136 467 84 q 602 127 583 142 q 625 93 620 111 q 617 64 629 75 q 430 0 526 11 q 189 16 321 -12 q 83 65 137 27 q 22 159 28 103 q 39 312 11 245 q 136 442 66 378 q 442 514 270 567 q 524 460 486 502 q 567 372 562 418 q 574 313 575 343 q 547 267 572 283 z "},"":{"ha":817,"x_min":22,"x_max":795,"o":"m 221 917 q 252 951 235 932 q 280 983 270 971 q 304 1010 290 994 q 327 1034 319 1025 q 345 1054 335 1043 q 362 1070 355 1065 q 376 1081 369 1076 q 389 1088 384 1086 q 397 1090 393 1090 q 464 1042 416 1090 q 574 911 511 994 q 563 880 586 895 q 517 868 540 865 q 488 889 506 869 q 444 942 471 909 q 400 993 416 975 q 357 952 384 977 q 311 909 330 928 q 275 873 292 890 q 250 871 264 865 q 224 892 235 878 q 221 917 213 907 m 605 795 q 611 750 624 776 q 572 713 598 724 q 519 720 552 704 q 472 736 487 736 q 252 655 340 742 q 166 538 194 597 q 127 395 138 480 q 189 180 110 270 q 384 106 273 85 q 509 154 460 119 q 628 262 557 189 q 682 347 663 300 q 684 419 700 395 q 631 433 675 431 q 491 432 587 435 q 334 430 395 429 q 327 472 304 431 q 384 528 349 514 q 397 530 391 530 q 692 538 627 538 q 758 526 723 538 q 795 503 793 514 q 782 343 800 411 q 747 255 764 275 q 361 0 538 4 q 227 22 286 -3 q 100 114 168 47 q 45 200 68 145 q 22 302 23 255 q 167 700 16 543 q 249 774 214 750 q 336 808 283 798 q 503 816 416 822 q 605 795 589 810 z "},"":{"ha":632,"x_min":-14,"x_max":614,"o":"m 121 655 q 152 690 134 670 q 180 721 170 709 q 204 748 190 732 q 227 772 218 764 q 245 792 235 781 q 262 808 255 803 q 276 819 269 814 q 288 827 283 825 q 297 829 293 829 q 363 781 316 829 q 473 650 411 732 q 463 618 486 633 q 416 606 439 604 q 388 627 406 608 q 343 680 370 647 q 300 731 316 713 q 256 690 283 715 q 210 647 229 666 q 175 612 191 628 q 149 610 164 604 q 123 631 134 616 q 121 655 113 646 m 244 403 q 143 339 180 388 q 111 225 106 290 q 164 134 117 168 q 275 100 212 100 q 412 147 339 99 q 483 222 484 195 q 444 348 479 292 q 381 414 410 404 q 326 414 370 418 q 244 403 282 411 m 458 488 q 513 437 494 463 q 547 369 532 411 q 614 31 593 235 q 585 -94 620 -26 q 511 -178 551 -163 q 448 -195 487 -187 q 350 -210 410 -203 q 245 -220 290 -216 q 114 -231 199 -224 q -14 -241 28 -237 q -31 -202 -41 -244 q 12 -137 -19 -155 q 27 -133 20 -133 q 138 -129 58 -132 q 266 -123 218 -126 q 373 -111 313 -121 q 469 -83 433 -100 q 505 -28 496 -71 q 509 50 514 14 q 498 85 505 85 q 454 62 490 85 q 370 17 419 39 q 281 -5 321 -5 q 72 95 152 -4 q 22 316 -11 197 q 82 415 37 373 q 172 475 127 457 q 353 509 245 503 q 458 488 427 511 z "},"":{"ha":817,"x_min":22,"x_max":795,"o":"m 380 979 q 431 1027 384 1009 q 488 1036 477 1044 q 509 978 515 1013 q 472 928 502 943 q 409 931 444 913 q 380 979 374 949 m 605 795 q 611 750 624 776 q 572 713 598 724 q 519 720 552 704 q 472 736 487 736 q 252 655 340 742 q 166 538 194 597 q 127 395 138 480 q 189 180 110 270 q 384 106 273 85 q 509 154 460 119 q 628 262 557 189 q 682 347 663 300 q 684 419 700 395 q 631 433 675 431 q 491 432 587 435 q 334 430 395 429 q 327 472 304 431 q 384 528 349 514 q 397 530 391 530 q 692 538 627 538 q 758 526 723 538 q 795 503 793 514 q 782 343 800 411 q 747 255 764 275 q 361 0 538 4 q 227 22 286 -3 q 100 114 168 47 q 45 200 68 145 q 22 302 23 255 q 167 700 16 543 q 249 774 214 750 q 336 808 283 798 q 503 816 416 822 q 605 795 589 810 z "},"":{"ha":632,"x_min":-14,"x_max":614,"o":"m 241 681 q 292 728 245 711 q 350 738 339 746 q 370 680 377 715 q 334 629 363 644 q 271 633 305 614 q 241 681 236 651 m 244 403 q 143 339 180 388 q 111 225 106 290 q 164 134 117 168 q 275 100 212 100 q 412 147 339 99 q 483 222 484 195 q 444 348 479 292 q 381 414 410 404 q 326 414 370 418 q 244 403 282 411 m 458 488 q 513 437 494 463 q 547 369 532 411 q 614 31 593 235 q 585 -94 620 -26 q 511 -178 551 -163 q 448 -195 487 -187 q 350 -210 410 -203 q 245 -220 290 -216 q 114 -231 199 -224 q -14 -241 28 -237 q -31 -202 -41 -244 q 12 -137 -19 -155 q 27 -133 20 -133 q 138 -129 58 -132 q 266 -123 218 -126 q 373 -111 313 -121 q 469 -83 433 -100 q 505 -28 496 -71 q 509 50 514 14 q 498 85 505 85 q 454 62 490 85 q 370 17 419 39 q 281 -5 321 -5 q 72 95 152 -4 q 22 316 -11 197 q 82 415 37 373 q 172 475 127 457 q 353 509 245 503 q 458 488 427 511 z "},"":{"ha":817,"x_min":22,"x_max":795,"o":"m 339 -24 q 382 -12 346 11 q 420 -57 408 -28 q 427 -117 427 -79 q 420 -163 426 -155 q 336 -257 374 -224 q 285 -260 297 -290 q 288 -233 282 -256 q 310 -149 294 -209 q 339 -24 326 -90 m 605 795 q 611 750 624 776 q 572 713 598 724 q 519 720 552 704 q 472 736 487 736 q 252 655 340 742 q 166 538 194 597 q 127 395 138 480 q 189 180 110 270 q 384 106 273 85 q 509 154 460 119 q 628 262 557 189 q 682 347 663 300 q 684 419 700 395 q 631 433 675 431 q 491 432 587 435 q 334 430 395 429 q 327 472 304 431 q 384 528 349 514 q 397 530 391 530 q 692 538 627 538 q 758 526 723 538 q 795 503 793 514 q 782 343 800 411 q 747 255 764 275 q 361 0 538 4 q 227 22 286 -3 q 100 114 168 47 q 45 200 68 145 q 22 302 23 255 q 167 700 16 543 q 249 774 214 750 q 336 808 283 798 q 503 816 416 822 q 605 795 589 810 z "},"":{"ha":753,"x_min":22,"x_max":731,"o":"m 163 909 q 194 943 176 924 q 222 975 212 963 q 246 1002 232 986 q 269 1026 260 1017 q 287 1046 277 1035 q 304 1062 297 1057 q 318 1073 311 1067 q 330 1080 326 1078 q 339 1082 335 1082 q 406 1034 358 1082 q 515 903 453 986 q 505 872 528 887 q 458 860 481 857 q 430 881 448 861 q 385 934 412 901 q 342 985 358 967 q 298 944 326 968 q 252 901 271 920 q 217 865 233 882 q 191 863 206 857 q 165 884 176 869 q 163 909 155 899 m 22 764 q 52 795 20 787 q 116 794 84 804 q 148 761 148 784 q 144 640 148 727 q 141 501 141 553 q 148 450 141 449 q 356 486 213 460 q 602 522 499 513 q 612 562 608 522 q 621 676 616 601 q 631 787 627 751 q 657 813 632 806 q 707 813 682 821 q 731 787 731 806 q 731 425 734 639 q 731 19 728 210 q 700 -17 731 -4 q 637 -24 669 -30 q 605 5 605 -18 q 609 108 606 37 q 613 219 612 179 q 615 308 614 259 q 613 380 616 357 q 605 403 610 403 q 156 316 232 403 q 150 268 151 309 q 145 161 149 227 q 127 42 141 95 q 100 28 125 31 q 53 35 76 26 q 31 61 30 43 q 39 258 38 160 q 38 413 39 357 q 31 589 37 469 q 22 764 24 709 z "},"":{"ha":644,"x_min":19,"x_max":623,"o":"m 129 925 q 160 960 142 940 q 188 991 178 979 q 212 1018 198 1002 q 235 1042 227 1034 q 253 1062 243 1051 q 270 1078 263 1073 q 284 1089 277 1084 q 296 1097 292 1095 q 305 1099 301 1099 q 372 1050 324 1099 q 481 920 419 1002 q 471 888 494 903 q 425 876 448 873 q 396 897 414 878 q 351 950 378 917 q 308 1001 324 983 q 264 960 292 985 q 218 917 237 936 q 183 882 199 898 q 157 880 172 873 q 132 901 142 886 q 129 925 121 916 m 19 814 q 47 835 18 830 q 80 833 76 840 q 92 821 84 829 q 104 810 100 814 q 113 799 107 806 q 122 787 119 792 q 128 775 125 783 q 132 760 132 768 q 133 745 133 753 q 133 625 132 690 q 138 512 134 559 q 148 467 142 465 q 212 476 168 472 q 323 477 255 480 q 439 456 391 473 q 532 401 496 435 q 591 311 567 368 q 625 159 620 243 q 623 22 629 75 q 598 1 623 5 q 549 2 574 -4 q 525 22 525 8 q 525 50 525 24 q 525 88 525 75 q 524 129 525 102 q 519 176 522 156 q 510 221 517 195 q 495 267 503 247 q 384 363 464 345 q 243 372 320 378 q 159 347 165 366 q 159 261 156 321 q 165 117 161 201 q 170 24 170 34 q 142 -5 170 4 q 88 -8 115 -15 q 61 19 61 -1 q 51 243 57 119 q 35 534 45 366 q 19 814 24 703 z "},"":{"ha":180,"x_min":-179,"x_max":327,"o":"m -178 959 q -165 1014 -172 991 q -147 1061 -159 1037 q -119 1097 -136 1084 q -81 1109 -103 1109 q -3 1089 -41 1109 q 61 1043 35 1068 q 125 992 87 1017 q 203 959 164 967 q 222 967 215 957 q 233 992 229 978 q 244 1022 236 1007 q 263 1041 252 1037 q 309 1039 285 1049 q 327 1007 334 1029 q 277 907 305 943 q 207 872 250 871 q 130 894 167 872 q 67 941 92 916 q 4 989 41 967 q -73 1015 -34 1012 q -94 998 -87 1015 q -101 961 -101 982 q -108 918 -102 939 q -127 891 -114 897 q -160 910 -137 885 q -178 959 -183 936 m 22 878 q 41 883 24 884 q 77 878 57 882 q 100 869 98 873 q 142 779 125 829 q 159 716 159 730 q 155 385 159 684 q 159 50 152 87 q 109 4 160 20 q 45 8 58 -12 q 42 16 42 12 q 40 290 41 122 q 36 575 39 458 q 22 878 33 692 z "},"":{"ha":157,"x_min":-80,"x_max":278,"o":"m -80 711 q -73 741 -75 732 q -65 766 -71 749 q -54 791 -60 784 q -36 807 -47 799 q -11 815 -24 815 q 55 802 24 819 q 118 761 85 784 q 183 731 151 738 q 208 747 195 728 q 232 768 221 766 q 266 764 250 770 q 277 743 282 757 q 245 675 263 700 q 193 650 227 651 q 134 667 161 648 q 77 708 106 686 q 18 731 49 730 q -7 718 1 732 q -24 686 -16 704 q -43 662 -31 669 q -57 668 -47 661 q -74 688 -66 675 q -80 711 -81 700 m 45 544 q 67 565 45 560 q 111 561 90 570 q 133 536 133 552 q 127 37 127 81 q 106 4 127 16 q 66 -5 85 -8 q 38 16 56 -4 q 22 56 20 35 q 45 544 28 233 z "},"":{"ha":180,"x_min":-119,"x_max":275,"o":"m -117 1051 q 275 1053 129 1051 q 301 1033 293 1053 q 301 993 309 1013 q 275 971 293 972 q -118 968 30 967 q -143 989 -136 968 q -143 1031 -151 1010 q -117 1051 -136 1051 m 22 878 q 41 883 24 884 q 77 878 57 882 q 100 869 98 873 q 142 779 125 829 q 159 716 159 730 q 155 385 159 684 q 159 50 152 87 q 109 4 160 20 q 45 8 58 -12 q 42 16 42 12 q 40 290 41 122 q 36 575 39 458 q 22 878 33 692 z "},"":{"ha":157,"x_min":-117,"x_max":278,"o":"m -114 732 q 278 734 132 732 q 304 714 296 734 q 304 674 312 694 q 278 652 296 654 q -115 650 33 648 q -140 671 -133 650 q -140 712 -148 692 q -114 732 -133 732 m 45 544 q 67 565 45 560 q 111 561 90 570 q 133 536 133 552 q 127 37 127 81 q 106 4 127 16 q 66 -5 85 -8 q 38 16 56 -4 q 22 56 20 35 q 45 544 28 233 z "},"":{"ha":180,"x_min":20,"x_max":159,"o":"m 22 1019 q 73 1066 26 1048 q 130 1076 119 1084 q 151 1017 157 1053 q 114 967 144 982 q 51 970 85 952 q 22 1019 16 989 m 22 878 q 41 883 24 884 q 77 878 57 882 q 100 869 98 873 q 142 779 125 829 q 159 716 159 730 q 155 385 159 684 q 159 50 152 87 q 109 4 160 20 q 45 8 58 -12 q 42 16 42 12 q 40 290 41 122 q 36 575 39 458 q 22 878 33 692 z "},"":{"ha":157,"x_min":22,"x_max":133,"o":"m 45 544 q 67 565 45 560 q 111 561 90 570 q 133 536 133 552 q 127 37 127 81 q 106 4 127 16 q 66 -5 85 -8 q 38 16 56 -4 q 22 56 20 35 q 45 544 28 233 z "},"":{"ha":1000,"x_min":22,"x_max":967,"o":"m 334 883 q 477 876 411 878 q 588 873 544 873 q 722 873 632 873 q 888 872 812 873 q 932 839 901 872 q 964 795 964 806 q 968 622 964 731 q 973 469 972 513 q 967 366 974 425 q 888 214 948 285 q 743 98 827 144 q 563 25 658 52 q 372 0 468 -1 q 199 31 275 1 q 237 96 176 41 q 302 138 288 141 q 630 144 495 103 q 841 331 765 184 q 859 583 871 403 q 833 774 848 762 q 667 777 796 781 q 483 769 537 773 q 441 769 467 768 q 376 780 416 770 q 311 808 335 789 q 302 853 293 822 q 334 883 311 884 m 22 878 q 41 883 24 884 q 77 878 57 882 q 100 869 98 873 q 142 779 125 829 q 159 716 159 730 q 155 385 159 684 q 159 50 152 87 q 109 4 160 20 q 45 8 58 -12 q 42 16 42 12 q 40 290 41 122 q 36 575 39 458 q 22 878 33 692 z "},"":{"ha":312,"x_min":22,"x_max":285,"o":"m 228 688 q 214 696 228 688 q 197 734 199 704 q 225 787 194 764 q 277 792 256 811 q 298 735 294 776 q 285 686 301 694 q 228 688 256 673 m 191 491 q 234 528 193 517 q 283 518 275 540 q 285 511 285 515 q 278 136 285 415 q 279 -217 271 -142 q 239 -269 281 -247 q 184 -267 195 -289 q 182 -258 182 -263 q 176 -82 176 -178 q 177 86 175 14 q 184 286 179 159 q 191 491 189 412 m 42 789 q 106 772 61 807 q 136 711 142 742 q 83 670 127 673 q 34 705 47 669 q 42 789 14 764 m 45 544 q 67 565 45 560 q 111 561 90 570 q 133 536 133 552 q 127 37 127 81 q 106 4 127 16 q 66 -5 85 -8 q 38 16 56 -4 q 22 56 20 35 q 45 544 28 233 z "},"":{"ha":819,"x_min":19,"x_max":787,"o":"m 247 956 q 278 985 260 968 q 306 1011 296 1001 q 330 1033 316 1020 q 353 1053 345 1046 q 371 1070 361 1061 q 388 1083 381 1079 q 402 1092 395 1088 q 414 1098 410 1097 q 423 1100 419 1100 q 490 1060 442 1100 q 600 951 537 1020 q 589 926 612 938 q 543 915 566 913 q 514 933 532 916 q 469 977 496 949 q 426 1019 442 1004 q 382 985 410 1005 q 336 949 355 965 q 301 920 317 933 q 275 918 290 913 q 250 936 260 923 q 247 956 239 948 m 153 883 q 297 876 231 878 q 408 873 363 873 q 542 873 452 873 q 708 872 632 873 q 752 839 720 872 q 784 795 784 806 q 788 622 784 731 q 793 469 792 513 q 787 366 793 425 q 707 214 768 285 q 562 98 647 144 q 382 25 477 52 q 191 0 288 -1 q 19 31 95 1 q 57 96 -4 41 q 122 138 107 141 q 450 144 315 103 q 661 331 585 184 q 679 583 690 403 q 652 774 667 762 q 486 777 616 781 q 302 769 357 773 q 261 769 286 768 q 195 780 236 770 q 130 808 155 789 q 121 853 113 822 q 153 883 130 884 z "},"":{"ha":155,"x_min":-103,"x_max":251,"o":"m 34 491 q 77 528 35 517 q 126 518 118 540 q 127 511 127 515 q 121 136 127 415 q 122 -217 114 -142 q 81 -269 123 -247 q 27 -267 38 -289 q 24 -258 24 -263 q 18 -82 19 -178 q 20 86 18 14 q 26 286 22 159 q 34 491 31 412 m -103 666 q -72 701 -90 681 q -44 732 -54 720 q -20 759 -34 743 q 3 783 -5 774 q 21 802 11 792 q 38 819 31 812 q 52 830 45 825 q 64 838 60 836 q 73 840 69 840 q 140 791 92 840 q 250 661 187 743 q 239 629 262 644 q 193 617 216 613 q 164 637 182 618 q 119 690 146 656 q 76 742 92 724 q 33 701 60 726 q -14 657 5 675 q -49 623 -33 639 q -75 621 -60 614 q -100 642 -90 627 q -103 666 -111 656 z "},"":{"ha":741,"x_min":-3,"x_max":719,"o":"m 321 26 q 365 38 328 61 q 403 -7 391 22 q 409 -66 410 -28 q 403 -113 408 -104 q 318 -207 357 -174 q 267 -210 279 -240 q 271 -182 264 -206 q 292 -99 277 -159 q 321 26 308 -39 m 69 787 q 94 815 69 802 q 140 831 118 829 q 167 822 161 833 q 199 514 194 524 q 364 618 214 519 q 655 814 514 716 q 671 798 667 822 q 655 716 678 753 q 644 703 650 708 q 456 567 568 643 q 274 445 343 491 q 203 392 205 399 q 256 367 202 382 q 393 325 309 351 q 525 270 476 298 q 719 100 633 210 q 694 46 738 76 q 633 34 651 16 q 616 52 632 35 q 593 74 600 68 q 570 96 587 80 q 543 120 553 111 q 515 143 533 129 q 484 168 498 157 q 452 189 471 178 q 416 209 434 199 q 269 261 351 241 q 178 264 187 281 q 174 214 174 256 q 175 123 174 171 q 172 27 176 75 q 140 -1 171 4 q 81 8 110 -5 q 53 45 52 22 q 66 308 66 251 q 32 349 66 330 q -3 374 -3 368 q 35 397 -3 380 q 75 437 73 415 q 69 787 83 559 z "},"":{"ha":635,"x_min":22,"x_max":612,"o":"m 241 23 q 285 35 248 58 q 323 -9 311 19 q 329 -69 330 -31 q 323 -115 328 -107 q 238 -210 277 -176 q 187 -213 199 -243 q 191 -185 184 -209 q 212 -102 197 -161 q 241 23 228 -42 m 47 898 q 138 949 49 944 q 145 949 142 949 q 149 945 148 948 q 152 939 151 941 q 153 930 153 936 q 153 922 153 925 q 153 913 153 920 q 153 906 153 907 q 145 714 153 830 q 133 522 137 598 q 133 433 129 446 q 193 444 137 420 q 340 508 250 468 q 491 562 431 548 q 526 551 507 566 q 536 525 545 537 q 442 448 491 463 q 302 392 395 434 q 212 334 209 350 q 298 286 214 320 q 480 203 381 252 q 612 111 579 155 q 597 62 628 90 q 544 47 567 34 q 469 90 528 57 q 377 141 410 123 q 294 184 345 159 q 205 221 244 209 q 136 236 167 233 q 124 192 126 236 q 121 94 122 148 q 114 27 121 41 q 57 -12 100 -1 q 22 3 20 -22 q 37 487 30 199 q 47 898 43 774 z "},"":{"ha":655,"x_min":3,"x_max":643,"o":"m 72 597 q 96 625 72 612 q 143 641 121 639 q 170 632 165 643 q 184 495 178 544 q 196 435 191 446 q 205 426 201 425 q 263 454 218 430 q 392 530 308 479 q 563 643 476 582 q 579 627 576 651 q 563 545 586 582 q 552 532 559 537 q 387 416 475 471 q 255 336 300 362 q 209 304 210 311 q 223 292 209 298 q 263 279 237 286 q 317 266 289 273 q 378 249 346 259 q 433 227 411 239 q 461 212 437 224 q 490 197 486 199 q 513 184 494 195 q 538 170 533 174 q 559 155 544 165 q 583 138 575 145 q 602 121 590 132 q 623 100 614 111 q 642 77 632 90 q 637 41 654 61 q 593 10 620 20 q 556 11 567 0 q 370 142 468 99 q 256 179 316 167 q 183 176 197 191 q 180 143 179 168 q 182 85 180 118 q 180 8 184 53 q 149 -19 179 -14 q 89 -10 118 -24 q 61 26 60 4 q 66 86 64 52 q 71 148 69 121 q 72 220 72 175 q 55 249 72 236 q 20 271 38 262 q 3 286 3 279 q 22 300 3 293 q 60 320 41 308 q 80 349 79 332 q 82 390 81 372 q 82 433 83 408 q 80 473 81 457 q 76 529 79 490 q 72 597 73 568 z "},"":{"ha":769,"x_min":22,"x_max":750,"o":"m 152 972 q 229 1013 191 993 q 282 1043 266 1034 q 328 1067 298 1053 q 399 1100 357 1081 q 500 1092 422 1109 q 537 1076 541 1082 q 534 1073 537 1074 q 250 937 359 993 q 167 943 218 921 q 152 972 132 959 m 85 880 q 119 881 91 890 q 177 850 146 872 q 206 817 208 829 q 173 524 197 727 q 140 216 149 320 q 141 109 132 113 q 341 125 164 99 q 663 194 518 152 q 710 186 678 199 q 750 161 742 172 q 736 106 760 148 q 694 61 713 64 q 233 5 444 24 q 22 3 22 -15 q 28 252 22 146 q 54 547 35 358 q 85 880 73 736 z "},"":{"ha":183,"x_min":-65,"x_max":319,"o":"m -64 974 q 13 1015 -24 994 q 66 1044 50 1035 q 112 1068 83 1054 q 183 1101 141 1082 q 285 1093 206 1111 q 321 1077 326 1084 q 319 1074 321 1076 q 34 939 144 994 q -49 944 3 922 q -64 974 -84 960 m 19 880 q 42 892 19 884 q 88 905 65 901 q 111 906 111 910 q 138 454 125 724 q 161 39 152 183 q 136 6 163 19 q 81 -3 109 -7 q 53 19 53 0 q 19 880 35 593 z "},"":{"ha":769,"x_min":22,"x_max":750,"o":"m 323 -24 q 366 -12 330 11 q 404 -57 392 -28 q 410 -117 411 -79 q 404 -163 410 -155 q 319 -257 358 -224 q 269 -260 281 -290 q 272 -233 266 -256 q 294 -149 278 -209 q 323 -24 309 -90 m 85 880 q 119 881 91 890 q 177 850 146 872 q 206 817 208 829 q 173 524 197 727 q 140 216 149 320 q 141 109 132 113 q 341 125 164 99 q 663 194 518 152 q 710 186 678 199 q 750 161 742 172 q 736 106 760 148 q 694 61 713 64 q 233 5 444 24 q 22 3 22 -15 q 28 252 22 146 q 54 547 35 358 q 85 880 73 736 z "},"":{"ha":183,"x_min":19,"x_max":161,"o":"m 77 -35 q 121 -23 84 -1 q 159 -67 146 -39 q 165 -125 165 -88 q 159 -169 164 -162 q 74 -261 113 -229 q 23 -264 35 -293 q 26 -237 20 -260 q 48 -156 33 -214 q 77 -35 64 -98 m 19 880 q 42 892 19 884 q 88 905 65 901 q 111 906 111 910 q 138 454 125 724 q 161 39 152 183 q 136 6 163 19 q 81 -3 109 -7 q 53 19 53 0 q 19 880 35 593 z "},"":{"ha":769,"x_min":22,"x_max":750,"o":"m 289 932 q 332 944 296 967 q 370 899 358 928 q 376 840 377 878 q 370 793 376 802 q 286 699 324 732 q 235 696 247 666 q 238 724 232 700 q 260 807 244 747 q 289 932 275 867 m 85 880 q 119 881 91 890 q 177 850 146 872 q 206 817 208 829 q 173 524 197 727 q 140 216 149 320 q 141 109 132 113 q 341 125 164 99 q 663 194 518 152 q 710 186 678 199 q 750 161 742 172 q 736 106 760 148 q 694 61 713 64 q 233 5 444 24 q 22 3 22 -15 q 28 252 22 146 q 54 547 35 358 q 85 880 73 736 z "},"":{"ha":233,"x_min":19,"x_max":278,"o":"m 197 952 q 240 964 203 987 q 278 920 266 948 q 284 860 285 898 q 278 814 283 822 q 193 720 232 753 q 142 716 155 686 q 146 744 140 720 q 168 827 152 768 q 197 952 183 887 m 19 880 q 42 892 19 884 q 88 905 65 901 q 111 906 111 910 q 138 454 125 724 q 161 39 152 183 q 136 6 163 19 q 81 -3 109 -7 q 53 19 53 0 q 19 880 35 593 z "},"":{"ha":769,"x_min":22,"x_max":750,"o":"m 323 476 q 388 507 343 507 q 453 476 433 507 q 447 410 471 446 q 387 373 423 373 q 328 410 351 373 q 323 476 304 446 m 85 880 q 119 881 91 890 q 177 850 146 872 q 206 817 208 829 q 173 524 197 727 q 140 216 149 320 q 141 109 132 113 q 341 125 164 99 q 663 194 518 152 q 710 186 678 199 q 750 161 742 172 q 736 106 760 148 q 694 61 713 64 q 233 5 444 24 q 22 3 22 -15 q 28 252 22 146 q 54 547 35 358 q 85 880 73 736 z "},"":{"ha":330,"x_min":19,"x_max":304,"o":"m 174 560 q 239 591 194 591 q 304 560 283 591 q 298 494 321 530 q 238 457 274 457 q 178 494 202 457 q 174 560 155 530 m 19 880 q 42 892 19 884 q 88 905 65 901 q 111 906 111 910 q 138 454 125 724 q 161 39 152 183 q 136 6 163 19 q 81 -3 109 -7 q 53 19 53 0 q 19 880 35 593 z "},"":{"ha":735,"x_min":22,"x_max":713,"o":"m 100 974 q 177 1015 140 994 q 231 1044 214 1035 q 276 1068 247 1054 q 347 1101 305 1082 q 449 1093 370 1111 q 486 1077 490 1084 q 483 1074 486 1076 q 198 939 308 994 q 115 944 167 922 q 100 974 80 960 m 80 22 q 24 141 24 81 q 22 431 24 233 q 18 709 19 628 q 22 836 18 791 q 551 736 378 891 q 663 595 627 667 q 706 439 700 522 q 711 242 712 355 q 713 -22 711 129 q 659 -1 715 -45 q 602 64 604 43 q 604 233 600 99 q 593 458 608 368 q 533 600 579 549 q 359 728 445 694 q 127 761 273 762 q 121 643 122 761 q 126 347 121 525 q 141 14 132 170 q 109 5 142 -4 q 80 22 90 11 z "},"":{"ha":632,"x_min":19,"x_max":612,"o":"m 115 666 q 192 707 155 686 q 245 736 229 727 q 291 760 262 746 q 362 793 320 774 q 464 785 385 803 q 500 769 505 776 q 498 766 500 768 q 213 631 323 686 q 130 636 182 614 q 115 666 95 652 m 19 37 q 22 283 20 83 q 24 519 23 484 q 142 555 26 547 q 342 547 259 564 q 479 494 426 529 q 570 389 533 458 q 612 24 597 336 q 586 -1 612 7 q 533 -4 560 -9 q 506 19 506 1 q 505 79 506 26 q 502 168 503 133 q 492 256 500 202 q 472 353 484 311 q 339 458 449 431 q 217 469 294 469 q 136 456 140 469 q 132 352 133 449 q 130 142 130 255 q 127 5 129 30 q 100 -9 127 -8 q 45 3 72 -9 q 19 37 19 16 z "},"":{"ha":735,"x_min":22,"x_max":713,"o":"m 331 -18 q 374 -5 338 18 q 412 -50 400 -22 q 418 -110 419 -72 q 412 -156 418 -148 q 328 -250 366 -217 q 277 -254 289 -283 q 280 -226 274 -250 q 302 -142 286 -202 q 331 -18 317 -83 m 80 22 q 24 141 24 81 q 22 431 24 233 q 18 709 19 628 q 22 836 18 791 q 551 736 378 891 q 663 595 627 667 q 706 439 700 522 q 711 242 712 355 q 713 -22 711 129 q 659 -1 715 -45 q 602 64 604 43 q 604 233 600 99 q 593 458 608 368 q 533 600 579 549 q 359 728 445 694 q 127 761 273 762 q 121 643 122 761 q 126 347 121 525 q 141 14 132 170 q 109 5 142 -4 q 80 22 90 11 z "},"":{"ha":632,"x_min":19,"x_max":612,"o":"m 255 -22 q 298 -9 262 14 q 336 -54 324 -26 q 342 -114 343 -76 q 336 -160 342 -152 q 252 -254 290 -221 q 201 -258 213 -288 q 204 -230 198 -254 q 226 -146 210 -206 q 255 -22 241 -87 m 19 37 q 22 283 20 83 q 24 519 23 484 q 142 555 26 547 q 342 547 259 564 q 479 494 426 529 q 570 389 533 458 q 612 24 597 336 q 586 -1 612 7 q 533 -4 560 -9 q 506 19 506 1 q 505 79 506 26 q 502 168 503 133 q 492 256 500 202 q 472 353 484 311 q 339 458 449 431 q 217 469 294 469 q 136 456 140 469 q 132 352 133 449 q 130 142 130 255 q 127 5 129 30 q 100 -9 127 -8 q 45 3 72 -9 q 19 37 19 16 z "},"":{"ha":735,"x_min":18,"x_max":713,"o":"m 138 1044 q 140 1069 130 1054 q 166 1090 151 1084 q 193 1088 182 1096 q 227 1053 208 1072 q 273 1009 247 1034 q 317 968 300 985 q 359 1019 332 985 q 405 1072 387 1053 q 434 1093 423 1092 q 479 1081 456 1096 q 491 1050 502 1066 q 380 919 429 967 q 315 871 332 871 q 305 873 311 871 q 293 880 300 875 q 279 891 286 886 q 262 907 273 897 q 243 927 252 918 q 221 951 235 936 q 197 979 208 967 q 168 1010 186 990 q 138 1044 151 1029 m 80 22 q 24 141 24 81 q 22 431 24 233 q 18 709 19 628 q 22 836 18 791 q 551 736 378 891 q 663 595 627 667 q 706 439 700 522 q 711 242 712 355 q 713 -22 711 129 q 659 -1 715 -45 q 602 64 604 43 q 604 233 600 99 q 593 458 608 368 q 533 600 579 549 q 359 728 445 694 q 127 761 273 762 q 121 643 122 761 q 126 347 121 525 q 141 14 132 170 q 109 5 142 -4 q 80 22 90 11 z "},"":{"ha":632,"x_min":19,"x_max":612,"o":"m 138 815 q 141 840 130 825 q 168 861 152 854 q 193 859 183 867 q 228 823 209 842 q 274 780 247 804 q 317 739 301 755 q 361 790 334 757 q 406 843 388 823 q 434 864 423 863 q 480 852 457 867 q 491 821 503 837 q 382 690 430 738 q 315 642 334 642 q 306 644 311 642 q 294 651 301 646 q 281 662 288 656 q 264 678 274 667 q 245 698 254 689 q 222 722 236 707 q 198 749 209 738 q 170 781 187 761 q 138 815 152 800 m 19 37 q 22 283 20 83 q 24 519 23 484 q 142 555 26 547 q 342 547 259 564 q 479 494 426 529 q 570 389 533 458 q 612 24 597 336 q 586 -1 612 7 q 533 -4 560 -9 q 506 19 506 1 q 505 79 506 26 q 502 168 503 133 q 492 256 500 202 q 472 353 484 311 q 339 458 449 431 q 217 469 294 469 q 136 456 140 469 q 132 352 133 449 q 130 142 130 255 q 127 5 129 30 q 100 -9 127 -8 q 45 3 72 -9 q 19 37 19 16 z "},"":{"ha":694,"x_min":22,"x_max":667,"o":"m 167 1005 q 559 1006 412 1005 q 585 987 576 1006 q 585 947 593 967 q 559 925 576 926 q 165 922 313 921 q 140 943 148 922 q 140 985 133 964 q 167 1005 148 1005 m 403 739 q 256 705 321 760 q 153 559 191 651 q 130 341 117 453 q 180 189 142 229 q 199 170 197 172 q 216 152 202 167 q 237 134 231 137 q 256 120 243 130 q 279 108 270 110 q 300 102 288 106 q 326 100 313 98 q 353 106 339 102 q 500 188 430 130 q 578 328 571 245 q 552 507 585 410 q 476 668 519 604 q 403 739 433 732 m 98 694 q 232 804 146 769 q 392 838 317 840 q 521 779 458 837 q 621 641 583 720 q 667 488 659 562 q 625 186 694 258 q 468 45 532 87 q 305 0 404 4 q 180 37 229 -3 q 72 164 130 77 q 32 274 46 202 q 22 422 18 346 q 98 694 30 594 z "},"":{"ha":700,"x_min":42,"x_max":637,"o":"m 156 726 q 548 727 401 726 q 574 707 566 727 q 574 667 582 688 q 548 646 566 647 q 155 643 302 642 q 130 664 137 643 q 130 705 122 685 q 156 726 137 726 m 133 297 q 170 144 113 189 q 425 85 283 53 q 581 241 570 121 q 495 420 591 350 q 368 466 441 460 q 224 438 294 472 q 163 382 183 416 q 133 297 142 349 m 42 400 q 351 559 129 559 q 637 400 543 559 q 684 207 696 305 q 594 56 673 109 q 319 -5 484 -16 q 85 83 155 5 q 22 202 38 137 q 14 315 5 267 q 42 400 22 362 z "},"":{"ha":1069,"x_min":22,"x_max":1043,"o":"m 305 0 q 178 40 228 0 q 72 164 129 80 q 32 274 46 202 q 22 422 18 346 q 98 694 30 594 q 232 804 146 769 q 392 838 317 840 q 430 830 414 838 q 431 830 431 830 q 511 831 434 836 q 743 814 587 826 q 1027 798 899 803 q 1040 773 1043 795 q 1024 736 1038 751 q 943 703 990 700 q 715 720 864 709 q 555 727 566 730 q 543 676 549 727 q 534 582 536 625 q 543 530 533 538 q 578 530 545 530 q 632 530 610 530 q 694 532 654 530 q 767 535 734 533 q 842 542 800 537 q 921 552 884 547 q 1006 533 970 563 q 1032 498 1024 519 q 1024 469 1040 476 q 884 448 958 456 q 763 439 811 441 q 640 435 715 437 q 534 433 566 434 q 532 164 521 433 q 534 150 532 156 q 543 140 537 144 q 555 133 549 136 q 572 128 562 130 q 590 125 583 126 q 608 124 597 125 q 627 122 620 123 q 803 123 688 115 q 979 117 918 132 q 1023 94 1006 113 q 1043 47 1040 76 q 1040 37 1043 41 q 1029 31 1036 33 q 1016 28 1021 28 q 1000 28 1010 28 q 985 27 989 28 q 849 18 937 24 q 711 9 761 12 q 587 3 661 5 q 445 0 513 0 l 305 0 m 403 739 q 256 706 321 760 q 153 559 191 652 q 130 341 117 453 q 180 189 142 229 q 217 151 206 161 q 250 123 228 141 q 296 100 273 106 q 347 96 319 95 q 370 96 355 96 q 391 97 384 96 q 408 100 399 98 q 423 106 416 102 q 425 734 422 644 q 403 739 423 735 z "},"":{"ha":1200,"x_min":14,"x_max":1194,"o":"m 1093 327 q 980 281 1070 312 q 809 218 890 251 q 709 155 728 184 q 796 100 750 114 q 935 88 865 80 q 1052 112 990 95 q 1138 141 1114 129 q 1170 132 1152 148 q 1193 98 1188 117 q 1185 69 1198 79 q 998 5 1096 16 q 757 22 888 -7 q 631 87 682 38 q 594 56 614 69 q 319 -5 484 -16 q 85 83 155 5 q 22 202 38 137 q 14 315 5 267 q 42 400 22 362 q 351 559 129 559 q 637 400 543 559 q 647 384 642 392 q 704 448 670 415 q 1010 519 838 572 q 1081 480 1050 507 q 1114 431 1112 453 q 1117 407 1115 423 q 1120 382 1119 391 q 1119 362 1120 374 q 1111 342 1118 350 q 1093 327 1104 334 m 1038 407 q 998 437 1034 423 q 910 456 962 452 q 825 428 873 457 q 738 361 777 399 q 701 285 720 342 q 699 267 696 266 q 707 277 701 269 q 771 307 716 289 q 886 341 826 326 q 994 376 947 357 q 1038 407 1040 395 m 133 297 q 170 144 113 189 q 425 85 283 53 q 581 241 570 121 q 495 420 591 350 q 368 466 441 460 q 224 438 294 472 q 163 382 183 416 q 133 297 142 349 z "},"":{"ha":838,"x_min":19,"x_max":819,"o":"m 247 970 q 323 1010 286 990 q 377 1040 361 1031 q 422 1064 393 1050 q 494 1097 452 1078 q 595 1089 517 1107 q 632 1073 636 1080 q 629 1070 632 1072 q 345 935 454 990 q 262 940 313 918 q 247 970 227 956 m 153 750 q 142 690 142 749 q 146 574 141 632 q 153 517 151 517 q 237 530 184 522 q 321 541 290 537 q 395 553 351 545 q 466 566 439 560 q 525 581 492 572 q 576 600 557 590 q 612 621 595 609 q 637 647 629 632 q 644 678 644 662 q 497 764 643 743 q 153 750 351 784 m 19 811 q 355 871 232 865 q 602 845 479 878 q 730 761 688 825 q 761 644 773 697 q 681 525 739 549 q 508 478 614 496 q 330 450 401 460 q 255 433 258 441 q 309 410 252 427 q 453 362 366 393 q 591 300 540 331 q 713 211 669 251 q 819 90 758 171 q 792 39 840 62 q 704 31 742 14 q 689 42 694 35 q 427 255 582 172 q 317 299 382 278 q 210 325 251 320 q 161 323 170 330 q 159 53 159 307 q 117 4 159 23 q 65 7 76 -15 q 64 14 64 9 q 52 186 56 121 q 45 316 47 252 q 39 437 42 380 q 28 598 37 487 q 18 745 20 709 q 19 811 16 781 z "},"":{"ha":536,"x_min":19,"x_max":519,"o":"m 98 671 q 174 712 137 692 q 228 742 212 732 q 273 766 244 751 q 345 799 302 780 q 446 791 368 808 q 483 774 487 781 q 480 772 483 773 q 195 636 305 692 q 113 642 164 620 q 98 671 77 658 m 19 16 q 22 445 33 278 q 58 506 20 465 q 109 547 95 547 q 310 519 218 551 q 519 416 401 488 q 508 380 529 411 q 475 345 487 349 q 427 340 445 335 q 372 369 408 345 q 243 432 323 400 q 151 439 164 464 q 143 373 144 427 q 145 258 142 319 q 144 141 148 198 q 98 14 138 54 q 68 -2 87 3 q 34 -2 49 -7 q 19 16 19 3 z "},"":{"ha":838,"x_min":19,"x_max":819,"o":"m 365 -16 q 408 -4 372 19 q 446 -49 434 -20 q 452 -109 453 -71 q 446 -155 452 -146 q 361 -249 400 -216 q 311 -252 323 -282 q 314 -224 308 -248 q 336 -141 320 -201 q 365 -16 351 -81 m 153 750 q 142 690 142 749 q 146 574 141 632 q 153 517 151 517 q 237 530 184 522 q 321 541 290 537 q 395 553 351 545 q 466 566 439 560 q 525 581 492 572 q 576 600 557 590 q 612 621 595 609 q 637 647 629 632 q 644 678 644 662 q 497 764 643 743 q 153 750 351 784 m 19 811 q 355 871 232 865 q 602 845 479 878 q 730 761 688 825 q 761 644 773 697 q 681 525 739 549 q 508 478 614 496 q 330 450 401 460 q 255 433 258 441 q 309 410 252 427 q 453 362 366 393 q 591 300 540 331 q 713 211 669 251 q 819 90 758 171 q 792 39 840 62 q 704 31 742 14 q 689 42 694 35 q 427 255 582 172 q 317 299 382 278 q 210 325 251 320 q 161 323 170 330 q 159 53 159 307 q 117 4 159 23 q 65 7 76 -15 q 64 14 64 9 q 52 186 56 121 q 45 316 47 252 q 39 437 42 380 q 28 598 37 487 q 18 745 20 709 q 19 811 16 781 z "},"":{"ha":536,"x_min":18,"x_max":519,"o":"m 72 -36 q 114 -25 78 -4 q 151 -66 139 -40 q 157 -120 158 -86 q 151 -163 156 -155 q 68 -249 106 -218 q 19 -252 30 -279 q 22 -226 16 -248 q 43 -150 28 -205 q 72 -36 58 -96 m 19 16 q 22 445 33 278 q 58 506 20 465 q 109 547 95 547 q 310 519 218 551 q 519 416 401 488 q 508 380 529 411 q 475 345 487 349 q 427 340 445 335 q 372 369 408 345 q 243 432 323 400 q 151 439 164 464 q 143 373 144 427 q 145 258 142 319 q 144 141 148 198 q 98 14 138 54 q 68 -2 87 3 q 34 -2 49 -7 q 19 16 19 3 z "},"":{"ha":838,"x_min":18,"x_max":819,"o":"m 205 1063 q 208 1088 197 1073 q 233 1109 218 1103 q 259 1107 248 1115 q 294 1072 275 1090 q 340 1029 313 1054 q 384 987 368 1004 q 427 1039 400 1005 q 472 1092 454 1073 q 500 1112 490 1111 q 547 1101 524 1116 q 557 1069 570 1085 q 448 939 495 987 q 381 890 400 890 q 372 892 377 890 q 360 901 368 895 q 347 911 353 906 q 330 927 340 917 q 311 947 319 937 q 288 971 302 956 q 264 998 274 986 q 236 1030 254 1010 q 205 1063 218 1050 m 153 750 q 142 690 142 749 q 146 574 141 632 q 153 517 151 517 q 237 530 184 522 q 321 541 290 537 q 395 553 351 545 q 466 566 439 560 q 525 581 492 572 q 576 600 557 590 q 612 621 595 609 q 637 647 629 632 q 644 678 644 662 q 497 764 643 743 q 153 750 351 784 m 19 811 q 355 871 232 865 q 602 845 479 878 q 730 761 688 825 q 761 644 773 697 q 681 525 739 549 q 508 478 614 496 q 330 450 401 460 q 255 433 258 441 q 309 410 252 427 q 453 362 366 393 q 591 300 540 331 q 713 211 669 251 q 819 90 758 171 q 792 39 840 62 q 704 31 742 14 q 689 42 694 35 q 427 255 582 172 q 317 299 382 278 q 210 325 251 320 q 161 323 170 330 q 159 53 159 307 q 117 4 159 23 q 65 7 76 -15 q 64 14 64 9 q 52 186 56 121 q 45 316 47 252 q 39 437 42 380 q 28 598 37 487 q 18 745 20 709 q 19 811 16 781 z "},"":{"ha":536,"x_min":19,"x_max":519,"o":"m 91 772 q 94 796 83 781 q 119 817 104 811 q 145 815 134 823 q 180 780 161 799 q 227 736 199 761 q 270 696 254 712 q 313 747 286 713 q 358 800 340 780 q 387 821 376 819 q 433 808 410 823 q 444 777 456 793 q 334 646 382 694 q 267 598 286 598 q 258 600 263 598 q 247 608 254 602 q 233 618 240 613 q 216 635 227 624 q 197 654 206 646 q 175 679 189 663 q 151 706 161 694 q 122 737 140 718 q 91 772 104 757 m 19 16 q 22 445 33 278 q 58 506 20 465 q 109 547 95 547 q 310 519 218 551 q 519 416 401 488 q 508 380 529 411 q 475 345 487 349 q 427 340 445 335 q 372 369 408 345 q 243 432 323 400 q 151 439 164 464 q 143 373 144 427 q 145 258 142 319 q 144 141 148 198 q 98 14 138 54 q 68 -2 87 3 q 34 -2 49 -7 q 19 16 19 3 z "},"":{"ha":738,"x_min":22,"x_max":713,"o":"m 195 937 q 272 978 235 958 q 326 1008 309 998 q 371 1031 342 1017 q 442 1065 400 1046 q 544 1057 465 1074 q 581 1040 585 1047 q 578 1038 581 1039 q 293 902 403 958 q 210 907 262 886 q 195 937 175 924 m 589 836 q 602 812 601 836 q 595 767 602 789 q 578 745 587 745 q 511 749 562 745 q 429 753 460 753 q 351 747 397 754 q 264 722 304 739 q 143 632 191 688 q 138 538 95 576 q 229 485 174 507 q 329 453 285 463 q 446 431 373 444 q 551 411 519 418 q 684 335 639 392 q 713 231 730 278 q 607 105 688 156 q 415 33 526 54 q 210 5 304 12 q 22 0 115 -3 q 13 27 11 4 q 26 77 15 50 q 45 103 37 103 q 107 102 57 103 q 184 102 157 102 q 263 104 212 102 q 348 111 315 107 q 425 124 381 115 q 498 145 469 133 q 553 178 526 157 q 594 222 581 198 q 486 331 629 286 q 213 389 429 349 q 197 392 203 391 q 42 500 100 410 q 22 652 -16 591 q 244 804 88 760 q 589 836 400 849 z "},"":{"ha":533,"x_min":22,"x_max":511,"o":"m 98 659 q 174 700 137 680 q 228 730 212 720 q 273 753 244 739 q 345 787 302 768 q 446 779 368 796 q 483 762 487 769 q 480 760 483 761 q 195 624 305 680 q 113 629 164 608 q 98 659 77 646 m 495 538 q 486 496 519 526 q 442 472 464 476 q 412 479 438 471 q 353 493 385 488 q 267 488 320 498 q 163 410 212 475 q 127 326 115 346 q 198 298 145 297 q 304 309 251 300 q 416 297 358 319 q 511 167 511 258 q 479 96 511 132 q 400 45 446 61 q 262 2 304 9 q 111 -5 221 -5 q 91 -1 106 -5 q 60 8 76 3 q 32 20 43 14 q 22 31 20 27 q 53 66 26 42 q 90 90 80 91 q 286 111 175 81 q 389 178 396 140 q 339 220 382 214 q 243 217 296 227 q 130 216 190 208 q 39 262 71 224 q 18 330 20 286 q 34 403 16 374 q 159 526 85 477 q 297 581 232 574 q 392 572 335 583 q 495 538 449 560 z "},"":{"ha":738,"x_min":22,"x_max":713,"o":"m 161 920 q 193 954 175 935 q 220 985 210 974 q 245 1013 231 997 q 267 1037 259 1028 q 286 1057 275 1046 q 302 1073 296 1067 q 317 1084 309 1078 q 329 1091 324 1089 q 338 1093 334 1093 q 404 1045 357 1093 q 514 914 452 997 q 503 883 526 898 q 457 871 480 868 q 429 892 446 872 q 384 945 411 911 q 340 996 357 978 q 297 955 324 979 q 251 911 270 930 q 216 876 232 892 q 190 874 205 868 q 164 895 175 880 q 161 920 153 910 m 589 836 q 602 812 601 836 q 595 767 602 789 q 578 745 587 745 q 511 749 562 745 q 429 753 460 753 q 351 747 397 754 q 264 722 304 739 q 143 632 191 688 q 138 538 95 576 q 229 485 174 507 q 329 453 285 463 q 446 431 373 444 q 551 411 519 418 q 684 335 639 392 q 713 231 730 278 q 607 105 688 156 q 415 33 526 54 q 210 5 304 12 q 22 0 115 -3 q 13 27 11 4 q 26 77 15 50 q 45 103 37 103 q 107 102 57 103 q 184 102 157 102 q 263 104 212 102 q 348 111 315 107 q 425 124 381 115 q 498 145 469 133 q 553 178 526 157 q 594 222 581 198 q 486 331 629 286 q 213 389 429 349 q 197 392 203 391 q 42 500 100 410 q 22 652 -16 591 q 244 804 88 760 q 589 836 400 849 z "},"":{"ha":533,"x_min":22,"x_max":511,"o":"m 91 680 q 122 714 104 694 q 150 745 140 734 q 174 772 160 757 q 197 797 189 788 q 215 817 205 806 q 232 833 225 827 q 246 844 239 838 q 258 851 254 849 q 267 853 263 853 q 334 805 286 853 q 444 674 381 757 q 433 643 456 658 q 387 631 410 628 q 358 652 376 632 q 313 705 340 671 q 270 755 286 738 q 227 715 254 739 q 180 671 199 690 q 145 636 161 652 q 119 634 134 628 q 94 655 104 640 q 91 680 83 670 m 495 538 q 486 496 519 526 q 442 472 464 476 q 412 479 438 471 q 353 493 385 488 q 267 488 320 498 q 163 410 212 475 q 127 326 115 346 q 198 298 145 297 q 304 309 251 300 q 416 297 358 319 q 511 167 511 258 q 479 96 511 132 q 400 45 446 61 q 262 2 304 9 q 111 -5 221 -5 q 91 -1 106 -5 q 60 8 76 3 q 32 20 43 14 q 22 31 20 27 q 53 66 26 42 q 90 90 80 91 q 286 111 175 81 q 389 178 396 140 q 339 220 382 214 q 243 217 296 227 q 130 216 190 208 q 39 262 71 224 q 18 330 20 286 q 34 403 16 374 q 159 526 85 477 q 297 581 232 574 q 392 572 335 583 q 495 538 449 560 z "},"":{"ha":738,"x_min":12,"x_max":713,"o":"m 349 -96 q 292 -150 321 -132 q 216 -178 262 -168 q 99 -142 161 -187 q 92 -116 90 -132 q 107 -87 95 -100 q 129 -80 119 -75 q 168 -98 153 -92 q 205 -103 183 -103 q 243 -91 227 -103 q 277 -51 269 -72 q 285 11 285 -30 q 22 0 159 -4 q 13 27 11 4 q 26 77 15 50 q 45 103 37 103 q 107 102 57 103 q 184 102 157 102 q 263 104 212 102 q 348 111 315 107 q 425 124 381 115 q 498 145 469 133 q 553 178 526 157 q 594 222 581 198 q 486 331 629 286 q 213 389 429 349 q 197 392 203 391 q 42 500 100 410 q 22 652 -16 591 q 244 804 88 760 q 589 836 400 849 q 602 812 601 836 q 595 767 602 789 q 578 745 587 745 q 511 749 562 745 q 429 753 460 753 q 351 747 397 754 q 264 722 304 739 q 143 632 191 688 q 138 538 95 576 q 229 485 174 507 q 329 453 285 463 q 446 431 373 444 q 551 411 519 418 q 684 335 639 392 q 713 231 730 278 q 363 23 661 76 q 363 22 363 22 q 365 -7 363 12 q 366 -39 366 -27 q 362 -66 366 -50 q 349 -96 358 -83 z "},"":{"ha":533,"x_min":18,"x_max":511,"o":"m 368 -98 q 351 -130 362 -117 q 330 -150 340 -142 q 300 -161 320 -157 q 270 -165 281 -164 q 235 -168 259 -167 q 118 -133 171 -171 q 111 -106 109 -122 q 125 -78 114 -91 q 148 -71 137 -65 q 187 -88 172 -83 q 224 -94 202 -94 q 262 -81 245 -94 q 277 -63 273 -72 q 281 -49 281 -54 q 279 -25 282 -43 q 277 4 277 -7 q 111 -5 231 -5 q 91 -1 106 -5 q 60 8 76 3 q 32 20 43 14 q 22 31 20 27 q 53 66 26 42 q 90 90 80 91 q 286 111 175 81 q 389 178 396 140 q 339 220 382 214 q 243 217 296 227 q 130 216 190 208 q 39 262 71 224 q 18 330 20 286 q 34 403 16 374 q 159 526 85 477 q 297 581 232 574 q 392 572 335 583 q 495 538 449 560 q 486 496 519 526 q 442 472 464 476 q 412 479 438 471 q 353 493 385 488 q 267 488 320 498 q 163 410 212 475 q 127 326 115 346 q 198 298 145 297 q 304 309 251 300 q 416 297 358 319 q 511 167 511 258 q 479 96 511 132 q 400 45 446 61 q 359 30 374 35 q 366 -11 361 16 q 372 -54 370 -38 q 368 -98 373 -69 z "},"":{"ha":738,"x_min":12,"x_max":713,"o":"m 190 1054 q 192 1078 182 1063 q 218 1099 202 1093 q 244 1097 233 1105 q 278 1063 259 1081 q 324 1019 297 1044 q 369 978 351 994 q 411 1029 384 996 q 456 1082 438 1063 q 486 1103 475 1101 q 530 1091 507 1107 q 543 1059 553 1076 q 432 928 480 977 q 366 880 384 880 q 356 882 361 880 q 345 890 351 884 q 331 901 338 895 q 314 918 324 907 q 295 937 304 928 q 273 961 286 945 q 248 988 259 977 q 220 1019 237 1000 q 190 1054 202 1039 m 589 836 q 602 812 601 836 q 595 767 602 789 q 578 745 587 745 q 511 749 562 745 q 429 753 460 753 q 351 747 397 754 q 264 722 304 739 q 143 632 191 688 q 138 538 95 576 q 229 485 174 507 q 329 453 285 463 q 446 431 373 444 q 551 411 519 418 q 684 335 639 392 q 713 231 730 278 q 607 105 688 156 q 415 33 526 54 q 210 5 304 12 q 22 0 115 -3 q 13 27 11 4 q 26 77 15 50 q 45 103 37 103 q 107 102 57 103 q 184 102 157 102 q 263 104 212 102 q 348 111 315 107 q 425 124 381 115 q 498 145 469 133 q 553 178 526 157 q 594 222 581 198 q 486 331 629 286 q 213 389 429 349 q 197 392 203 391 q 42 500 100 410 q 22 652 -16 591 q 244 804 88 760 q 589 836 400 849 z "},"":{"ha":533,"x_min":18,"x_max":511,"o":"m 110 791 q 113 815 102 800 q 138 836 123 830 q 164 834 153 842 q 199 800 180 818 q 245 756 218 781 q 289 715 273 731 q 332 766 305 732 q 377 819 359 800 q 406 840 395 838 q 452 828 429 844 q 463 796 475 812 q 353 666 401 715 q 286 617 305 617 q 277 620 282 617 q 265 628 273 623 q 252 639 258 633 q 235 654 245 644 q 216 674 224 665 q 193 699 208 684 q 169 726 179 713 q 141 758 159 738 q 110 791 123 777 m 495 538 q 486 496 519 526 q 442 472 464 476 q 412 479 438 471 q 353 493 385 488 q 267 488 320 498 q 163 410 212 475 q 127 326 115 346 q 198 298 145 297 q 304 309 251 300 q 416 297 358 319 q 511 167 511 258 q 479 96 511 132 q 400 45 446 61 q 262 2 304 9 q 111 -5 221 -5 q 91 -1 106 -5 q 60 8 76 3 q 32 20 43 14 q 22 31 20 27 q 53 66 26 42 q 90 90 80 91 q 286 111 175 81 q 389 178 396 140 q 339 220 382 214 q 243 217 296 227 q 130 216 190 208 q 39 262 71 224 q 18 330 20 286 q 34 403 16 374 q 159 526 85 477 q 297 581 232 574 q 392 572 335 583 q 495 538 449 560 z "},"":{"ha":886,"x_min":24,"x_max":856,"o":"m 530 -114 q 458 -164 492 -148 q 373 -187 423 -180 q 256 -152 315 -195 q 249 -127 247 -142 q 263 -98 251 -111 q 286 -90 275 -85 q 400 -100 349 -121 q 416 -95 404 -99 q 431 -89 427 -91 q 444 -82 435 -87 q 455 -73 452 -77 q 463 -60 458 -68 q 469 -41 467 -52 q 471 -16 471 -31 q 491 -16 473 -15 q 529 -20 509 -16 q 549 -28 549 -24 q 549 -50 549 -35 q 549 -71 549 -65 q 547 -85 549 -76 q 541 -101 545 -95 q 530 -114 537 -107 m 24 838 q 431 853 182 841 q 856 864 680 865 q 872 821 884 864 q 829 761 860 776 q 822 758 826 760 q 736 758 808 755 q 612 763 665 761 q 544 755 560 765 q 540 640 540 745 q 542 330 540 534 q 544 3 544 126 q 491 12 544 -24 q 437 64 456 37 q 427 90 427 76 q 432 123 427 104 q 437 153 437 141 q 435 396 437 251 q 433 638 434 541 q 433 747 433 735 q 410 757 433 755 q 345 754 387 758 q 255 745 302 750 q 144 735 208 741 q 31 728 81 730 q 11 755 19 728 q 5 810 3 783 q 24 838 8 838 z "},"":{"ha":435,"x_min":1,"x_max":425,"o":"m 282 -84 q 210 -134 244 -118 q 125 -157 175 -151 q 8 -122 68 -165 q 1 -96 -1 -113 q 16 -67 4 -80 q 38 -60 27 -54 q 152 -71 100 -91 q 169 -64 156 -69 q 186 -58 182 -60 q 198 -50 190 -56 q 210 -39 206 -45 q 216 -25 213 -34 q 221 -4 220 -16 q 214 -3 218 -3 q 77 100 130 11 q 34 292 43 156 q 22 800 18 488 q 45 810 22 804 q 88 815 68 815 q 111 808 109 815 q 117 606 111 716 q 127 486 122 495 q 188 478 132 480 q 294 477 244 476 q 361 477 343 479 q 381 457 374 476 q 387 420 388 438 q 381 400 387 401 q 298 397 353 395 q 190 399 244 399 q 136 392 136 399 q 167 172 136 273 q 231 95 186 111 q 338 81 286 80 q 406 90 389 83 q 423 72 419 95 q 408 24 427 37 q 301 -5 358 0 q 302 -19 301 -9 q 302 -33 302 -28 q 302 -44 302 -37 q 300 -56 301 -52 q 296 -65 298 -60 q 291 -75 294 -71 q 282 -84 288 -79 z "},"":{"ha":886,"x_min":5,"x_max":873,"o":"m 288 1061 q 290 1085 279 1070 q 316 1106 301 1100 q 342 1104 331 1112 q 377 1069 358 1088 q 423 1026 396 1051 q 467 985 450 1001 q 510 1036 483 1002 q 555 1089 537 1070 q 583 1109 572 1108 q 629 1098 606 1114 q 640 1066 652 1082 q 531 935 579 983 q 464 887 483 887 q 455 889 460 887 q 444 897 450 891 q 430 908 437 902 q 413 924 423 914 q 394 943 403 935 q 372 968 385 952 q 347 995 358 983 q 319 1026 336 1006 q 288 1061 301 1046 m 24 838 q 431 853 182 841 q 856 864 680 865 q 872 821 884 864 q 829 761 860 776 q 822 758 826 760 q 736 758 808 755 q 612 763 665 761 q 544 755 560 765 q 540 640 540 745 q 542 330 540 534 q 544 3 544 126 q 491 12 544 -24 q 437 64 456 37 q 427 90 427 76 q 432 123 427 104 q 437 153 437 141 q 435 396 437 251 q 433 638 434 541 q 433 747 433 735 q 410 757 433 755 q 345 754 387 758 q 255 745 302 750 q 144 735 208 741 q 31 728 81 730 q 11 755 19 728 q 5 810 3 783 q 24 838 8 838 z "},"":{"ha":435,"x_min":22,"x_max":408,"o":"m 270 795 q 313 807 277 830 q 351 762 339 791 q 357 703 358 741 q 351 656 357 665 q 267 562 305 595 q 216 559 228 529 q 219 587 213 563 q 241 670 225 610 q 270 795 256 730 m 22 800 q 45 810 22 804 q 88 815 68 815 q 111 808 109 815 q 117 606 111 716 q 127 486 122 495 q 188 478 132 480 q 294 477 244 476 q 361 477 343 479 q 381 457 374 476 q 387 420 388 438 q 381 400 387 401 q 298 397 353 395 q 190 399 244 399 q 136 392 136 399 q 167 172 136 273 q 231 95 186 111 q 338 81 286 80 q 406 90 389 83 q 423 72 419 95 q 408 24 427 37 q 214 -3 319 -18 q 77 100 130 11 q 34 292 43 156 q 22 800 18 488 z "},"":{"ha":624,"x_min":-20,"x_max":646,"o":"m -19 947 q -2 1003 -11 979 q 22 1051 7 1027 q 58 1088 37 1076 q 109 1101 80 1101 q 212 1080 161 1101 q 296 1033 262 1059 q 380 981 330 1006 q 483 947 431 955 q 507 955 498 944 q 522 981 517 966 q 536 1011 526 996 q 562 1031 547 1027 q 623 1029 590 1039 q 646 996 655 1019 q 581 893 617 930 q 488 857 544 856 q 386 880 435 857 q 303 928 336 902 q 220 978 270 955 q 119 1004 171 1001 q 92 987 100 1004 q 82 948 83 970 q 73 905 81 926 q 49 876 65 883 q 5 897 35 871 q -19 947 -26 922 m 22 780 q 49 787 22 784 q 103 790 76 791 q 130 784 130 789 q 131 524 136 636 q 132 326 126 411 q 161 206 137 240 q 275 133 199 155 q 410 115 351 111 q 469 133 468 119 q 467 792 481 517 q 519 808 467 802 q 575 795 572 814 q 602 306 593 560 q 602 34 610 52 q 499 -1 591 7 q 289 16 407 -9 q 137 79 212 34 q 53 170 62 125 q 36 245 45 209 q 24 290 27 282 q 19 318 22 297 q 17 347 16 339 q 18 393 18 355 q 20 469 19 430 q 22 593 22 507 q 22 780 22 678 z "},"":{"ha":571,"x_min":-4,"x_max":570,"o":"m -3 692 q 11 748 4 725 q 32 796 19 772 q 63 833 45 820 q 106 845 82 845 q 195 825 152 845 q 268 778 239 804 q 341 726 297 751 q 429 692 385 700 q 450 700 442 690 q 462 726 458 711 q 475 756 466 741 q 497 776 484 772 q 549 774 521 784 q 569 741 577 764 q 513 639 545 676 q 434 604 482 603 q 345 626 388 604 q 274 674 303 648 q 203 723 246 700 q 116 749 160 746 q 92 732 99 749 q 84 694 84 715 q 76 651 83 672 q 55 623 69 629 q 17 643 43 617 q -3 692 -9 668 m 22 522 q 46 534 22 530 q 95 534 71 537 q 119 525 119 530 q 117 471 119 513 q 113 407 114 429 q 112 346 113 385 q 115 283 111 307 q 123 231 118 259 q 138 183 127 202 q 161 153 148 164 q 299 98 216 111 q 437 103 382 84 q 453 130 452 107 q 450 266 454 152 q 442 519 445 407 q 467 541 442 532 q 513 550 491 551 q 538 541 534 549 q 542 324 538 450 q 549 116 545 198 q 551 24 552 34 q 490 3 549 11 q 347 -1 431 -5 q 203 24 263 4 q 31 199 58 75 q 22 522 22 244 z "},"":{"ha":624,"x_min":22,"x_max":602,"o":"m 111 989 q 503 990 357 989 q 529 970 521 990 q 529 930 537 951 q 503 909 521 910 q 110 906 258 905 q 85 927 92 906 q 85 968 77 948 q 111 989 92 989 m 22 780 q 49 787 22 784 q 103 790 76 791 q 130 784 130 789 q 131 524 136 636 q 132 326 126 411 q 161 206 137 240 q 275 133 199 155 q 410 115 351 111 q 469 133 468 119 q 467 792 481 517 q 519 808 467 802 q 575 795 572 814 q 602 306 593 560 q 602 34 610 52 q 499 -1 591 7 q 289 16 407 -9 q 137 79 212 34 q 53 170 62 125 q 36 245 45 209 q 24 290 27 282 q 19 318 22 297 q 17 347 16 339 q 18 393 18 355 q 20 469 19 430 q 22 593 22 507 q 22 780 22 678 z "},"":{"ha":571,"x_min":22,"x_max":551,"o":"m 83 718 q 475 719 328 718 q 500 699 492 719 q 500 659 509 680 q 475 637 492 639 q 81 635 229 633 q 56 656 64 635 q 56 697 49 677 q 83 718 64 718 m 22 522 q 46 534 22 530 q 95 534 71 537 q 119 525 119 530 q 117 471 119 513 q 113 407 114 429 q 112 346 113 385 q 115 283 111 307 q 123 231 118 259 q 138 183 127 202 q 161 153 148 164 q 299 98 216 111 q 437 103 382 84 q 453 130 452 107 q 450 266 454 152 q 442 519 445 407 q 467 541 442 532 q 513 550 491 551 q 538 541 534 549 q 542 324 538 450 q 549 116 545 198 q 551 24 552 34 q 490 3 549 11 q 347 -1 431 -5 q 203 24 263 4 q 31 199 58 75 q 22 522 22 244 z "},"":{"ha":624,"x_min":22,"x_max":602,"o":"m 269 1004 q 246 970 250 994 q 260 933 243 945 q 300 935 278 922 q 326 968 323 947 q 307 1001 328 989 q 269 1004 286 1013 m 225 1062 q 309 1069 266 1074 q 385 1036 353 1065 q 412 970 416 1008 q 370 899 407 928 q 290 868 334 871 q 203 883 245 865 q 165 936 172 898 q 176 1011 159 974 q 225 1062 193 1048 m 22 780 q 49 787 22 784 q 103 790 76 791 q 130 784 130 789 q 131 524 136 636 q 132 326 126 411 q 161 206 137 240 q 275 133 199 155 q 410 115 351 111 q 469 133 468 119 q 467 792 481 517 q 519 808 467 802 q 575 795 572 814 q 602 306 593 560 q 602 34 610 52 q 499 -1 591 7 q 289 16 407 -9 q 137 79 212 34 q 53 170 62 125 q 36 245 45 209 q 24 290 27 282 q 19 318 22 297 q 17 347 16 339 q 18 393 18 355 q 20 469 19 430 q 22 593 22 507 q 22 780 22 678 z "},"":{"ha":571,"x_min":22,"x_max":551,"o":"m 275 768 q 253 734 256 758 q 267 697 250 709 q 307 699 285 686 q 332 732 330 711 q 314 765 335 753 q 275 768 293 777 m 232 826 q 316 833 273 838 q 391 800 359 829 q 419 734 423 772 q 377 663 414 692 q 296 632 340 635 q 210 647 252 629 q 172 700 179 662 q 182 775 165 738 q 232 826 199 812 m 22 522 q 46 534 22 530 q 95 534 71 537 q 119 525 119 530 q 117 471 119 513 q 113 407 114 429 q 112 346 113 385 q 115 283 111 307 q 123 231 118 259 q 138 183 127 202 q 161 153 148 164 q 299 98 216 111 q 437 103 382 84 q 453 130 452 107 q 450 266 454 152 q 442 519 445 407 q 467 541 442 532 q 513 550 491 551 q 538 541 534 549 q 542 324 538 450 q 549 116 545 198 q 551 24 552 34 q 490 3 549 11 q 347 -1 431 -5 q 203 24 263 4 q 31 199 58 75 q 22 522 22 244 z "},"":{"ha":1120,"x_min":22,"x_max":1092,"o":"m 363 823 q 395 858 377 838 q 422 889 412 878 q 447 916 433 901 q 469 941 461 932 q 488 960 477 949 q 505 977 498 971 q 519 987 511 982 q 531 995 526 993 q 540 997 536 997 q 606 949 559 997 q 716 818 654 901 q 705 787 728 802 q 659 774 682 772 q 631 795 648 776 q 586 848 613 815 q 543 899 559 882 q 499 859 526 883 q 453 815 472 834 q 418 780 434 796 q 392 778 407 772 q 366 799 377 784 q 363 823 355 814 m 22 792 q 43 815 15 811 q 107 800 84 822 q 114 792 111 796 q 239 468 178 670 q 316 225 300 266 q 350 258 321 210 q 378 311 358 273 q 499 488 460 463 q 519 495 510 495 q 593 426 538 496 q 697 290 648 355 q 755 233 746 225 q 803 351 770 247 q 888 599 836 454 q 994 838 940 743 q 1030 855 1004 854 q 1078 844 1057 856 q 1092 814 1099 831 q 817 11 1074 766 q 743 56 806 -20 q 612 227 681 133 q 525 320 543 320 q 488 271 513 320 q 437 164 463 222 q 379 58 412 106 q 320 11 346 9 q 293 22 305 11 q 267 64 281 34 q 239 131 252 94 q 204 236 227 168 q 159 376 182 304 q 99 562 137 448 q 22 792 61 677 z "},"":{"ha":1122,"x_min":19,"x_max":1103,"o":"m 313 669 q 345 703 327 684 q 372 734 362 723 q 397 762 382 746 q 419 786 411 777 q 437 806 427 795 q 454 822 448 817 q 469 833 461 827 q 481 840 476 838 q 490 842 486 842 q 556 794 509 842 q 666 663 604 746 q 655 632 678 647 q 609 620 632 617 q 581 641 598 621 q 536 694 563 661 q 492 745 509 727 q 449 704 476 728 q 403 661 422 680 q 368 625 384 642 q 342 623 357 617 q 316 644 327 629 q 313 669 305 659 m 19 458 q 50 503 9 484 q 103 498 90 521 q 176 356 127 453 q 256 201 225 259 q 294 144 288 144 q 340 233 305 142 q 419 417 376 324 q 491 514 463 510 q 579 417 511 517 q 709 217 647 317 q 780 117 772 117 q 833 186 798 117 q 926 374 869 255 q 1031 567 982 492 q 1063 573 1043 579 q 1097 547 1082 567 q 1103 514 1112 528 q 975 280 1044 420 q 863 64 906 140 q 792 -16 821 -11 q 741 18 776 -19 q 667 109 707 54 q 591 216 628 163 q 526 307 553 270 q 491 342 498 345 q 450 256 483 339 q 374 88 416 172 q 302 0 331 4 q 174 144 262 -5 q 19 458 85 294 z "},"":{"ha":791,"x_min":26,"x_max":774,"o":"m 218 932 q 250 966 232 947 q 277 998 267 986 q 302 1025 288 1009 q 324 1049 316 1040 q 342 1069 332 1058 q 359 1085 353 1080 q 374 1096 366 1090 q 386 1103 381 1101 q 395 1105 391 1105 q 461 1057 414 1105 q 571 926 509 1009 q 560 895 583 910 q 514 883 537 880 q 486 904 503 884 q 441 957 468 924 q 397 1008 414 990 q 354 967 381 991 q 308 924 327 943 q 273 888 289 905 q 247 886 262 880 q 221 907 232 892 q 218 932 210 922 m 27 785 q 36 817 16 796 q 81 849 56 837 q 114 854 107 861 q 264 694 189 779 q 373 573 339 610 q 416 536 407 536 q 515 639 429 536 q 703 872 602 742 q 734 877 715 883 q 768 853 754 871 q 774 822 783 836 q 614 594 689 692 q 509 462 540 496 q 477 425 477 427 l 477 39 q 426 1 477 18 q 366 5 372 -15 q 366 8 366 7 q 366 178 369 84 q 357 333 362 273 q 350 403 353 393 q 295 496 334 450 q 175 623 256 541 q 27 785 94 705 z "},"":{"ha":735,"x_min":19,"x_max":713,"o":"m 187 671 q 218 706 201 686 q 246 737 236 726 q 271 764 256 749 q 293 789 285 780 q 311 808 301 798 q 328 825 321 819 q 342 836 335 830 q 355 843 350 841 q 363 845 359 845 q 430 797 382 845 q 540 666 477 749 q 529 635 552 650 q 483 623 506 620 q 454 644 472 624 q 410 696 437 663 q 366 747 382 730 q 323 707 350 731 q 277 663 296 682 q 241 628 258 644 q 216 626 231 620 q 190 647 201 632 q 187 671 179 662 m 19 517 q 43 553 3 537 q 118 555 91 574 q 122 551 121 553 q 241 407 171 498 q 356 255 311 316 q 406 194 401 194 q 445 243 412 194 q 540 395 477 293 q 639 553 602 496 q 686 543 652 574 q 716 476 726 506 q 713 469 716 472 q 604 299 680 418 q 499 136 528 180 q 413 9 471 92 q 304 -144 355 -75 q 186 -294 252 -213 q 159 -279 172 -311 q 153 -231 145 -250 q 225 -94 176 -172 q 308 35 274 -16 q 339 95 342 87 q 19 517 323 141 z "},"":{"ha":791,"x_min":26,"x_max":774,"o":"m 441 1015 q 496 1037 460 1040 q 547 1006 532 1034 q 539 956 560 983 q 490 930 518 929 q 443 963 461 933 q 441 1015 425 993 m 273 949 q 260 961 273 949 q 256 1002 247 974 q 302 1035 266 1029 q 359 1017 338 1040 q 368 966 378 998 q 330 928 357 933 q 273 949 300 924 m 27 785 q 36 817 16 796 q 81 849 56 837 q 114 854 107 861 q 264 694 189 779 q 373 573 339 610 q 416 536 407 536 q 515 639 429 536 q 703 872 602 742 q 734 877 715 883 q 768 853 754 871 q 774 822 783 836 q 614 594 689 692 q 509 462 540 496 q 477 425 477 427 l 477 39 q 426 1 477 18 q 366 5 372 -15 q 366 8 366 7 q 366 178 369 84 q 357 333 362 273 q 350 403 353 393 q 295 496 334 450 q 175 623 256 541 q 27 785 94 705 z "},"":{"ha":796,"x_min":31,"x_max":758,"o":"m 233 939 q 310 979 273 959 q 363 1009 347 1000 q 409 1033 380 1019 q 480 1066 438 1047 q 582 1058 503 1076 q 618 1042 623 1048 q 616 1039 618 1040 q 331 903 441 959 q 248 909 300 887 q 233 939 213 925 m 31 850 q 286 851 136 849 q 533 850 437 853 q 755 838 629 848 q 779 819 774 837 q 777 778 783 800 q 758 739 770 755 q 532 471 674 627 q 297 214 391 315 q 203 103 203 114 q 280 93 203 94 q 513 97 357 92 q 728 103 669 102 q 753 77 747 103 q 750 26 760 52 q 722 0 741 0 l 31 0 q 17 33 9 7 q 45 85 24 58 q 278 361 133 198 q 517 630 423 525 q 612 745 612 735 q 534 753 612 753 q 329 753 456 754 q 42 758 202 751 q 15 781 24 758 q 9 827 5 804 q 31 850 14 850 z "},"":{"ha":727,"x_min":31,"x_max":697,"o":"m 165 674 q 242 715 205 694 q 296 745 279 735 q 341 768 312 754 q 412 802 370 783 q 514 793 435 811 q 551 777 555 784 q 548 774 551 776 q 263 639 373 694 q 180 644 232 623 q 165 674 145 661 m 42 553 q 525 570 259 556 q 550 539 547 571 q 538 488 553 507 q 401 326 488 418 q 255 176 315 233 q 197 117 195 118 q 378 135 202 107 q 697 194 553 163 q 715 178 715 198 q 681 109 713 141 q 655 92 667 95 q 465 55 555 71 q 256 20 376 39 q 56 -14 136 0 q 23 16 31 -18 q 31 72 15 50 q 180 241 87 146 q 341 397 274 335 q 411 467 408 458 q 408 471 412 469 q 391 475 403 473 q 363 476 378 476 q 326 476 349 476 q 279 475 302 476 q 225 473 256 475 q 165 471 194 472 q 100 469 137 469 q 31 467 64 468 q 11 488 15 467 q 16 532 7 510 q 42 553 26 553 z "},"":{"ha":796,"x_min":31,"x_max":758,"o":"m 347 993 q 398 1040 351 1023 q 456 1050 445 1058 q 476 991 483 1027 q 439 941 469 956 q 376 945 411 926 q 347 993 342 963 m 31 850 q 286 851 136 849 q 533 850 437 853 q 755 838 629 848 q 779 819 774 837 q 777 778 783 800 q 758 739 770 755 q 532 471 674 627 q 297 214 391 315 q 203 103 203 114 q 280 93 203 94 q 513 97 357 92 q 728 103 669 102 q 753 77 747 103 q 750 26 760 52 q 722 0 741 0 l 31 0 q 17 33 9 7 q 45 85 24 58 q 278 361 133 198 q 517 630 423 525 q 612 745 612 735 q 534 753 612 753 q 329 753 456 754 q 42 758 202 751 q 15 781 24 758 q 9 827 5 804 q 31 850 14 850 z "},"":{"ha":727,"x_min":31,"x_max":697,"o":"m 252 705 q 303 753 256 735 q 361 762 350 770 q 381 704 388 739 q 345 654 374 669 q 281 657 316 639 q 252 705 247 675 m 42 553 q 525 570 259 556 q 550 539 547 571 q 538 488 553 507 q 401 326 488 418 q 255 176 315 233 q 197 117 195 118 q 378 135 202 107 q 697 194 553 163 q 715 178 715 198 q 681 109 713 141 q 655 92 667 95 q 465 55 555 71 q 256 20 376 39 q 56 -14 136 0 q 23 16 31 -18 q 31 72 15 50 q 180 241 87 146 q 341 397 274 335 q 411 467 408 458 q 408 471 412 469 q 391 475 403 473 q 363 476 378 476 q 326 476 349 476 q 279 475 302 476 q 225 473 256 475 q 165 471 194 472 q 100 469 137 469 q 31 467 64 468 q 11 488 15 467 q 16 532 7 510 q 42 553 26 553 z "}}}
